<?xml version="1.0" encoding="UTF-8"?>
<svg version="1.1" xmlns="http://www.w3.org/2000/svg" width="666" height="375">
<path d="M0 0 C6.17775605 5.14148729 9.9657629 12.18117077 11.50390625 20.01171875 C11.95426846 26.4969346 11.81640625 33.01088413 11.81640625 39.51171875 C-4.02359375 39.84171875 -19.86359375 40.17171875 -36.18359375 40.51171875 C-34.75743188 47.74621064 -34.75743188 47.74621064 -31.18359375 53.51171875 C-26.95513897 55.80716563 -22.78534449 56.97483763 -17.99609375 56.13671875 C-14.69901027 55.05962846 -13.49758188 53.78574377 -11.59375 50.9375 C-9.71138855 48.64808563 -8.73535502 47.64555532 -5.82836914 46.94042969 C-3.12480246 46.82390756 -0.50871491 46.89896124 2.19140625 47.07421875 C3.11824219 47.10580078 4.04507813 47.13738281 5 47.16992188 C7.27544862 47.25202569 9.54424371 47.366721 11.81640625 47.51171875 C11.01393204 55.10294028 8.45923023 60.04915822 2.921875 65.3125 C-1.49004187 68.81940828 -5.8273693 70.81558101 -11.18359375 72.51171875 C-11.76367188 72.69605469 -12.34375 72.88039063 -12.94140625 73.0703125 C-24.26014993 75.29856692 -36.04744633 73.78889631 -45.93359375 67.88671875 C-54.03612496 62.05632592 -58.26911773 53.14863175 -60.18359375 43.51171875 C-61.64143963 30.14708873 -60.13501334 16.64823577 -52.0078125 5.51171875 C-38.64935104 -9.13396063 -16.31932144 -10.9784526 0 0 Z M-32.18359375 12.51171875 C-35.69279435 16.77966542 -36.23815603 18.83909245 -37.18359375 24.51171875 C-28.27359375 24.51171875 -19.36359375 24.51171875 -10.18359375 24.51171875 C-11.6059905 15.71157966 -11.6059905 15.71157966 -17.18359375 10.51171875 C-22.81853665 8.84826697 -27.30069645 8.99149047 -32.18359375 12.51171875 Z " fill="#000000" transform="translate(648.18359375,200.48828125)"/>
<path d="M0 0 C0 0.66 0 1.32 0 2 C0.66 2 1.32 2 2 2 C7.04218809 9.95930347 7.68163989 16.59986243 7.48828125 25.8828125 C7.48120651 27.17822968 7.47413177 28.47364685 7.46684265 29.80831909 C7.44793782 33.21832354 7.39898725 36.62722822 7.34332275 40.0368042 C7.29176754 43.52959321 7.2692521 47.02256351 7.24414062 50.515625 C7.19084604 57.34424172 7.10305168 64.17195451 7 71 C0.07 71 -6.86 71 -14 71 C-14.33 69.35 -14.66 67.7 -15 66 C-15.77923828 66.50660156 -15.77923828 66.50660156 -16.57421875 67.0234375 C-17.27160156 67.46945312 -17.96898437 67.91546875 -18.6875 68.375 C-19.37199219 68.81585938 -20.05648437 69.25671875 -20.76171875 69.7109375 C-27.99737234 73.87806784 -35.81870162 74.35650727 -43.89453125 72.2421875 C-49.78873935 69.9976165 -54.49080372 67.58719362 -57.75 62 C-60.54876934 55.28295359 -61.3068493 47.73929687 -59.3515625 40.6484375 C-55.77085088 32.72190494 -49.49155005 28.82812066 -41.625 25.76171875 C-35.47349897 23.97668497 -29.40568417 23.86683899 -23.0625 23.9375 C-22.28326172 23.94201172 -21.50402344 23.94652344 -20.70117188 23.95117188 C-18.80074732 23.96283092 -16.90036294 23.98076123 -15 24 C-15.28359887 22.5608866 -15.57721399 21.12374482 -15.875 19.6875 C-16.03742187 18.88699219 -16.19984375 18.08648437 -16.3671875 17.26171875 C-16.94478999 14.74698882 -16.94478999 14.74698882 -19 12 C-22.71890463 10.76036512 -26.14220896 10.32187267 -30 11 C-33.54956512 13.77792053 -34.97142344 15.94284688 -37 20 C-43.6 20 -50.2 20 -57 20 C-58.69511901 14.91464296 -56.17659639 10.44766402 -53.9296875 5.7734375 C-50.48152084 -0.3236519 -46.55812606 -2.90096492 -39.96484375 -4.9375 C-26.92762929 -8.22987434 -11.29360569 -8.3791268 0 0 Z M-35 42 C-37.19033241 44.60101974 -37.8862129 46.22245484 -38.375 49.5625 C-37.92046091 52.51700407 -37.06414917 53.85940086 -35 56 C-30.22635638 57.59121454 -25.84983145 57.79879085 -21.25 55.8125 C-18.51869091 53.61227879 -16.76495123 52.07232252 -15 49 C-14.67520607 45.63864063 -14.76476398 42.36518193 -15 39 C-22.32825924 38.67022833 -28.4162642 38.52857567 -35 42 Z " fill="#000000" transform="translate(65,201)"/>
<path d="M0 0 C7.85045695 5.47741007 11.34555877 11.85508379 14.6796875 20.74609375 C14.6796875 27.67609375 14.6796875 34.60609375 14.6796875 41.74609375 C-1.4903125 41.74609375 -17.6603125 41.74609375 -34.3203125 41.74609375 C-31.44668365 51.47178118 -31.44668365 51.47178118 -25.3203125 57.74609375 C-20.49852377 59.31841616 -17.00228088 58.5337544 -12.3203125 56.74609375 C-9.18059158 54.58317489 -7.44211747 52.9288012 -5.3203125 49.74609375 C-3.25732422 49.40551758 -3.25732422 49.40551758 -0.75 49.453125 C0.14589844 49.46279297 1.04179687 49.47246094 1.96484375 49.48242188 C3.37056641 49.52012695 3.37056641 49.52012695 4.8046875 49.55859375 C6.22201172 49.57889648 6.22201172 49.57889648 7.66796875 49.59960938 C10.00577529 49.63503069 12.34244987 49.68442104 14.6796875 49.74609375 C13.66350675 58.64569782 10.03566008 64.52962643 3.08984375 70.203125 C-6.74980545 76.5024142 -18.9020009 77.13954889 -30.17578125 75.2734375 C-38.73181863 73.0581534 -46.10061857 68.35196515 -51.03515625 60.95703125 C-51.45925781 60.22742188 -51.88335937 59.4978125 -52.3203125 58.74609375 C-52.73410156 58.03710938 -53.14789063 57.328125 -53.57421875 56.59765625 C-58.65676326 45.65336179 -58.11196627 29.39188131 -54.8828125 17.93359375 C-52.19733925 11.3829572 -47.25802956 4.40705331 -40.59765625 1.59765625 C-39.47037109 1.17613281 -39.47037109 1.17613281 -38.3203125 0.74609375 C-37.9903125 0.08609375 -37.6603125 -0.57390625 -37.3203125 -1.25390625 C-25.69576526 -6.0084115 -11.17861669 -6.04096963 0 0 Z M-28.3203125 14.74609375 C-31.43767353 18.83330043 -33.3203125 21.49969906 -33.3203125 26.74609375 C-24.7403125 26.74609375 -16.1603125 26.74609375 -7.3203125 26.74609375 C-8.0914218 18.29115969 -8.0914218 18.29115969 -13.3203125 12.74609375 C-18.76381614 11.15505328 -23.99010698 10.66332855 -28.3203125 14.74609375 Z " fill="#000000" transform="translate(296.3203125,198.25390625)"/>
<path d="M0 0 C0.7122876 -0.01450195 1.4245752 -0.02900391 2.15844727 -0.04394531 C8.24198806 0.0718644 12.46769615 1.95856055 17.01953125 6.125 C23.94948473 15.13638828 23.45808652 23.45628006 23.41015625 34.49609375 C23.4087413 35.72916763 23.40732635 36.96224152 23.40586853 38.23268127 C23.40028941 42.15514595 23.38774068 46.07755269 23.375 50 C23.36941698 52.66601479 23.36541987 55.33202904 23.36132812 57.99804688 C23.3503268 64.51955343 23.3330765 71.04101691 23.3125 77.5625 C16.0525 77.5625 8.7925 77.5625 1.3125 77.5625 C1.27511719 74.03433594 1.23773438 70.50617188 1.19921875 66.87109375 C1.15296632 63.44223949 1.10174604 60.01349278 1.05004883 56.5847168 C1.01685885 54.20750501 0.98880859 51.83021554 0.96606445 49.45288086 C0.93241014 46.02944942 0.88008699 42.60672604 0.82421875 39.18359375 C0.81782883 38.12603378 0.8114389 37.06847382 0.80485535 35.97886658 C0.6886422 30.10479591 0.20462695 25.72701241 -2.6875 20.5625 C-5.54013543 18.85635233 -8.38441574 18.58508519 -11.6875 18.5625 C-15.92152138 19.97384046 -18.45370936 21.68275836 -20.6875 25.5625 C-21.60730385 28.5528938 -21.83533828 31.30229242 -21.89282227 34.42285156 C-21.91276749 35.38354553 -21.93271271 36.3442395 -21.95326233 37.33404541 C-21.96997482 38.36334167 -21.98668732 39.39263794 -22.00390625 40.453125 C-22.02468735 41.51287537 -22.04546844 42.57262573 -22.06687927 43.66448975 C-22.13222186 47.04709438 -22.19118881 50.42977612 -22.25 53.8125 C-22.29319975 56.10677878 -22.33681451 58.40104979 -22.38085938 60.6953125 C-22.48866793 66.31763048 -22.58785553 71.94000766 -22.6875 77.5625 C-29.9475 77.5625 -37.2075 77.5625 -44.6875 77.5625 C-44.6875 52.4825 -44.6875 27.4025 -44.6875 1.5625 C-37.4275 1.5625 -30.1675 1.5625 -22.6875 1.5625 C-22.6875 4.2025 -22.6875 6.8425 -22.6875 9.5625 C-22.0275 9.5625 -21.3675 9.5625 -20.6875 9.5625 C-20.44128906 8.95921875 -20.19507813 8.3559375 -19.94140625 7.734375 C-15.94215624 0.80732513 -7.2501759 0.07866091 0 0 Z " fill="#000000" transform="translate(367.6875,194.4375)"/>
<path d="M0 0 C7.26 0 14.52 0 22 0 C22.04898437 3.444375 22.09796875 6.88875 22.1484375 10.4375 C22.20251778 13.79024428 22.25979762 17.14291978 22.31738281 20.49560547 C22.35555792 22.817493 22.39043038 25.13943735 22.421875 27.46142578 C22.46777501 30.80782315 22.52572829 34.15383315 22.5859375 37.5 C22.59748871 38.5305249 22.60903992 39.5610498 22.62094116 40.62280273 C22.55907562 50.66069523 22.55907562 50.66069523 27.125 59.0625 C30.95904236 60.3127312 34.21381242 60.27736026 38 59 C40.64233769 56.80742191 42.46669809 55.06660382 44 52 C44.11887956 50.33600717 44.17711944 48.66750725 44.20532227 46.99951172 C44.22526749 45.95858368 44.24521271 44.91765564 44.26576233 43.84518433 C44.29083107 42.1545134 44.29083107 42.1545134 44.31640625 40.4296875 C44.33718735 39.27832306 44.35796844 38.12695862 44.37937927 36.94070435 C44.44491665 33.2521986 44.50377928 29.56361997 44.5625 25.875 C44.60568123 23.37889862 44.64929538 20.8828047 44.69335938 18.38671875 C44.80060235 12.25788774 44.90185801 6.12898323 45 0 C52.26 0 59.52 0 67 0 C67 25.08 67 50.16 67 76 C60.07 76 53.14 76 46 76 C45.505 72.535 45.505 72.535 45 69 C44.5875 69.39832031 44.175 69.79664063 43.75 70.20703125 C36.7123026 76.66349025 30.54209407 78.63360373 20.96484375 78.34375 C14.72979544 77.62084585 9.95414553 75.37507985 5.625 70.8125 C-0.36147448 62.72804191 -0.41651113 54.18548659 -0.29296875 44.43359375 C-0.28872391 43.15895767 -0.28447906 41.88432159 -0.28010559 40.57106018 C-0.26623423 37.21224507 -0.23936858 33.85406301 -0.20599365 30.49542236 C-0.17508729 27.05624812 -0.16155672 23.617008 -0.14648438 20.17773438 C-0.1135248 13.45162826 -0.06179855 6.72590046 0 0 Z " fill="#000000" transform="translate(456,196)"/>
<path d="M0 0 C6.43893157 6.61140295 9.75 13.50524676 9.75 22.796875 C2.82 22.796875 -4.11 22.796875 -11.25 22.796875 C-12.57 20.156875 -13.89 17.516875 -15.25 14.796875 C-17.86632349 11.80679101 -19.14240694 11.80712196 -23.1875 11.421875 C-26.99701212 11.60563625 -29.32533614 12.19717379 -32.25 14.796875 C-37.68366892 21.79088803 -37.79214787 31.26550148 -36.9609375 39.74609375 C-36.1725511 44.21584378 -35.24047031 48.27239214 -32.25 51.796875 C-28.7413874 54.18911086 -26.89049648 54.83000413 -22.625 54.609375 C-17.2740999 53.37534178 -17.2740999 53.37534178 -13.765625 49.4140625 C-13.34796875 48.50914062 -12.9303125 47.60421875 -12.5 46.671875 C-11.7575 45.063125 -11.015 43.454375 -10.25 41.796875 C-3.65 41.796875 2.95 41.796875 9.75 41.796875 C9.75 51.05598297 7.78196244 56.78828166 1.9921875 63.98046875 C-5.1754281 70.9531492 -14.11604008 72.99803288 -23.875 73.234375 C-34.00590974 72.91390745 -42.52996583 70.61456751 -50.25 63.796875 C-58.32058332 54.58230608 -60.81067658 45.47728586 -60.6875 33.421875 C-60.68137695 32.40544922 -60.67525391 31.38902344 -60.66894531 30.34179688 C-60.51920384 23.17724338 -59.69739646 17.17695248 -56.25 10.796875 C-55.96125 10.14074219 -55.6725 9.48460937 -55.375 8.80859375 C-51.85082701 1.46132238 -44.66186682 -2.46985298 -37.3984375 -5.45703125 C-25.61690096 -9.54843757 -9.69795252 -8.16244338 0 0 Z " fill="#000000" transform="translate(143.25,201.203125)"/>
<path d="M0 0 C5.65740324 4.70871803 10.0342297 9.82857074 11.625 17.1875 C11.625 19.4975 11.625 21.8075 11.625 24.1875 C4.695 24.1875 -2.235 24.1875 -9.375 24.1875 C-10.695 21.2175 -12.015 18.2475 -13.375 15.1875 C-17.64168744 13.05415628 -20.73501373 12.63181302 -25.375 13.1875 C-29.35497338 14.54430911 -30.80446793 16.55293776 -32.625 20.1875 C-36.23712574 29.26186466 -35.63342506 37.85663856 -33.375 47.1875 C-33.106875 48.363125 -32.83875 49.53875 -32.5625 50.75 C-31.56900022 53.4005064 -31.56900022 53.4005064 -28.875 54.5 C-28.05 54.726875 -27.225 54.95375 -26.375 55.1875 C-25.385 55.6825 -25.385 55.6825 -24.375 56.1875 C-20.50610388 56.62714729 -18.61834506 56.31385224 -15.125 54.5 C-12.29657031 52.12154776 -11.34947737 50.69561852 -10.375 47.1875 C-9.715 47.1875 -9.055 47.1875 -8.375 47.1875 C-8.375 45.8675 -8.375 44.5475 -8.375 43.1875 C-1.775 43.1875 4.825 43.1875 11.625 43.1875 C13.44756785 48.65520355 10.80256807 54.05296108 8.625 59.1875 C3.06040055 67.55848834 -3.67810671 71.81848673 -13.375 74.1875 C-25.12238052 75.10956758 -36.11411471 74.69946412 -45.49609375 66.890625 C-46.11613281 66.32859375 -46.73617187 65.7665625 -47.375 65.1875 C-48.00535156 64.64609375 -48.63570312 64.1046875 -49.28515625 63.546875 C-57.07275146 55.94115569 -58.55711046 44.8765476 -58.8125 34.4375 C-58.45721301 22.71302918 -55.11651561 11.59296936 -47.13671875 2.7890625 C-34.90397048 -8.33161774 -13.4574309 -9.58370313 0 0 Z " fill="#000000" transform="translate(219.375,199.8125)"/>
<path d="M0 0 C0 7.59 0 15.18 0 23 C4.62 23 9.24 23 14 23 C14 28.61 14 34.22 14 40 C9.38 40 4.76 40 0 40 C0.01938625 45.49999359 0.07099694 50.99837948 0.15258789 56.49780273 C0.1757949 58.36880738 0.19016995 60.23994317 0.19555664 62.11108398 C0.20482682 64.80015028 0.24577159 67.48714645 0.29296875 70.17578125 C0.2890361 71.01337479 0.28510345 71.85096832 0.28105164 72.71394348 C0.37254963 76.34991549 0.46177492 78.44339054 3.04418945 81.11401367 C6.77681258 82.44959956 6.77681258 82.44959956 14 81 C14 86.94 14 92.88 14 99 C3.92885742 101.19499261 -5.60688491 102.04173884 -15 97 C-19.12570158 93.6815009 -20.72086776 91.08740933 -22 86 C-22.26197855 82.44776596 -22.23299651 78.91176387 -22.1953125 75.3515625 C-22.1924826 74.33903412 -22.18965271 73.32650574 -22.18673706 72.28329468 C-22.17558254 69.06374062 -22.15048646 65.84446935 -22.125 62.625 C-22.1149641 60.43620195 -22.10583931 58.24739951 -22.09765625 56.05859375 C-22.07565865 50.70562096 -22.04116122 45.35285835 -22 40 C-24.97 40 -27.94 40 -31 40 C-31.19386492 37.35448944 -31.38038267 34.70882217 -31.5625 32.0625 C-31.61857422 31.30775391 -31.67464844 30.55300781 -31.73242188 29.77539062 C-31.86176157 27.85254042 -31.93516912 25.92610452 -32 24 C-31 23 -31 23 -28.93359375 22.90234375 C-25.46679688 22.95117188 -25.46679688 22.95117188 -22 23 C-22 18.38 -22 13.76 -22 9 C-5 0 -5 0 0 0 Z " fill="#000000" transform="translate(430,173)"/>
<path d="M0 0 C4.6676527 0.60382457 8.59070267 1.8900756 12.93359375 3.6875 C14.26535816 4.23332692 15.59722973 4.77889246 16.92919922 5.32421875 C17.60488953 5.60313965 18.28057983 5.88206055 18.97674561 6.16943359 C22.15228862 7.47302614 25.34400695 8.73521872 28.53515625 10 C29.7898234 10.49972426 31.04438052 10.99972487 32.29882812 11.5 C34.18232253 12.25095325 36.06601053 13.00139459 37.95043945 13.75 C44.92828528 16.5227257 51.88922278 19.3341473 58.80859375 22.25 C59.94997803 22.72953125 61.0913623 23.2090625 62.26733398 23.703125 C65 25 65 25 67 27 C67.14507695 29.74485593 67.18652423 32.38480543 67.125 35.125 C67.11597656 35.87910156 67.10695313 36.63320312 67.09765625 37.41015625 C67.0740687 39.27357254 67.03819719 41.13682593 67 43 C57.73328944 46.89281778 48.42685962 50.68401726 39.1105957 54.45629883 C36.70169959 55.43175006 34.29320438 56.4081858 31.88476562 57.38476562 C28.75811298 58.65235346 25.63023567 59.91684954 22.50146484 61.17919922 C19.52877475 62.37899242 16.56090038 63.58970915 13.59619141 64.80908203 C12.23732309 65.36365185 10.87843729 65.91817887 9.51953125 66.47265625 C8.33077393 66.9612915 7.1420166 67.44992676 5.91723633 67.95336914 C3 69 3 69 0 69 C-0.14510162 65.72963272 -0.23399373 62.46008993 -0.3125 59.1875 C-0.35439453 58.25873047 -0.39628906 57.32996094 -0.43945312 56.37304688 C-0.45556641 55.48037109 -0.47167969 54.58769531 -0.48828125 53.66796875 C-0.51446533 52.84578857 -0.54064941 52.0236084 -0.56762695 51.17651367 C0 49 0 49 2.10351562 47.37695312 C5.30278653 45.856059 8.51402292 44.54320728 11.83203125 43.30078125 C12.46864182 43.0608696 13.10525238 42.82095795 13.76115417 42.57377625 C15.7765839 41.8154343 17.79446341 41.06387354 19.8125 40.3125 C21.18701699 39.79667148 22.56136777 39.28039986 23.93554688 38.76367188 C27.28845779 37.50398436 30.64359853 36.25036187 34 35 C31.42012061 32.42012061 28.99220446 31.73354548 25.56640625 30.46875 C24.93266586 30.23216675 24.29892548 29.9955835 23.64598083 29.75183105 C21.6200407 28.99602441 19.59155271 28.2474066 17.5625 27.5 C15.53723859 26.75204097 13.51264199 26.00246267 11.48973083 25.24816895 C9.65166282 24.56302938 7.81135563 23.88390601 5.97094727 23.20507812 C3 22 3 22 0 20 C-0.34057617 17.93701172 -0.34057617 17.93701172 -0.29296875 15.4296875 C-0.28330078 14.53378906 -0.27363281 13.63789062 -0.26367188 12.71484375 C-0.23853516 11.77769531 -0.21339844 10.84054688 -0.1875 9.875 C-0.17396484 8.93011719 -0.16042969 7.98523438 -0.14648438 7.01171875 C-0.11106306 4.67391221 -0.06167271 2.33723763 0 0 Z " fill="#9F02F9" transform="translate(385,101)"/>
<path d="M0 0 C0 7.26 0 14.52 0 22 C-5.22460938 23.07421875 -5.22460938 23.07421875 -10.44921875 24.1484375 C-13.49609477 24.87915144 -16.19452646 25.61534639 -19 27 C-21.21412304 31.20683378 -22.10572784 35.58594911 -22.20532227 40.30957031 C-22.22526749 41.15013977 -22.24521271 41.99070923 -22.26576233 42.85675049 C-22.29083107 44.20383087 -22.29083107 44.20383087 -22.31640625 45.578125 C-22.33718735 46.5046991 -22.35796844 47.43127319 -22.37937927 48.38592529 C-22.44466961 51.34054272 -22.50366431 54.29524768 -22.5625 57.25 C-22.60570473 59.25521732 -22.64931965 61.26042585 -22.69335938 63.265625 C-22.80110052 68.17699499 -22.90032658 73.08843313 -23 78 C-30.26 77.67 -37.52 77.34 -45 77 C-45 51.92 -45 26.84 -45 1 C-37.74 1 -30.48 1 -23 1 C-23 4.3 -23 7.6 -23 11 C-22.34 11 -21.68 11 -21 11 C-20.773125 10.4225 -20.54625 9.845 -20.3125 9.25 C-18.01362981 5.30907967 -14.23480803 2.6191913 -10 1 C-6.61158511 0.40554125 -3.43985774 0 0 0 Z " fill="#000000" transform="translate(583,195)"/>
<path d="M0 0 C0 0.66 0 1.32 0 2 C-1.11375 2.226875 -2.2275 2.45375 -3.375 2.6875 C-7.16038373 3.60623658 -7.16038373 3.60623658 -8.4375 6.625 C-8.623125 7.40875 -8.80875 8.1925 -9 9 C-8.34 9.33 -7.68 9.66 -7 10 C-7.33 10.99 -7.66 11.98 -8 13 C-8.66 13 -9.32 13 -10 13 C-9.67 13.99 -9.34 14.98 -9 16 C-8.01 16 -7.02 16 -6 16 C-5.67 16.66 -5.34 17.32 -5 18 C-2.67843403 18.40729228 -0.3431213 18.74438677 2 19 C-2.1689219 22.64780666 -7.44803736 25 -13 25 C-13.14510162 21.72963272 -13.23399373 18.46008993 -13.3125 15.1875 C-13.35439453 14.25873047 -13.39628906 13.32996094 -13.43945312 12.37304688 C-13.48544714 9.82497848 -13.47580531 7.50461835 -13 5 C-10.64453125 2.9375 -10.64453125 2.9375 -8 2 C-7.13375 1.608125 -6.2675 1.21625 -5.375 0.8125 C-3 0 -3 0 0 0 Z " fill="#8E0EE1" transform="translate(398,145)"/>
<path d="M0 0 C7.75442524 2.12163674 15.09581822 4.94566613 22.5 8.0625 C23.5828125 8.50916016 24.665625 8.95582031 25.78125 9.41601562 C26.8125 9.84720703 27.84375 10.27839844 28.90625 10.72265625 C29.83759766 11.11203369 30.76894531 11.50141113 31.72851562 11.90258789 C34 13 34 13 36 15 C36.14507695 17.74485593 36.18652423 20.38480543 36.125 23.125 C36.11597656 23.87910156 36.10695313 24.63320312 36.09765625 25.41015625 C36.0740687 27.27357254 36.03819719 29.13682593 36 31 C34.5682384 31.69937202 33.12932968 32.38412718 31.6875 33.0625 C30.48673828 33.63677734 30.48673828 33.63677734 29.26171875 34.22265625 C27 35 27 35 24 34 C24.66 34 25.32 34 26 34 C26 33.34 26 32.68 26 32 C28.64 31.34 31.28 30.68 34 30 C34 25.05 34 20.1 34 15 C32.72640625 14.58878906 31.4528125 14.17757812 30.140625 13.75390625 C24.92595652 12.01534313 19.84187706 10.00415793 14.75 7.9375 C13.87859375 7.58623047 13.0071875 7.23496094 12.109375 6.87304688 C10.45334459 6.20533339 8.79771673 5.53662027 7.14257812 4.86669922 C4.76429402 3.90465403 2.38301904 2.95025346 0 2 C0 1.34 0 0.68 0 0 Z " fill="#781AC7" transform="translate(416,113)"/>
<path d="M0 0 C2.64 0 5.28 0 8 0 C4.71360862 3.28639138 0.33187344 4.48034649 -3.9375 6.1875 C-4.85724609 6.56841797 -5.77699219 6.94933594 -6.72460938 7.34179688 C-7.60826172 7.69693359 -8.49191406 8.05207031 -9.40234375 8.41796875 C-10.21179443 8.74563232 -11.02124512 9.0732959 -11.85522461 9.41088867 C-14 10 -14 10 -17 9 C-16.34 9 -15.68 9 -15 9 C-15 8.01 -15 7.02 -15 6 C-10.545 5.505 -10.545 5.505 -6 5 C-6 4.34 -6 3.68 -6 3 C-4.35 3 -2.7 3 -1 3 C-0.67 2.01 -0.34 1.02 0 0 Z " fill="#8915CF" transform="translate(427,150)"/>
<path d="M0 0 C-0.99 0 -1.98 0 -3 0 C-3.20367187 0.64453125 -3.40734375 1.2890625 -3.6171875 1.953125 C-5 4 -5 4 -7.8203125 4.609375 C-8.91085937 4.65578125 -10.00140625 4.7021875 -11.125 4.75 C-12.22070312 4.80671875 -13.31640625 4.8634375 -14.4453125 4.921875 C-15.70988281 4.96054688 -15.70988281 4.96054688 -17 5 C-17 5.66 -17 6.32 -17 7 C-18.98 7 -20.96 7 -23 7 C-19.53362755 4.68908503 -15.93072245 3.28429458 -12.0625 1.8125 C-11.34642578 1.52697266 -10.63035156 1.24144531 -9.89257812 0.94726562 C-6.13808732 -0.48285089 -3.83152613 -1.24181125 0 0 Z " fill="#7B17C7" transform="translate(421,138)"/>
<path d="M0 0 C0.33 0 0.66 0 1 0 C1 4.62 1 9.24 1 14 C-7.625 18.125 -7.625 18.125 -11 17 C-10.34 17 -9.68 17 -9 17 C-9 16.34 -9 15.68 -9 15 C-6.36 14.34 -3.72 13.68 -1 13 C-0.67 8.71 -0.34 4.42 0 0 Z " fill="#7A0FC0" transform="translate(451,130)"/>
<path d="M0 0 C0.99 0.33 1.98 0.66 3 1 C3 6.28 3 11.56 3 17 C2.01 16.67 1.02 16.34 0 16 C0 10.72 0 5.44 0 0 Z " fill="#7210D8" transform="translate(385,105)"/>
<path d="M0 0 C4.6875 0.78125 4.6875 0.78125 9.375 1.5625 C10.674375 1.7790625 10.674375 1.7790625 12 2 C12 2.66 12 3.32 12 4 C13.65 4 15.3 4 17 4 C17.33 4.99 17.66 5.98 18 7 C11.89262558 5.23536928 5.92566493 3.30442525 0 1 C0 0.67 0 0.34 0 0 Z " fill="#861ACD" transform="translate(401,127)"/>
<path d="M0 0 C2.64 0 5.28 0 8 0 C4.06966866 3.93033134 -0.634846 4.36880541 -6 5 C-6 4.34 -6 3.68 -6 3 C-4.35 3 -2.7 3 -1 3 C-0.67 2.01 -0.34 1.02 0 0 Z " fill="#880EDA" transform="translate(427,150)"/>
<path d="M0 0 C2.97 0.99 5.94 1.98 9 3 C8.67 3.66 8.34 4.32 8 5 C4.5625 4.1875 4.5625 4.1875 1 3 C0.67 2.01 0.34 1.02 0 0 Z " fill="#8412D6" transform="translate(416,113)"/>
<path d="M0 0 C-6.625 3.125 -6.625 3.125 -10 2 C-9.67 1.34 -9.34 0.68 -9 0 C-5.44307323 -0.85056945 -3.50729422 -1.16909807 0 0 Z " fill="#8617CC" transform="translate(410,161)"/>
<path d="M0 0 C-0.99 0 -1.98 0 -3 0 C-3.66 1.32 -4.32 2.64 -5 4 C-5.99 3.67 -6.98 3.34 -8 3 C-7.67 2.01 -7.34 1.02 -7 0 C-3.86650268 -1.04449911 -3.01031744 -0.93423645 0 0 Z " fill="#8C11DF" transform="translate(421,138)"/>
<path d="M0 0 C2.31 0.33 4.62 0.66 7 1 C4.08235 2.9451 2.37462715 3.45276317 -1 4 C-0.67 2.68 -0.34 1.36 0 0 Z " fill="#761CB8" transform="translate(386,166)"/>
</svg>
