<?xml version="1.0" encoding="UTF-8"?>
<svg version="1.1" xmlns="http://www.w3.org/2000/svg" width="784" height="318">
<path d="M0 0 C0.77952026 -0.0033284 1.55904053 -0.0066568 2.36218262 -0.01008606 C4.02676809 -0.01516758 5.69136381 -0.01749401 7.35595703 -0.01733398 C9.84035606 -0.01947448 12.32427626 -0.03748456 14.80859375 -0.05664062 C22.82714044 -0.0858214 30.74259243 0.13239128 38.71484375 1.0390625 C39.39530762 1.11469925 40.07577148 1.190336 40.77685547 1.26826477 C53.90017702 2.93991524 64.10665362 9.74597277 72.578125 19.6015625 C79.75232898 29.67304117 80.59986676 40.40927073 80.65625 52.35546875 C80.676875 53.42861328 80.6975 54.50175781 80.71875 55.60742188 C80.78170888 68.61630092 77.04450286 80.96279827 69.15625 91.48046875 C53.46203116 106.81800079 34.67193774 108.52276456 13.81787109 108.3737793 C11.1193726 108.35521505 8.42121272 108.35327229 5.72265625 108.35351562 C4.00780951 108.34861018 2.29296508 108.34278617 0.578125 108.3359375 C-0.6325766 108.33426826 -0.6325766 108.33426826 -1.86773682 108.33256531 C-7.4775987 108.28412005 -7.4775987 108.28412005 -8.59375 107.16796875 C-8.69129565 105.79153976 -8.72006619 104.4101544 -8.72073364 103.03027344 C-8.72355347 102.1384436 -8.72637329 101.24661377 -8.72927856 100.32775879 C-8.72725433 99.34174683 -8.7252301 98.35573486 -8.72314453 97.33984375 C-8.72489685 96.30742554 -8.72664917 95.27500732 -8.72845459 94.21130371 C-8.73287533 90.78017523 -8.72993433 87.34909781 -8.7265625 83.91796875 C-8.72723548 81.54524729 -8.72820545 79.17252591 -8.72946167 76.79980469 C-8.73093894 71.8196548 -8.72878314 66.83952281 -8.72412109 61.859375 C-8.7184238 55.45968196 -8.72170264 49.06003085 -8.72769356 42.66033936 C-8.73129837 37.75862306 -8.73016095 32.85691679 -8.72756577 27.9552002 C-8.72689628 25.5947672 -8.72772568 23.23433331 -8.73004532 20.87390137 C-8.73257054 17.58127412 -8.72873309 14.28871583 -8.72314453 10.99609375 C-8.72516876 10.01008179 -8.72719299 9.02406982 -8.72927856 8.00817871 C-8.72645874 7.11634888 -8.72363892 6.22451904 -8.72073364 5.30566406 C-8.72035662 4.52620422 -8.71997959 3.74674438 -8.71959114 2.94366455 C-8.40578192 -1.4843763 -3.39673581 0.00503433 0 0 Z M21.40625 26.16796875 C21.40625 44.64796875 21.40625 63.12796875 21.40625 82.16796875 C32.9258709 82.78611489 32.9258709 82.78611489 42.0546875 77.7265625 C48.6751515 70.76700156 49.91017509 62.47922492 49.78125 53.16796875 C49.79285156 52.33007812 49.80445313 51.4921875 49.81640625 50.62890625 C49.78317029 43.47209727 48.65619809 36.96520151 44.09375 31.29296875 C36.03575018 24.92152704 32.66217046 26.16796875 21.40625 26.16796875 Z " fill="#000000" transform="translate(112.59375,104.83203125)"/>
<path d="M0 0 C7.26412993 5.53568744 11.17443122 12.97321429 12.625 21.9375 C12.86634456 25.58895377 12.86066314 29.21713657 12.8125 32.875 C12.8115332 34.31069336 12.8115332 34.31069336 12.81054688 35.77539062 C12.76569754 42.79680246 12.76569754 42.79680246 11.625 43.9375 C10.18210213 44.03045815 8.73470215 44.05496513 7.28881836 44.05102539 C6.3679393 44.05094986 5.44706024 44.05087433 4.49827576 44.05079651 C3.49724319 44.04563522 2.49621063 44.04047394 1.46484375 44.03515625 C0.44524063 44.0337413 -0.57436249 44.03232635 -1.62486267 44.03086853 C-4.89577107 44.02525097 -8.16661213 44.0126955 -11.4375 44 C-13.64908756 43.99498726 -15.86067618 43.99042396 -18.07226562 43.98632812 C-23.50653357 43.97527584 -28.94076197 43.95852063 -34.375 43.9375 C-33.88 44.88625 -33.385 45.835 -32.875 46.8125 C-31.375 49.9375 -31.375 49.9375 -31.375 51.9375 C-20.71136367 55.71999225 -11.07824023 55.35342773 -0.375 51.9375 C0.945 51.9375 2.265 51.9375 3.625 51.9375 C4.32621643 54.33006249 5.01114901 56.72540489 5.6875 59.125 C5.88666016 59.79853516 6.08582031 60.47207031 6.29101562 61.16601562 C8.25444679 68.22747859 8.25444679 68.22747859 6.625 71.9375 C4.33203125 73.265625 4.33203125 73.265625 1.4375 74.1875 C0.49519531 74.50203125 -0.44710937 74.8165625 -1.41796875 75.140625 C-16.13063212 79.10546427 -33.26078672 78.6049162 -46.6875 71.1875 C-54.93638912 65.87997388 -60.00974479 58.42581567 -62.625 49 C-65.32755543 34.92723387 -64.12610849 19.33726306 -56.15234375 7.19140625 C-43.31156656 -9.09239251 -16.9424968 -10.70584 0 0 Z M-31.375 16.9375 C-33.48331259 19.90830411 -33.375 21.12864823 -33.375 24.9375 C-26.775 24.9375 -20.175 24.9375 -13.375 24.9375 C-13.86956547 19.30232777 -13.86956547 19.30232777 -16 16.625 C-21.33141244 12.83689116 -26.10841487 13.38561701 -31.375 16.9375 Z " fill="#000000" transform="translate(262.375,137.0625)"/>
<path d="M0 0 C7.96514397 6.38837057 11.40926204 14.08585946 13 24 C13.23400661 27.34023976 13.23710178 30.65318515 13.1875 34 C13.1865332 35.28583984 13.1865332 35.28583984 13.18554688 36.59765625 C13.14089311 42.85910689 13.14089311 42.85910689 12 44 C10.55710213 44.09295815 9.10970215 44.11746513 7.66381836 44.11352539 C6.7429393 44.11344986 5.82206024 44.11337433 4.87327576 44.11329651 C3.87224319 44.10813522 2.87121063 44.10297394 1.83984375 44.09765625 C0.82024063 44.0962413 -0.19936249 44.09482635 -1.24986267 44.09336853 C-4.52077107 44.08775097 -7.79161213 44.0751955 -11.0625 44.0625 C-13.27408756 44.05748726 -15.48567618 44.05292396 -17.69726562 44.04882812 C-23.13153357 44.03777584 -28.56576197 44.02102063 -34 44 C-33.505 44.94875 -33.01 45.8975 -32.5 46.875 C-31 50 -31 50 -31 52 C-20.33636367 55.78249225 -10.70324023 55.41592773 0 52 C1.32 52 2.64 52 4 52 C4.69918305 54.58067563 5.38461049 57.16372847 6.0625 59.75 C6.26166016 60.47960937 6.46082031 61.20921875 6.66601562 61.9609375 C8.3440929 68.43772697 8.3440929 68.43772697 7 72 C4.70703125 73.23046875 4.70703125 73.23046875 1.8125 74.1875 C0.87019531 74.51105469 -0.07210937 74.83460938 -1.04296875 75.16796875 C-15.66315673 79.28170724 -32.96312988 78.62468896 -46.3125 71.25 C-54.56138912 65.94247388 -59.63474479 58.48831567 -62.25 49.0625 C-64.95785953 34.96211436 -63.71818728 19.45349626 -55.796875 7.2578125 C-43.15989848 -8.62082321 -16.65429085 -10.91025992 0 0 Z M-32 18 C-32.99 21.465 -32.99 21.465 -34 25 C-27.07 25 -20.14 25 -13 25 C-13.50888995 19.38119896 -13.50888995 19.38119896 -15.5625 16.6875 C-21.36366279 12.67131038 -26.84208712 13.08770201 -32 18 Z " fill="#000000" transform="translate(630,137)"/>
<path d="M0 0 C1.21757896 1.02789298 2.40705627 2.09022506 3.5625 3.1875 C4.39201172 3.97447266 4.39201172 3.97447266 5.23828125 4.77734375 C13.12349289 13.09301359 15.0110491 24.07024995 15.5625 35.1875 C15.19124222 47.46375734 11.68930248 57.87328995 3.5625 67.1875 C-5.73465666 75.17753167 -16.55899717 76.97303585 -28.5 76.53125 C-38.27680567 75.67771935 -46.56417604 72.28509749 -53.4375 65.1875 C-62.85467406 53.54912114 -64.4826894 40.68950292 -63.4375 26.1875 C-61.89771702 15.11389408 -57.26965821 6.82012512 -48.65234375 -0.30859375 C-34.68804928 -9.7905221 -13.77928921 -9.75270375 0 0 Z M-32.4375 19.1875 C-34.58909387 24.18280884 -34.7722925 28.72121818 -34.75 34.0625 C-34.76611328 34.82691406 -34.78222656 35.59132813 -34.79882812 36.37890625 C-34.80356157 41.95489976 -33.75374291 46.1029282 -31.4375 51.1875 C-28.4248311 53.94911316 -26.97031992 54.1875 -22.875 54.1875 C-19.42452726 53.42468204 -19.42452726 53.42468204 -17.125 51.3125 C-12.63905667 43.00519753 -12.78429205 33.29773105 -14.4375 24.1875 C-16.27912801 18.78218212 -16.27912801 18.78218212 -20.4375 15.1875 C-25.89424424 14.67271281 -28.6677108 15.09458601 -32.4375 19.1875 Z " fill="#000000" transform="translate(383.4375,137.8125)"/>
<path d="M0 0 C0 7.92 0 15.84 0 24 C5.22063275 23.96042843 5.22063275 23.96042843 10.44116211 23.90991211 C12.29433759 23.90276055 14.14749308 23.9497148 16 24 C17 25 17 25 17.11352539 27.04125977 C17.10828857 27.91580811 17.10305176 28.79035645 17.09765625 29.69140625 C17.09443359 30.63564453 17.09121094 31.57988281 17.08789062 32.55273438 C17.07532227 34.04256836 17.07532227 34.04256836 17.0625 35.5625 C17.05798828 36.55958984 17.05347656 37.55667969 17.04882812 38.58398438 C17.03700023 41.05601487 17.01906415 43.52801472 17 46 C8.585 46.495 8.585 46.495 0 47 C0.11977479 51.52086135 0.24236906 56.04145784 0.37231445 60.56201172 C0.41566926 62.10037653 0.45734395 63.63878963 0.49731445 65.17724609 C0.55500398 67.3865414 0.61870179 69.59559348 0.68359375 71.8046875 C0.70030624 72.49432587 0.71701874 73.18396423 0.73423767 73.89450073 C0.80806995 77.57114264 0.80806995 77.57114264 2 81 C3.68740514 81.02746229 5.3749463 81.04660111 7.0625 81.0625 C8.00222656 81.07410156 8.94195313 81.08570313 9.91015625 81.09765625 C13.29159252 80.99078405 16.65087739 80.47844609 20 80 C20 87.26 20 94.52 20 102 C8.49023202 106.23347788 -3.71514773 108.60258038 -15.6875 104.4375 C-21.14331413 101.75598591 -24.72769108 98.39798719 -26.88232422 92.64355469 C-29.42952276 83.20961139 -29.55388444 73.95106607 -29.6875 64.25 C-29.7207504 62.57028719 -29.75524688 60.89059857 -29.79101562 59.2109375 C-29.87502269 55.14076073 -29.94224019 51.07063036 -30 47 C-33.96 46.505 -33.96 46.505 -38 46 C-38.02887814 42.52085059 -38.04675687 39.04173169 -38.0625 35.5625 C-38.07087891 34.56927734 -38.07925781 33.57605469 -38.08789062 32.55273438 C-38.09111328 31.60849609 -38.09433594 30.66425781 -38.09765625 29.69140625 C-38.10289307 28.81685791 -38.10812988 27.94230957 -38.11352539 27.04125977 C-38 25 -38 25 -37 24 C-34.36 24 -31.72 24 -29 24 C-29 17.4 -29 10.8 -29 4 C-25.48049042 3.32560295 -21.9596637 2.66026628 -18.4375 2 C-17.44685547 1.80921875 -16.45621094 1.6184375 -15.43554688 1.421875 C-14.46552734 1.24140625 -13.49550781 1.0609375 -12.49609375 0.875 C-11.16856079 0.62363281 -11.16856079 0.62363281 -9.81420898 0.3671875 C-7 0 -7 0 0 0 Z " fill="#000000" transform="translate(543,108)"/>
<path d="M0 0 C0 7.92 0 15.84 0 24 C5.22063275 23.96042843 5.22063275 23.96042843 10.44116211 23.90991211 C12.29433759 23.90276055 14.14749308 23.9497148 16 24 C17 25 17 25 17.11352539 27.04125977 C17.10828857 27.91580811 17.10305176 28.79035645 17.09765625 29.69140625 C17.09443359 30.63564453 17.09121094 31.57988281 17.08789062 32.55273438 C17.07532227 34.04256836 17.07532227 34.04256836 17.0625 35.5625 C17.05798828 36.55958984 17.05347656 37.55667969 17.04882812 38.58398438 C17.03700023 41.05601487 17.01906415 43.52801472 17 46 C11.39 46 5.78 46 0 46 C0.11976708 50.66327136 0.242358 55.32628515 0.37231445 59.98925781 C0.41567241 61.57612657 0.45734687 63.16304224 0.49731445 64.75 C0.55499632 67.02878979 0.61869638 69.30734322 0.68359375 71.5859375 C0.70030624 72.29744965 0.71701874 73.00896179 0.73423767 73.74203491 C0.79721937 77.49660817 0.79721937 77.49660817 2 81 C3.68740514 81.02746229 5.3749463 81.04660111 7.0625 81.0625 C8.00222656 81.07410156 8.94195312 81.08570313 9.91015625 81.09765625 C13.29159252 80.99078405 16.65087739 80.47844609 20 80 C20 86.93 20 93.86 20 101 C9.41979096 105.70231513 -3.02444399 108.73616048 -14.5625 104.875 C-21.70365734 100.97982327 -25.51257261 97.42476349 -28.20605469 89.62451172 C-29.95077881 81.65951348 -29.40165958 73.42271083 -29.25 65.3125 C-29.22989983 63.43556598 -29.2116553 61.55861112 -29.1953125 59.68164062 C-29.15160563 55.12057194 -29.08277384 50.56052012 -29 46 C-31.97 46 -34.94 46 -38 46 C-38.02887814 42.52085059 -38.04675687 39.04173169 -38.0625 35.5625 C-38.07087891 34.56927734 -38.07925781 33.57605469 -38.08789062 32.55273438 C-38.09111328 31.60849609 -38.09433594 30.66425781 -38.09765625 29.69140625 C-38.10289307 28.81685791 -38.10812988 27.94230957 -38.11352539 27.04125977 C-38 25 -38 25 -37 24 C-34.36 24 -31.72 24 -29 24 C-29 17.4 -29 10.8 -29 4 C-25.48049042 3.32560295 -21.9596637 2.66026628 -18.4375 2 C-17.44685547 1.80921875 -16.45621094 1.6184375 -15.43554688 1.421875 C-14.46552734 1.24140625 -13.49550781 1.0609375 -12.49609375 0.875 C-11.16856079 0.62363281 -11.16856079 0.62363281 -9.81420898 0.3671875 C-7 0 -7 0 0 0 Z " fill="#000000" transform="translate(482,108)"/>
<path d="M0 0 C1.16781006 0.00523682 2.33562012 0.01047363 3.53881836 0.01586914 C4.79887695 0.0190918 6.05893555 0.02231445 7.35717773 0.02563477 C8.6976732 0.03399136 10.03816799 0.04245632 11.37866211 0.05102539 C12.72306153 0.05603879 14.06746271 0.06060197 15.41186523 0.06469727 C18.71334151 0.07653051 22.01473014 0.09301568 25.31616211 0.11352539 C25.33949259 14.04731811 25.3570756 27.98110782 25.36797428 41.91491604 C25.37320379 48.3842022 25.38030267 54.85347528 25.39160156 61.32275391 C25.40242803 67.56022839 25.40843843 73.79769026 25.41103935 80.03517342 C25.41289404 82.42072816 25.41651547 84.80628218 25.42189217 87.19183159 C25.4290994 90.5204813 25.43015319 93.84907818 25.4296875 97.17773438 C25.43328278 98.17466812 25.43687805 99.17160187 25.44058228 100.19874573 C25.43920761 101.10043488 25.43783295 102.00212402 25.43641663 102.93113708 C25.43733842 103.71927009 25.43826021 104.50740309 25.43920994 105.31941891 C25.31616211 107.11352539 25.31616211 107.11352539 24.31616211 108.11352539 C22.32859183 108.21335597 20.33748691 108.24433292 18.34741211 108.24633789 C17.13698242 108.24762695 15.92655273 108.24891602 14.67944336 108.25024414 C13.40456055 108.24637695 12.12967773 108.24250977 10.81616211 108.23852539 C9.5412793 108.24239258 8.26639648 108.24625977 6.95288086 108.25024414 C5.74245117 108.24895508 4.53202148 108.24766602 3.28491211 108.24633789 C2.16536133 108.24520996 1.04581055 108.24408203 -0.10766602 108.24291992 C-2.68383789 108.11352539 -2.68383789 108.11352539 -3.68383789 107.11352539 C-3.78138354 105.7370964 -3.81015408 104.35571104 -3.81082153 102.97583008 C-3.81364136 102.08400024 -3.81646118 101.19217041 -3.81936646 100.27331543 C-3.81734222 99.28730347 -3.81531799 98.3012915 -3.81323242 97.28540039 C-3.81498474 96.25298218 -3.81673706 95.22056396 -3.81854248 94.15686035 C-3.82296322 90.72573187 -3.82002222 87.29465445 -3.81665039 83.86352539 C-3.81732337 81.49080394 -3.81829334 79.11808255 -3.81954956 76.74536133 C-3.82102683 71.76521144 -3.81887103 66.78507945 -3.81420898 61.80493164 C-3.80851169 55.4052386 -3.81179053 49.00558749 -3.81778145 42.605896 C-3.82138626 37.7041797 -3.82024884 32.80247343 -3.81765366 27.90075684 C-3.81698417 25.54032384 -3.81781357 23.17988996 -3.82013321 20.81945801 C-3.82265843 17.52683077 -3.81882098 14.23427247 -3.81323242 10.94165039 C-3.81525665 9.95563843 -3.81728088 8.96962646 -3.81936646 7.95373535 C-3.81654663 7.06190552 -3.81372681 6.17007568 -3.81082153 5.2512207 C-3.81044451 4.47176086 -3.81006748 3.69230103 -3.80967903 2.88922119 C-3.60058175 -0.0612699 -2.97114313 0.1256783 0 0 Z " fill="#000000" transform="translate(286.683837890625,104.886474609375)"/>
<path d="M0 0 C1.12591553 0.00523682 2.25183105 0.01047363 3.41186523 0.01586914 C4.62680664 0.0190918 5.84174805 0.02231445 7.09350586 0.02563477 C8.37290039 0.03401367 9.65229492 0.04239258 10.97045898 0.05102539 C12.2537207 0.05553711 13.53698242 0.06004883 14.85913086 0.06469727 C18.04211921 0.07652994 21.22501661 0.09301471 24.40795898 0.11352539 C25.90807296 3.11375335 25.546595 6.19503213 25.53735352 9.48486328 C25.53910583 10.24432755 25.54085815 11.00379181 25.54266357 11.78627014 C25.54707398 14.30293038 25.54414724 16.81952066 25.54077148 19.33618164 C25.54144469 21.07970697 25.54241485 22.8232322 25.54367065 24.5667572 C25.54514647 28.22273654 25.54299653 31.87869147 25.53833008 35.53466797 C25.53262864 40.23153402 25.53591515 44.92834299 25.54190254 49.62520695 C25.54550769 53.22558527 25.54436986 56.82594994 25.54177475 60.42632866 C25.54110557 62.15876713 25.54193359 63.89120683 25.5442543 65.62364388 C25.54678053 68.03965689 25.54294088 70.45557604 25.53735352 72.87158203 C25.53937775 73.59420227 25.54140198 74.31682251 25.54348755 75.06134033 C25.52222255 79.99926182 25.52222255 79.99926182 24.40795898 81.11352539 C22.42038871 81.21335597 20.42928379 81.24433292 18.43920898 81.24633789 C17.2287793 81.24762695 16.01834961 81.24891602 14.77124023 81.25024414 C13.49635742 81.24637695 12.22147461 81.24250977 10.90795898 81.23852539 C9.63307617 81.24239258 8.35819336 81.24625977 7.04467773 81.25024414 C5.83424805 81.24895508 4.62381836 81.24766602 3.37670898 81.24633789 C2.2571582 81.24520996 1.13760742 81.24408203 -0.01586914 81.24291992 C-2.59204102 81.11352539 -2.59204102 81.11352539 -3.59204102 80.11352539 C-3.69235982 77.65447318 -3.72822282 75.22349112 -3.72143555 72.76391602 C-3.72318787 71.99484421 -3.72494019 71.2257724 -3.72674561 70.43339539 C-3.73116441 67.87883276 -3.72822604 65.32433878 -3.72485352 62.76977539 C-3.72552655 61.00240058 -3.72649656 59.23502586 -3.72775269 57.46765137 C-3.7292297 53.75861736 -3.727075 50.04960739 -3.72241211 46.34057617 C-3.71671482 41.57530046 -3.71999381 36.81008107 -3.72598457 32.04480743 C-3.7295901 28.39381482 -3.72845164 24.74283566 -3.72585678 21.09184265 C-3.72518749 19.3342844 -3.72601601 17.57672494 -3.72833633 15.81916809 C-3.73086272 13.36712385 -3.72702248 10.91517208 -3.72143555 8.46313477 C-3.72345978 7.72959274 -3.72548401 6.99605072 -3.72756958 6.24028015 C-3.70178251 0.1621295 -3.70178251 0.1621295 0 0 Z " fill="#000000" transform="translate(410.592041015625,131.886474609375)"/>
<path d="M0 0 C4.98669007 2.49334503 8.49675474 5.99350949 11 11 C11.54360446 15.95482094 11.56437074 19.87125852 9.3125 24.375 C6.04981492 28.07858847 2.70771139 31.73011373 -2.390625 32.23828125 C-10.08123912 32.43790102 -13.59952144 31.12476408 -19.3125 25.875 C-21.77602785 21.67787847 -22.30924859 17.83753159 -22 13 C-20.44356912 7.64404669 -17.72592149 4.02943685 -13 1 C-8.64950335 -0.45016555 -4.54665815 -0.51070107 0 0 Z " fill="#7FC141" transform="translate(669,182)"/>
<path d="M0 0 C3.9693655 -0.02291487 7.9385632 -0.04284015 11.90795898 -0.05493164 C13.25920386 -0.05997057 14.61044326 -0.06680177 15.96166992 -0.07543945 C17.90020434 -0.08752419 19.838778 -0.09269828 21.77734375 -0.09765625 C23.52905884 -0.10551147 23.52905884 -0.10551147 25.31616211 -0.11352539 C28 0 28 0 29 1 C29.10007008 3.82256491 29.13875598 6.6152319 29.125 9.4375 C29.13080078 10.62182617 29.13080078 10.62182617 29.13671875 11.83007812 C29.12663067 17.74673867 29.12663067 17.74673867 28 20 C18.76 20 9.52 20 0 20 C0 13.4 0 6.8 0 0 Z " fill="#000000" transform="translate(407,105)"/>
<path d="M0 0 C3.28619307 2.42140542 5.48690913 4.18976207 7 8 C7.70077817 12.93804153 7.55558401 16.88883198 5.3125 21.375 C2.53604336 24.52665348 -0.22623629 27.11311814 -4 29 C-5.87379605 29.07033769 -7.75001102 29.0843022 -9.625 29.0625 C-10.62789062 29.05347656 -11.63078125 29.04445312 -12.6640625 29.03515625 C-13.43492187 29.02355469 -14.20578125 29.01195312 -15 29 C-15 28.67 -15 28.34 -15 28 C-12.69 28 -10.38 28 -8 28 C-7.67 27.01 -7.34 26.02 -7 25 C-6.05125 24.87625 -5.1025 24.7525 -4.125 24.625 C-0.91332809 24.28312823 -0.91332809 24.28312823 1 22 C2.05021103 20.15028304 2.05021103 20.15028304 3 18 C3.4125 17.2575 3.825 16.515 4.25 15.75 C5.32108329 11.82269461 4.48761803 8.73936772 3 5 C1.50113129 3.16310524 1.50113129 3.16310524 0 2 C0 1.34 0 0.68 0 0 Z " fill="#82B052" transform="translate(673,185)"/>
<path d="M0 0 C0.66 0.33 1.32 0.66 2 1 C1.38125 1.433125 0.7625 1.86625 0.125 2.3125 C-3.10027591 6.39152541 -3.33661635 10.9373353 -4 16 C-4.99 16.33 -5.98 16.66 -7 17 C-6.67948539 9.78842136 -5.25844714 5.25844714 0 0 Z " fill="#89AF59" transform="translate(654,184)"/>
<path d="M0 0 C-0.375 1.9375 -0.375 1.9375 -1 4 C-3.64458379 5.32229189 -5.67761301 5.09677194 -8.625 5.0625 C-9.62789062 5.05347656 -10.63078125 5.04445312 -11.6640625 5.03515625 C-12.43492187 5.02355469 -13.20578125 5.01195312 -14 5 C-14 4.67 -14 4.34 -14 4 C-11.69 4 -9.38 4 -7 4 C-6.67 3.01 -6.34 2.02 -6 1 C-3.90006779 0.25486277 -2.22568901 0 0 0 Z " fill="#84B94C" transform="translate(672,209)"/>
<path d="M0 0 C1.31677734 -0.02126953 1.31677734 -0.02126953 2.66015625 -0.04296875 C4.9375 0.1875 4.9375 0.1875 6.9375 2.1875 C4.81381556 2.40884176 2.68845976 2.61420007 0.5625 2.8125 C-0.62085938 2.92851562 -1.80421875 3.04453125 -3.0234375 3.1640625 C-4.02632812 3.17179688 -5.02921875 3.17953125 -6.0625 3.1875 C-6.7225 2.5275 -7.3825 1.8675 -8.0625 1.1875 C-5.12020079 0.2067336 -3.0716216 0.02261872 0 0 Z " fill="#82B152" transform="translate(664.0625,181.8125)"/>
<path d="M0 0 C0.66 0 1.32 0 2 0 C2.226875 0.598125 2.45375 1.19625 2.6875 1.8125 C4.33307014 4.5551169 6.27035797 5.41968093 9 7 C9 7.66 9 8.32 9 9 C4.5937814 7.65365543 2.56922298 5.80625626 0 2 C0 1.34 0 0.68 0 0 Z " fill="#82AF4E" transform="translate(649,204)"/>
</svg>
