<?xml version="1.0" encoding="UTF-8"?>
<svg version="1.1" xmlns="http://www.w3.org/2000/svg" width="324" height="53">
<path d="M0 0 C4.02009457 -0.07455949 8.03991733 -0.12879358 12.06054688 -0.16479492 C13.42617816 -0.17981428 14.79176176 -0.20023608 16.15722656 -0.22631836 C18.12803905 -0.26300137 20.09921408 -0.27818551 22.0703125 -0.29296875 C23.25383301 -0.3086792 24.43735352 -0.32438965 25.65673828 -0.34057617 C29.96783013 0.09859231 33.57053757 1.32193541 36.4375 4.6875 C37.30493295 8.25361324 37.03040276 11.48366053 36 15 C33.9375 17.5 33.9375 17.5 32 19 C32.309375 19.61875 32.61875 20.2375 32.9375 20.875 C34.96789945 24.9357989 35.38136431 27.34735541 35 32 C32.8846362 37.20026933 30.87407029 39.74106045 25.66601562 42.20825195 C19.80858443 43.94778028 13.55485986 43.4007316 7.5 43.25 C6.09117126 43.22990166 4.68231479 43.21165678 3.2734375 43.1953125 C-0.15175664 43.14839203 -3.57551524 43.08274777 -7 43 C-6.38904925 34.22784146 -5.0282645 25.65434355 -3.5 17 C-3.27178756 15.67844544 -3.04392104 14.3568311 -2.81640625 13.03515625 C-1.13886634 3.41659903 -1.13886634 3.41659903 0 0 Z M13 10 C12.67 12.31 12.34 14.62 12 17 C16.0100934 17.17864631 16.0100934 17.17864631 20 17 C20.66 16.34 21.32 15.68 22 15 C21.83333333 12.91666667 21.83333333 12.91666667 21 11 C18.29120665 9.64560332 15.99066732 9.93498549 13 10 Z M10 26 C9.67 28.31 9.34 30.62 9 33 C14.53069113 33.43933257 14.53069113 33.43933257 19.5 31.5 C19.995 31.005 20.49 30.51 21 30 C20.67 28.68 20.34 27.36 20 26 C16.7 26 13.4 26 10 26 Z " fill="#303E93" transform="translate(193,4)"/>
<path d="M0 0 C4.1625612 -0.07453622 8.3247618 -0.12878254 12.48779297 -0.16479492 C13.90192437 -0.17981825 15.31600968 -0.20024305 16.72998047 -0.22631836 C18.77062397 -0.26298954 20.81064792 -0.27979036 22.8515625 -0.29296875 C24.07697754 -0.3086792 25.30239258 -0.32438965 26.56494141 -0.34057617 C30.36159324 0.03585093 32.74933845 1.0402811 36 3 C38.63965997 6.35956723 38.42022063 9.86783048 38 14 C36.92310535 16.67897438 35.68335628 18.59520532 34 21 C33.01 21.33 32.02 21.66 31 22 C31.73669922 22.71929688 31.73669922 22.71929688 32.48828125 23.453125 C34.69954482 27.17856129 34.32474299 30.50602447 34.1875 34.75 C34.16719727 35.93916016 34.16719727 35.93916016 34.14648438 37.15234375 C34.11125223 39.10185564 34.05744821 41.05101626 34 43 C29.05 43 24.1 43 19 43 C19.03255208 39.90755208 19.06510417 36.81510417 19.09765625 33.72265625 C19.31262571 31.08552366 19.31262571 31.08552366 18 30 C16.48530552 29.76807135 14.96245438 29.58784762 13.4375 29.4375 C12.61121094 29.35371094 11.78492188 29.26992188 10.93359375 29.18359375 C9.97646484 29.09271484 9.97646484 29.09271484 9 29 C8.90912109 30.13888672 8.90912109 30.13888672 8.81640625 31.30078125 C8.73261719 32.29464844 8.64882812 33.28851563 8.5625 34.3125 C8.48128906 35.29863281 8.40007812 36.28476562 8.31640625 37.30078125 C8 40 8 40 7 43 C2.05 43 -2.9 43 -8 43 C-7.02547655 37.196897 -6.04679351 31.39451698 -5.06420898 25.59277344 C-4.73037453 23.61803297 -4.39768771 21.64309814 -4.06616211 19.66796875 C-3.59007862 16.83281688 -3.10990371 13.99838428 -2.62890625 11.1640625 C-2.4069735 9.83430893 -2.4069735 9.83430893 -2.18055725 8.47769165 C-2.04048752 7.65699188 -1.90041779 6.83629211 -1.75610352 5.99072266 C-1.63396988 5.26680328 -1.51183624 4.54288391 -1.38600159 3.79702759 C-1 2 -1 2 0 0 Z M12 11 C11.67 13.31 11.34 15.62 11 18 C12.62463842 18.05395478 14.24978541 18.09277195 15.875 18.125 C16.77992188 18.14820313 17.68484375 18.17140625 18.6171875 18.1953125 C21.18806994 18.24324836 21.18806994 18.24324836 23 16 C23 14.68 23 13.36 23 12 C20.59454362 10.79727181 19.05003047 10.89928528 16.375 10.9375 C15.55773437 10.94652344 14.74046875 10.95554687 13.8984375 10.96484375 C13.27195313 10.97644531 12.64546875 10.98804688 12 11 Z " fill="#303F94" transform="translate(146,4)"/>
<path d="M0 0 C7.24395367 5.00643902 11.54615873 11.43235412 13.8125 19.9375 C15.04124329 28.11240432 12.95853823 34.45339995 8.26953125 41.13671875 C4.51288893 45.78739036 0.7227819 49.49816194 -5.1875 50.9375 C-13.55722317 51.76669858 -22.21195406 52.36490181 -29.1875 46.9375 C-34.22512922 42.71994996 -38.10603783 37.18188651 -40.1875 30.9375 C-41.04525529 20.78505218 -39.63557645 14.06035643 -34 5.6875 C-25.14678485 -2.96897704 -11.4623177 -5.85765302 0 0 Z M-29.71484375 9.1171875 C-33.77542756 14.13637067 -34.6491124 18.69220379 -35.1875 24.9375 C-36.5075 25.2675 -37.8275 25.5975 -39.1875 25.9375 C-37.05506701 31.77363239 -34.94751443 35.05749279 -29.1875 37.9375 C-24.47973 38.32981417 -22.11670303 38.41086758 -17.875 36.25 C-15.15482961 33.90938826 -13.62520573 32.21227417 -12.1875 28.9375 C-11.93553871 26.22796449 -11.93553871 26.22796449 -12.1875 23.9375 C-10.2075 23.9375 -8.2275 23.9375 -6.1875 23.9375 C-7.32312549 29.42635656 -8.44473307 33.58779789 -12.1875 37.9375 C-16.44811572 40.22560844 -20.40060358 41.35373214 -25.1875 41.9375 C-25.1875 42.2675 -25.1875 42.5975 -25.1875 42.9375 C-18.71917563 43.53396434 -14.22421141 43.22435232 -8.87890625 39.34765625 C-4.74989342 35.90522292 -3.06281547 33.45268777 -2.4375 28.125 C-2.33738885 26.7302696 -2.24837116 25.33449314 -2.1875 23.9375 C-0.2075 23.9375 1.7725 23.9375 3.8125 23.9375 C2.79997761 29.93269835 1.40072923 34.03358672 -2.1875 38.9375 C-2.1875 39.5975 -2.1875 40.2575 -2.1875 40.9375 C-7.86786739 44.01436567 -13.76836978 46.13510872 -20.1875 46.9375 C-20.1875 47.2675 -20.1875 47.5975 -20.1875 47.9375 C-12.10626267 48.44257733 -5.95289376 47.30301437 0.5625 42.3125 C5.26296017 37.98850689 7.61840649 32.70333255 8.0625 26.375 C7.98 25.570625 7.8975 24.76625 7.8125 23.9375 C9.1325 23.9375 10.4525 23.9375 11.8125 23.9375 C11.35963369 19.06918719 10.22928531 16.45190774 6.8125 12.9375 C2.56971531 10.39360813 -1.3568217 10.26657246 -6.1875 10.9375 C-11.11479342 13.30990054 -13.27382828 15.8343754 -15.1875 20.9375 C-15.1875 22.2575 -15.1875 23.5775 -15.1875 24.9375 C-17.1675 24.9375 -19.1475 24.9375 -21.1875 24.9375 C-20.73386829 23.35281323 -20.27438548 21.76980076 -19.8125 20.1875 C-19.42964844 18.86492188 -19.42964844 18.86492188 -19.0390625 17.515625 C-17.01545699 11.3891129 -17.01545699 11.3891129 -14.125 9.8125 C-10.18826129 8.63985443 -6.21016395 7.76131353 -2.1875 6.9375 C-2.1875 6.6075 -2.1875 6.2775 -2.1875 5.9375 C-8.55213403 5.35059727 -13.20326179 5.59084936 -18.49609375 9.38671875 C-23.20066259 13.70014561 -24.6811479 18.73468682 -25.1875 24.9375 C-27.1675 24.9375 -29.1475 24.9375 -31.1875 24.9375 C-29.69873346 17.71567633 -28.1328323 11.67055196 -22.1875 6.9375 C-17.0785105 3.89444068 -12.07944045 2.43894174 -6.1875 1.9375 C-6.1875 1.6075 -6.1875 1.2775 -6.1875 0.9375 C-16.1221929 0.38783461 -22.81757233 1.60717443 -29.71484375 9.1171875 Z " fill="#303E93" transform="translate(40.1875,2.0625)"/>
<path d="M0 0 C4.95 0 9.9 0 15 0 C13.90540351 7.81854632 12.76810932 15.6091783 11.3671875 23.37890625 C11.0041116 25.97065014 10.862241 28.38717096 11 31 C12.10528442 32.31968178 12.10528442 32.31968178 14.875 32.25 C17.90674324 32.27966011 17.90674324 32.27966011 19.61083984 30.83569336 C21.44582564 28.41086767 21.7956793 26.36361189 22.3515625 23.37890625 C22.56296875 22.27869141 22.774375 21.17847656 22.9921875 20.04492188 C23.20101563 18.89572266 23.40984375 17.74652344 23.625 16.5625 C24.05414844 14.29286676 24.48381456 12.02333132 24.9140625 9.75390625 C25.0992041 8.74658447 25.2843457 7.7392627 25.47509766 6.70141602 C25.91206314 4.45256806 26.44437338 2.22250648 27 0 C31.95 0 36.9 0 42 0 C40.95612999 8.08999255 39.68422699 16.07047495 38.0625 24.0625 C37.90491211 24.87114502 37.74732422 25.67979004 37.58496094 26.51293945 C36.6837685 30.83062646 35.75086189 34.43034371 33 38 C32.34 38 31.68 38 31 38 C31 38.66 31 39.32 31 40 C22.39492727 45.03315575 13.97759493 46.08143942 4.234375 43.80078125 C0.64714176 42.51514696 -1.37575786 40.75881866 -4 38 C-6.71316229 29.86051312 -4.09337883 21.15637704 -2.5 13 C-2.26152344 11.74832031 -2.02304688 10.49664062 -1.77734375 9.20703125 C-1.19141591 6.13676937 -0.59659577 3.0682068 0 0 Z " fill="#303F94" transform="translate(240,4)"/>
<path d="M0 0 C1.29550781 -0.02578125 2.59101563 -0.0515625 3.92578125 -0.078125 C7.92942221 0.27110225 10.28960081 1.15085339 13.6875 3.25 C16.97073075 7.29931793 16.6875 8.64675951 16.6875 14.25 C12.0675 14.25 7.4475 14.25 2.6875 14.25 C2.3575 13.59 2.0275 12.93 1.6875 12.25 C-0.6225 12.25 -2.9325 12.25 -5.3125 12.25 C-5.3125 12.91 -5.3125 13.57 -5.3125 14.25 C-4.28769531 14.56453125 -3.26289063 14.8790625 -2.20703125 15.203125 C-0.84617287 15.63484559 0.51449427 16.06716934 1.875 16.5 C2.54853516 16.70496094 3.22207031 16.90992187 3.91601562 17.12109375 C8.20030193 18.50042495 11.40794892 20.03221071 14.6875 23.25 C15.95598825 27.45186733 15.86899808 29.69595323 14.5 33.875 C11.73374898 39.02595018 9.47211266 42.55836249 3.80078125 44.68359375 C-3.41252882 46.61692085 -11.30038316 47.16467507 -18.3125 44.25 C-21.3125 41.6875 -21.3125 41.6875 -23.3125 39.25 C-23.6425 38.92 -23.9725 38.59 -24.3125 38.25 C-24.45365161 35.57941149 -24.35497107 32.92567762 -24.3125 30.25 C-22.02140403 30.16924335 -19.72950733 30.11092269 -17.4375 30.0625 C-15.52324219 30.01029297 -15.52324219 30.01029297 -13.5703125 29.95703125 C-12.49523437 30.05371094 -11.42015625 30.15039062 -10.3125 30.25 C-9.6525 31.24 -8.9925 32.23 -8.3125 33.25 C-6.34888136 33.82748803 -6.34888136 33.82748803 -4.1875 33.9375 C-2.90875 34.040625 -1.63 34.14375 -0.3125 34.25 C-0.19774762 32.28466495 -0.19774762 32.28466495 -1.3125 30.25 C-4.63403964 29.0264724 -7.88414674 28.1661869 -11.32226562 27.359375 C-15.36666855 26.27889407 -16.99594135 25.61726711 -19.82421875 22.3359375 C-21.73950971 18.36459928 -21.58577686 15.3573447 -20.3125 11.25 C-15.8141304 2.58647336 -9.31272791 0.11053683 0 0 Z " fill="#303E94" transform="translate(307.3125,2.75)"/>
<path d="M0 0 C5.28 0 10.56 0 16 0 C17.0040133 5.15815649 18.00069218 10.31765705 18.99072266 15.47851562 C19.32824774 17.23248108 19.66774274 18.98606868 20.00927734 20.73925781 C20.50100925 23.2652975 20.98554462 25.79262971 21.46875 28.3203125 C21.62186646 29.09867462 21.77498291 29.87703674 21.93273926 30.6789856 C22.07288452 31.41930023 22.21302979 32.15961487 22.35742188 32.92236328 C22.48177612 33.56634064 22.60613037 34.21031799 22.73425293 34.87380981 C23.0703759 37.56306375 23 40.28982189 23 43 C18.38 43 13.76 43 9 43 C8.505 40.525 8.505 40.525 8 38 C5.87420987 38.05988141 3.74921587 38.14862744 1.625 38.25 C0.44164063 38.29640625 -0.74171875 38.3428125 -1.9609375 38.390625 C-3.46527344 38.69226562 -3.46527344 38.69226562 -5 39 C-5.66 40.32 -6.32 41.64 -7 43 C-11.95 43 -16.9 43 -22 43 C-20.46442028 39.16105071 -18.85202374 35.64606007 -16.953125 31.9921875 C-16.355 30.83976562 -15.756875 29.68734375 -15.140625 28.5 C-14.82931641 27.90316406 -14.51800781 27.30632813 -14.19726562 26.69140625 C-13.2642889 24.90239933 -12.33496007 23.11153734 -11.40625 21.3203125 C-7.68640103 14.16675678 -3.884291 7.06559682 0 0 Z M5 15 C4.16209211 16.78953185 3.32980604 18.58169695 2.5 20.375 C2.0359375 21.37273438 1.571875 22.37046875 1.09375 23.3984375 C-0.1291873 25.83692626 -0.1291873 25.83692626 0 28 C2.31 28 4.62 28 7 28 C6.67 23.71 6.34 19.42 6 15 C5.67 15 5.34 15 5 15 Z " fill="#303E93" transform="translate(87,4)"/>
<path d="M0 0 C4.95 0 9.9 0 15 0 C14.33876936 8.77633394 13.02996939 17.33600189 11.5 26 C11.27178756 27.32155456 11.04392104 28.6431689 10.81640625 29.96484375 C9.13886634 39.58340097 9.13886634 39.58340097 8 43 C3.05 43 -1.9 43 -7 43 C-5.42289147 28.5192762 -2.73907683 14.30174468 0 0 Z " fill="#303E93" transform="translate(123,4)"/>
</svg>
