<?xml version="1.0" encoding="UTF-8"?>
<svg version="1.1" xmlns="http://www.w3.org/2000/svg" width="289" height="52">
<path d="M0 0 C0.99 0.33 1.98 0.66 3 1 C3 1.66 3 2.32 3 3 C5.51377166 2.58103806 7.63673908 2.19473781 9.89453125 0.984375 C13.5196287 -0.71047576 17.08839256 -0.53086101 21 0 C24.14500671 1.4721308 25.46855372 2.64341345 26.7421875 5.89453125 C28.76758222 14.03772784 28.17387371 22.6733811 28 31 C23.71 31 19.42 31 15 31 C14.67 24.73 14.34 18.46 14 12 C11.525 11.505 11.525 11.505 9 11 C8.67 17.6 8.34 24.2 8 31 C3.71 31 -0.58 31 -5 31 C-5.495 21.595 -5.495 21.595 -6 12 C-8.475 11.505 -8.475 11.505 -11 11 C-11.33 17.6 -11.66 24.2 -12 31 C-16.29 31 -20.58 31 -25 31 C-25 21.1 -25 11.2 -25 1 C-21.37 1 -17.74 1 -14 1 C-13.67 1.66 -13.34 2.32 -13 3 C-12.34 2.505 -11.68 2.01 -11 1.5 C-6.9772684 -0.5113658 -4.47665229 -0.28881628 0 0 Z " fill="#07538A" transform="translate(124,9)"/>
<path d="M0 0 C2.05078125 0.03255208 4.1015625 0.06510417 6.15234375 0.09765625 C6.48234375 2.73765625 6.81234375 5.37765625 7.15234375 8.09765625 C7.61125 7.68773437 8.07015625 7.2778125 8.54296875 6.85546875 C9.1565625 6.31664062 9.77015625 5.7778125 10.40234375 5.22265625 C11.005625 4.68898438 11.60890625 4.1553125 12.23046875 3.60546875 C17.55135979 -0.56905146 22.57203192 -0.62135431 29.15234375 0.09765625 C33.90607752 1.41419612 36.53419763 3.34042725 39.65234375 7.16015625 C41.95545011 11.89943734 41.80498718 16.96405851 41.15234375 22.09765625 C39.45738279 26.29045442 36.86463893 28.56243027 33.15234375 31.09765625 C29.84602708 32.20216815 26.68460684 32.2632788 23.21484375 32.28515625 C22.19519531 32.29933594 21.17554688 32.31351563 20.125 32.328125 C17.08074708 32.09210539 14.90496732 31.3801862 12.15234375 30.09765625 C12.15234375 29.43765625 12.15234375 28.77765625 12.15234375 28.09765625 C11.16234375 28.09765625 10.17234375 28.09765625 9.15234375 28.09765625 C6.17229898 24.35349743 5.80992985 21.48421136 5.96484375 16.78515625 C5.99191406 15.71652344 6.01898438 14.64789063 6.046875 13.546875 C6.08167969 12.73863281 6.11648437 11.93039063 6.15234375 11.09765625 C3.18234375 11.09765625 0.21234375 11.09765625 -2.84765625 11.09765625 C-5.13350523 17.65042332 -5.45359993 24.20167064 -5.84765625 31.09765625 C-9.47765625 31.09765625 -13.10765625 31.09765625 -16.84765625 31.09765625 C-16.84765625 21.19765625 -16.84765625 11.29765625 -16.84765625 1.09765625 C-12.18098958 1.09765625 -7.51432292 1.09765625 -2.84765625 1.09765625 C-1.84765625 0.09765625 -1.84765625 0.09765625 0 0 Z M19.40234375 10.28515625 C17.75313703 12.676506 17.28802145 14.18058577 17.15234375 17.09765625 C18.49361218 20.36516506 18.49361218 20.36516506 20.15234375 23.09765625 C23.026475 23.43163412 23.026475 23.43163412 26.15234375 23.09765625 C28.80222519 20.80109234 29.12230711 19.47311423 29.40234375 15.97265625 C29.33515729 13.15657629 29.33515729 13.15657629 28.15234375 11.09765625 C27.49234375 11.09765625 26.83234375 11.09765625 26.15234375 11.09765625 C26.15234375 10.43765625 26.15234375 9.77765625 26.15234375 9.09765625 C22.56490891 8.7891438 22.56490891 8.7891438 19.40234375 10.28515625 Z " fill="#07548C" transform="translate(54.84765625,8.90234375)"/>
<path d="M0 0 C4.2840843 1.92015731 6.57341989 4.27068563 8.9375 8.3125 C10.97393741 15.38013573 10.53932551 19.87016292 7.16796875 26.23828125 C5.08807018 29.37551956 3.6152901 30.7949033 0 32 C-1.47586615 32.11687338 -2.95706612 32.17501742 -4.4375 32.1875 C-5.58025391 32.20876953 -5.58025391 32.20876953 -6.74609375 32.23046875 C-9 32 -9 32 -13 30 C-13.33 34.29 -13.66 38.58 -14 43 C-17.96 43 -21.92 43 -26 43 C-26.02464638 37.17928378 -26.0428343 31.35859766 -26.05493164 25.5378418 C-26.05997267 23.55606559 -26.06680538 21.57429311 -26.07543945 19.5925293 C-26.08751515 16.75047891 -26.09323045 13.90847753 -26.09765625 11.06640625 C-26.10281754 10.17474258 -26.10797882 9.28307892 -26.11329651 8.36439514 C-26.11349177 6.24259399 -26.0621003 4.1208922 -26 2 C-25 1 -25 1 -22.49609375 0.90234375 C-20.98208984 0.91974609 -20.98208984 0.91974609 -19.4375 0.9375 C-18.42558594 0.94652344 -17.41367188 0.95554687 -16.37109375 0.96484375 C-15.19740234 0.98224609 -15.19740234 0.98224609 -14 1 C-14 1.66 -14 2.32 -14 3 C-13.175 2.505 -12.35 2.01 -11.5 1.5 C-7.51294216 -0.20873908 -4.23851846 -0.85915915 0 0 Z M-12.875 12.1875 C-14.16933277 15.42333192 -14.1146218 16.74187474 -13 20 C-12.01 21.485 -12.01 21.485 -11 23 C-8.41619823 23.25030977 -8.41619823 23.25030977 -6 23 C-3.56979887 18.89185844 -3.56979887 18.89185844 -3.1875 14.25 C-3.87818559 11.83854299 -3.87818559 11.83854299 -6 10 C-9.51525745 9.36905635 -10.50596285 9.42362332 -12.875 12.1875 Z " fill="#07518B" transform="translate(181,9)"/>
<path d="M0 0 C1.35834961 0.01450195 1.35834961 0.01450195 2.74414062 0.02929688 C9.347611 0.1425555 9.347611 0.1425555 11.6875 1.3125 C11.6875 4.6125 11.6875 7.9125 11.6875 11.3125 C10.90375 11.1475 10.12 10.9825 9.3125 10.8125 C0.14273315 9.42824221 0.14273315 9.42824221 -8.3125 12.3125 C-10.96849702 16.32619518 -11.15055832 20.6575424 -10.3125 25.3125 C-8.13090855 28.06819447 -6.44072506 29.74838747 -3.3125 31.3125 C1.76919093 31.65805498 6.69542025 31.33651636 11.6875 30.3125 C11.6875 33.6125 11.6875 36.9125 11.6875 40.3125 C1.69881116 42.80967221 -8.1809024 42.12538909 -17.3125 37.3125 C-17.3125 36.6525 -17.3125 35.9925 -17.3125 35.3125 C-18.3025 34.9825 -19.2925 34.6525 -20.3125 34.3125 C-24.87350568 28.67324239 -24.16733485 21.14582848 -23.61425781 14.26171875 C-22.93546946 9.87705354 -20.74994547 6.96962517 -17.3125 4.3125 C-11.46129994 0.15859462 -7.07297286 -0.23147911 0 0 Z " fill="#07548C" transform="translate(23.3125,-0.3125)"/>
<path d="M0 0 C4.40745366 2.549087 7.52608311 5.38181896 9.65625 10.0859375 C10.49970204 16.02888119 10.14066712 21.0395403 6.65625 26.0859375 C1.1175336 31.34061716 -3.90219547 31.44444237 -11.296875 31.36328125 C-17.16651506 30.8289935 -20.78003872 28.68874156 -24.84375 24.5234375 C-26.96572896 19.66056904 -27.01433124 15.31487455 -26.34375 10.0859375 C-25.03125 7.0859375 -25.03125 7.0859375 -23.34375 5.0859375 C-22.725 4.2815625 -22.725 4.2815625 -22.09375 3.4609375 C-15.84984108 -1.44499094 -7.47453382 -2.91506819 0 0 Z M-12.09375 9.6484375 C-13.77967079 12.93598304 -13.60909006 15.43751168 -13.34375 19.0859375 C-13.01375 20.0759375 -12.68375 21.0659375 -12.34375 22.0859375 C-8.92718976 22.25271032 -8.92718976 22.25271032 -5.34375 22.0859375 C-2.82357574 19.56576324 -3.04644623 18.57093901 -3.03125 15.0859375 C-3.01449219 14.1990625 -2.99773437 13.3121875 -2.98046875 12.3984375 C-3.10035156 11.6353125 -3.22023437 10.8721875 -3.34375 10.0859375 C-6.6379573 7.8897993 -8.86954432 6.76968243 -12.09375 9.6484375 Z " fill="#07548B" transform="translate(243.34375,9.9140625)"/>
<path d="M0 0 C3.07191658 1.43271987 5.10588006 3.18487111 7 6 C7.85338846 10.32425668 7.66274017 14.48900462 7.4375 18.875 C7.40591797 20.0403125 7.37433594 21.205625 7.34179688 22.40625 C7.25958506 25.27191911 7.13403709 28.13628697 7 31 C3.04 31 -0.92 31 -5 31 C-5.495 21.1 -5.495 21.1 -6 11 C-7.98 11.33 -9.96 11.66 -12 12 C-12.33 18.27 -12.66 24.54 -13 31 C-17.29 31 -21.58 31 -26 31 C-26 21.1 -26 11.2 -26 1 C-22.37 1 -18.74 1 -15 1 C-15 1.66 -15 2.32 -15 3 C-14.195625 2.505 -13.39125 2.01 -12.5625 1.5 C-8.08149639 -0.38673836 -4.77351902 -0.86514508 0 0 Z " fill="#07558C" transform="translate(282,9)"/>
<path d="M0 0 C0 3.3 0 6.6 0 10 C2.64 10 5.28 10 8 10 C8 12.97 8 15.94 8 19 C5.36 19 2.72 19 0 19 C0.33 23.29 0.66 27.58 1 32 C3.31 32 5.62 32 8 32 C8.87890625 38.15234375 8.87890625 38.15234375 9 40 C7.14709648 41.85290352 4.23375369 41.21658627 1.75 41.25 C0.61046875 41.27578125 -0.5290625 41.3015625 -1.703125 41.328125 C-5.57613016 40.94266003 -8.22850035 39.77149965 -11 37 C-11.08631874 35.65732587 -11.10706473 34.31025678 -11.09765625 32.96484375 C-11.09443359 32.15595703 -11.09121094 31.34707031 -11.08789062 30.51367188 C-11.07951172 29.66353516 -11.07113281 28.81339844 -11.0625 27.9375 C-11.05798828 27.08349609 -11.05347656 26.22949219 -11.04882812 25.34960938 C-11.03700373 23.23304337 -11.01906769 21.11651315 -11 19 C-12.98 19 -14.96 19 -17 19 C-17 16.03 -17 13.06 -17 10 C-15.02 10 -13.04 10 -11 10 C-11 7.69 -11 5.38 -11 3 C-9.54293274 2.49632243 -8.08429904 1.99717444 -6.625 1.5 C-5.81289062 1.2215625 -5.00078125 0.943125 -4.1640625 0.65625 C-2 0 -2 0 0 0 Z " fill="#07548C" transform="translate(208,0)"/>
</svg>
