<?xml version="1.0" encoding="UTF-8"?>
<svg version="1.1" xmlns="http://www.w3.org/2000/svg" width="210" height="80">
<path d="M0 0 C1.6406543 -0.00422974 1.6406543 -0.00422974 3.31445312 -0.00854492 C4.52488281 -0.00652069 5.7353125 -0.00449646 6.98242188 -0.00241089 C8.24892578 -0.00416321 9.51542969 -0.00591553 10.8203125 -0.00772095 C14.30369007 -0.0122948 17.78703815 -0.01050592 21.27041626 -0.00734186 C24.90814293 -0.00481801 28.54586699 -0.00715587 32.18359375 -0.00872803 C38.29362442 -0.01054965 44.40364303 -0.0081436 50.51367188 -0.00338745 C57.58745033 0.00205516 64.66119997 0.0002925 71.73497772 -0.00521386 C77.79781085 -0.00974519 83.86063527 -0.01039543 89.92346954 -0.00777519 C93.54916354 -0.00621253 97.17484397 -0.00601835 100.80053711 -0.00931168 C104.84034952 -0.01272454 108.8801119 -0.00800032 112.91992188 -0.00241089 C114.13035156 -0.00443512 115.34078125 -0.00645935 116.58789062 -0.00854492 C117.68166016 -0.0057251 118.77542969 -0.00290527 119.90234375 0 C120.85878784 0.00037703 121.81523193 0.00075405 122.80065918 0.0011425 C124.95117188 0.12698364 124.95117188 0.12698364 125.95117188 1.12698364 C126.0506364 2.89557557 126.08197405 4.66809815 126.08398438 6.43948364 C126.08527344 7.51456177 126.0865625 8.58963989 126.08789062 9.69729614 C126.08402344 10.82909302 126.08015625 11.96088989 126.07617188 13.12698364 C126.08003906 14.25878052 126.08390625 15.39057739 126.08789062 16.55667114 C126.08595703 18.16928833 126.08595703 18.16928833 126.08398438 19.81448364 C126.08285645 20.80835083 126.08172852 21.80221802 126.08056641 22.82620239 C125.95117188 25.12698364 125.95117188 25.12698364 124.95117188 26.12698364 C123.27057186 26.22532699 121.58581854 26.25330367 119.90234375 26.25396729 C118.26168945 26.25819702 118.26168945 26.25819702 116.58789062 26.26251221 C115.37746094 26.26048798 114.16703125 26.25846375 112.91992188 26.25637817 C111.65341797 26.25813049 110.38691406 26.25988281 109.08203125 26.26168823 C105.59865368 26.26626209 102.1153056 26.26447321 98.63192749 26.26130915 C94.99420082 26.2587853 91.35647676 26.26112315 87.71875 26.26269531 C81.60871933 26.26451694 75.49870072 26.26211089 69.38867188 26.25735474 C62.31489342 26.25191213 55.24114378 26.25367479 48.16736603 26.25918114 C42.1045329 26.26371248 36.04170848 26.26436272 29.97887421 26.26174247 C26.35318021 26.26017981 22.72749978 26.25998563 19.10180664 26.26327896 C15.06199423 26.26669183 11.02223185 26.26196761 6.98242188 26.25637817 C5.77199219 26.2584024 4.5615625 26.26042664 3.31445312 26.26251221 C2.22068359 26.25969238 1.12691406 26.25687256 0 26.25396729 C-0.95644409 26.25359026 -1.91288818 26.25321323 -2.89831543 26.25282478 C-5.04882812 26.12698364 -5.04882812 26.12698364 -6.04882812 25.12698364 C-6.14829265 23.35839171 -6.1796303 21.58586913 -6.18164062 19.81448364 C-6.18292969 18.73940552 -6.18421875 17.66432739 -6.18554688 16.55667114 C-6.17974609 14.85897583 -6.17974609 14.85897583 -6.17382812 13.12698364 C-6.17769531 11.99518677 -6.1815625 10.86338989 -6.18554688 9.69729614 C-6.18425781 8.62221802 -6.18296875 7.54713989 -6.18164062 6.43948364 C-6.1805127 5.44561646 -6.17938477 4.45174927 -6.17822266 3.42776489 C-5.93824748 -0.83926534 -3.7510757 0.00147866 0 0 Z " fill="#1B5591" transform="translate(23.048828125,8.873016357421875)"/>
<path d="M0 0 C16.93262204 -0.02332869 33.86523908 -0.04097903 50.7978735 -0.05181217 C58.65944391 -0.05697519 66.52100435 -0.06401801 74.38256836 -0.07543945 C81.23225475 -0.0853861 88.08193392 -0.09185338 94.93162733 -0.09408849 C98.56069396 -0.09539563 102.18973994 -0.09848169 105.81879997 -0.10573006 C109.86350304 -0.11374356 113.90816989 -0.11399115 117.95288086 -0.11352539 C119.16488159 -0.11712067 120.37688232 -0.12071594 121.62561035 -0.12442017 C123.26843239 -0.12235817 123.26843239 -0.12235817 124.94444275 -0.12025452 C126.38105711 -0.12163721 126.38105711 -0.12163721 127.84669399 -0.12304783 C130 0 130 0 131 1 C131.09946453 2.76859193 131.13080217 4.54111451 131.1328125 6.3125 C131.13410156 7.38757813 131.13539063 8.46265625 131.13671875 9.5703125 C131.13285156 10.70210937 131.12898437 11.83390625 131.125 13 C131.12886719 14.13179687 131.13273438 15.26359375 131.13671875 16.4296875 C131.13478516 18.04230469 131.13478516 18.04230469 131.1328125 19.6875 C131.13168457 20.68136719 131.13055664 21.67523437 131.12939453 22.69921875 C131 25 131 25 130 26 C128.31708304 26.09616807 126.63010439 26.12187691 124.94444275 26.12025452 C123.30162071 26.12231651 123.30162071 26.12231651 121.62561035 26.12442017 C120.41360962 26.12082489 119.20160889 26.11722961 117.95288086 26.11352539 C116.05071556 26.11374443 116.05071556 26.11374443 114.11012268 26.1139679 C110.62267578 26.11425585 107.13526299 26.10835945 103.64782405 26.10139394 C100.00696277 26.09516007 96.36610078 26.09455658 92.72523499 26.09336853 C85.82623028 26.09025531 78.92724135 26.08204205 72.0282436 26.07201904 C64.17589315 26.06085761 56.32354197 26.05534738 48.47118556 26.05032361 C32.31411447 26.03985943 16.15705924 26.02226017 0 26 C-0.33 25.34 -0.66 24.68 -1 24 C7.43226447 23.23864785 15.7520278 22.87364457 24.21606445 22.97827148 C25.35913055 22.98787903 26.50219666 22.99748657 27.67990112 23.00738525 C31.40776455 23.04001312 35.13549704 23.08048 38.86328125 23.12109375 C41.46786557 23.14543039 44.07245456 23.16927209 46.67704773 23.19264221 C52.80008454 23.24840787 58.92305055 23.3098296 65.04601115 23.37336355 C72.02558241 23.44550459 79.00520976 23.51121828 85.98484862 23.57643402 C100.32330683 23.71055027 114.66166361 23.85344969 129 24 C129 16.74 129 9.48 129 2 C86.1 2.33 43.2 2.66 -1 3 C-0.67 2.01 -0.34 1.02 0 0 Z " fill="#FCFDFD" transform="translate(18,9)"/>
<path d="M0 0 C1.51400391 0.01740234 1.51400391 0.01740234 3.05859375 0.03515625 C4.07050781 0.04417969 5.08242188 0.05320312 6.125 0.0625 C7.29869141 0.07990234 7.29869141 0.07990234 8.49609375 0.09765625 C8.82609375 1.41765625 9.15609375 2.73765625 9.49609375 4.09765625 C11.47609375 4.09765625 13.45609375 4.09765625 15.49609375 4.09765625 C15.49609375 6.07765625 15.49609375 8.05765625 15.49609375 10.09765625 C16.81609375 10.09765625 18.13609375 10.09765625 19.49609375 10.09765625 C19.49609375 10.75765625 19.49609375 11.41765625 19.49609375 12.09765625 C18.17609375 12.09765625 16.85609375 12.09765625 15.49609375 12.09765625 C15.49609375 14.07765625 15.49609375 16.05765625 15.49609375 18.09765625 C13.51609375 18.09765625 11.53609375 18.09765625 9.49609375 18.09765625 C9.16609375 19.41765625 8.83609375 20.73765625 8.49609375 22.09765625 C4.53609375 22.09765625 0.57609375 22.09765625 -3.50390625 22.09765625 C-3.53073826 18.6184389 -3.55066295 15.13942586 -3.56640625 11.66015625 C-3.57478516 10.66693359 -3.58316406 9.67371094 -3.59179688 8.65039062 C-3.59501953 7.70615234 -3.59824219 6.76191406 -3.6015625 5.7890625 C-3.60679932 4.91451416 -3.61203613 4.03996582 -3.61743164 3.13891602 C-3.44783341 0.08943037 -3.06749301 0.11963701 0 0 Z " fill="#F9F0F2" transform="translate(20.50390625,10.90234375)"/>
<path d="M0 0 C0.61488281 0.144375 1.22976562 0.28875 1.86328125 0.4375 C3.07564453 0.7159375 3.07564453 0.7159375 4.3125 1 C5.11300781 1.185625 5.91351563 1.37125 6.73828125 1.5625 C9.10695938 2.09495823 9.10695938 2.09495823 12 2 C12.33 1.34 12.66 0.68 13 0 C13.66 0 14.32 0 15 0 C15 0.66 15 1.32 15 2 C15.99 2 16.98 2 18 2 C18.33 1.34 18.66 0.68 19 0 C26.06533193 2.04109589 26.06533193 2.04109589 28 5 C27.6875 7.1875 27.6875 7.1875 27 9 C23.32872046 10.14727486 19.82958514 10.16721618 16 10.1875 C14.1746875 10.20876953 14.1746875 10.20876953 12.3125 10.23046875 C9 10 9 10 7 8.86328125 C4.30479042 7.6999193 2.75843726 8.58235639 0.07373047 9.47558594 C-4.0191141 10.51060244 -8.24336237 10.20350798 -12.4375 10.125 C-13.35982422 10.11597656 -14.28214844 10.10695313 -15.23242188 10.09765625 C-17.48855809 10.0742766 -19.74413684 10.04150916 -22 10 C-22.66 8.02 -23.32 6.04 -24 4 C-20.71419674 2.03161786 -18.301661 1.78100289 -14.5 1.875 C-13.5615625 1.89304688 -12.623125 1.91109375 -11.65625 1.9296875 C-10.34140625 1.96449219 -10.34140625 1.96449219 -9 2 C-7.68 2 -6.36 2 -5 2 C-3.68 2 -2.36 2 -1 2 C-0.67 1.34 -0.34 0.68 0 0 Z M15 5 C15 5.66 15 6.32 15 7 C15.66 7 16.32 7 17 7 C17 6.34 17 5.68 17 5 C16.34 5 15.68 5 15 5 Z " fill="#000000" transform="translate(108,62)"/>
<path d="M0 0 C0.99 0 1.98 0 3 0 C1.46361688 9.49368818 -0.50631348 18.91875449 -2.5625 28.3125 C-2.79066406 29.36050781 -3.01882812 30.40851562 -3.25390625 31.48828125 C-4 34 -4 34 -6 36 C-6.66 31.05 -7.32 26.1 -8 21 C-12.33797336 21.72299556 -15.50891613 22.41790629 -19.5 23.9375 C-23.31238467 25.36779438 -27.12577536 26.74349471 -31 28 C-28.34254236 24.48115954 -25.64926771 21.72261915 -22.1875 19 C-17.32251406 15.10274469 -12.57909388 11.09002788 -7.875 7 C-7.21137451 6.42378906 -6.54774902 5.84757813 -5.86401367 5.25390625 C-2.87042038 2.69387506 -2.87042038 2.69387506 0 0 Z " fill="#D81A23" transform="translate(192,6)"/>
<path d="M0 0 C12.66666667 0 25.33333333 0 38 0 C38.68707555 2.49064888 39 4.37886292 39 7 C32.59345955 8.28130809 26.39375619 8.59843905 20 7 C19.67 7.99 19.34 8.98 19 10 C16.17182727 9.5009107 13.82660354 8.92293491 11.1875 7.75 C6.61324127 6.67370383 4.23938144 8.09958763 0 10 C0 6.7 0 3.4 0 0 Z M2 3 C2.33 3.66 2.66 4.32 3 5 C3.33 4.34 3.66 3.68 4 3 C3.34 3 2.68 3 2 3 Z M11 3 C11 3.66 11 4.32 11 5 C11.66 5 12.32 5 13 5 C13 4.34 13 3.68 13 3 C12.34 3 11.68 3 11 3 Z M16 3 C16 3.66 16 4.32 16 5 C16.66 5 17.32 5 18 5 C18 4.34 18 3.68 18 3 C17.34 3 16.68 3 16 3 Z " fill="#000000" transform="translate(138,64)"/>
<path d="M0 0 C1.60488281 -0.02126953 1.60488281 -0.02126953 3.2421875 -0.04296875 C6.125 0.1875 6.125 0.1875 9.125 2.1875 C9.91673166 4.69465025 10.33106571 6.44051179 9.625 9 C8.82870158 12.4838056 9.59744253 15.67045021 10.125 19.1875 C8.475 19.1875 6.825 19.1875 5.125 19.1875 C4.8775 18.218125 4.63 17.24875 4.375 16.25 C3.75625 14.7340625 3.75625 14.7340625 3.125 13.1875 C1.09256452 12.21872943 1.09256452 12.21872943 -0.875 12.1875 C-0.875 14.4975 -0.875 16.8075 -0.875 19.1875 C-2.54111905 19.230221 -4.20882885 19.22813832 -5.875 19.1875 C-7.7605253 17.3019747 -7.00746689 14.60981169 -7.01171875 12.10546875 C-7.00785156 11.30753906 -7.00398438 10.50960937 -7 9.6875 C-7.00386719 8.88957031 -7.00773437 8.09164062 -7.01171875 7.26953125 C-6.99993624 0.32963125 -6.84403338 0.04103138 0 0 Z M-0.875 5.1875 C-0.875 6.1775 -0.875 7.1675 -0.875 8.1875 C0.775 8.1875 2.425 8.1875 4.125 8.1875 C4.125 7.1975 4.125 6.2075 4.125 5.1875 C2.475 5.1875 0.825 5.1875 -0.875 5.1875 Z " fill="#134788" transform="translate(56.875,37.8125)"/>
<path d="M0 0 C1.8975 -0.061875 3.795 -0.12375 5.75 -0.1875 C7.35101563 -0.23970703 7.35101563 -0.23970703 8.984375 -0.29296875 C12.35465345 0.03445467 13.71040689 0.52282576 16 3 C16.35546875 5.015625 16.35546875 5.015625 16.1875 7.25 C15.99319427 11.34382082 16.31301245 14.96394814 17 19 C15.02 19 13.04 19 11 19 C10.5978125 17.5459375 10.5978125 17.5459375 10.1875 16.0625 C9.795625 15.051875 9.40375 14.04125 9 13 C8.01 12.67 7.02 12.34 6 12 C6.020625 12.969375 6.04125 13.93875 6.0625 14.9375 C6 18 6 18 5 19 C3.35 19 1.7 19 0 19 C0 12.73 0 6.46 0 0 Z M6 5 C6 5.99 6 6.98 6 8 C7.65 7.67 9.3 7.34 11 7 C10.67 6.34 10.34 5.68 10 5 C8.68 5 7.36 5 6 5 Z " fill="#134883" transform="translate(111,38)"/>
<path d="M0 0 C1.65 0 3.3 0 5 0 C7.10657692 2.22360897 8.63261434 4.26522868 10 7 C10.33 4.69 10.66 2.38 11 0 C12.65 0 14.3 0 16 0 C16 6.27 16 12.54 16 19 C14.35 19 12.7 19 11 19 C9.41796875 17.25 9.41796875 17.25 8.1875 15 C7.55908203 13.88625 7.55908203 13.88625 6.91796875 12.75 C6.61503906 12.1725 6.31210938 11.595 6 11 C5.67 13.64 5.34 16.28 5 19 C3.35 19 1.7 19 0 19 C0 12.73 0 6.46 0 0 Z " fill="#144587" transform="translate(161,38)"/>
<path d="M0 0 C0.66 0 1.32 0 2 0 C2.33 0.66 2.66 1.32 3 2 C5.02463255 2.65213292 5.02463255 2.65213292 7 3 C7.625 5.375 7.625 5.375 8 8 C6 10 6 10 2.0625 10.1875 C-0.67636155 10.16190316 -2.34007532 9.88664156 -5 9 C-7.33414529 9.32759934 -9.66752239 9.66073053 -12 10 C-12.66 9.67 -13.32 9.34 -14 9 C-17.39151147 8.84225528 -20.44628399 9.06584518 -23.8125 9.5625 C-25.3903125 9.7790625 -25.3903125 9.7790625 -27 10 C-28 9 -28 9 -28.09765625 7.15234375 C-28.06510417 5.1015625 -28.03255208 3.05078125 -28 1 C-27.07767578 1.10828125 -27.07767578 1.10828125 -26.13671875 1.21875 C-25.32847656 1.3115625 -24.52023438 1.404375 -23.6875 1.5 C-22.48673828 1.63921875 -22.48673828 1.63921875 -21.26171875 1.78125 C-18.88103445 2.04813463 -18.88103445 2.04813463 -16 2 C-10.66666667 2 -5.33333333 2 0 2 C0 1.34 0 0.68 0 0 Z M-23 4 C-23.33 4.99 -23.66 5.98 -24 7 C-23.01 7 -22.02 7 -21 7 C-21.33 6.01 -21.66 5.02 -22 4 C-22.33 4 -22.66 4 -23 4 Z M-2 5 C-2 5.66 -2 6.32 -2 7 C-1.34 7 -0.68 7 0 7 C0 6.34 0 5.68 0 5 C-0.66 5 -1.32 5 -2 5 Z " fill="#000000" transform="translate(75,62)"/>
<path d="M0 0 C1.65 0 3.3 0 5 0 C7.94776396 6.19479329 10.17778624 12.38757278 12 19 C10.35 19 8.7 19 7 19 C6.67 18.01 6.34 17.02 6 16 C3.69 16 1.38 16 -1 16 C-1 16.99 -1 17.98 -1 19 C-2.98 19 -4.96 19 -7 19 C-2.3 4.6 -2.3 4.6 0 0 Z M2 9 C2 9.66 2 10.32 2 11 C2.66 10.67 3.32 10.34 4 10 C3.34 9.67 2.68 9.34 2 9 Z " fill="#144584" transform="translate(98,38)"/>
<path d="M0 0 C10.09636651 -0.60821485 10.09636651 -0.60821485 14.25 2.1875 C16 5 16 5 16.0625 7.625 C14.77522545 10.50243722 13.78376961 11.53078826 11 13 C8.25 13.1875 8.25 13.1875 6 13 C6.020625 13.804375 6.04125 14.60875 6.0625 15.4375 C6 18 6 18 5 19 C3.35 19 1.7 19 0 19 C0 12.73 0 6.46 0 0 Z M6 5 C6 5.99 6 6.98 6 8 C6.99 8.33 7.98 8.66 9 9 C9.33 7.68 9.66 6.36 10 5 C8.68 5 7.36 5 6 5 Z " fill="#134787" transform="translate(17,38)"/>
<path d="M0 0 C1.65 0 3.3 0 5 0 C6.00858422 2.41339796 7.00702673 4.83018675 8 7.25 C8.28617188 7.93191406 8.57234375 8.61382812 8.8671875 9.31640625 C10.29345494 12.81415735 11 15.16900189 11 19 C9.35 19 7.7 19 6 19 C5.67 18.34 5.34 17.68 5 17 C1.97065509 16.34227572 1.97065509 16.34227572 -1 16 C-1.33 16.99 -1.66 17.98 -2 19 C-3.65 19 -5.3 19 -7 19 C-5.34464282 12.17792193 -3.37399268 6.16626248 0 0 Z M1 9 C1 9.66 1 10.32 1 11 C1.66 11 2.32 11 3 11 C3 10.34 3 9.68 3 9 C2.34 9 1.68 9 1 9 Z " fill="#144683" transform="translate(38,38)"/>
<path d="M0 0 C1.65 0 3.3 0 5 0 C7.94776396 6.19479329 10.17778624 12.38757278 12 19 C10.35 19 8.7 19 7 19 C6.67 18.01 6.34 17.02 6 16 C3.69 16 1.38 16 -1 16 C-1 16.99 -1 17.98 -1 19 C-2.98 19 -4.96 19 -7 19 C-4.94235079 12.54646385 -2.57616518 6.2638737 0 0 Z M2 8 C2 8.99 2 9.98 2 11 C2.66 11 3.32 11 4 11 C3.67 10.01 3.34 9.02 3 8 C2.67 8 2.34 8 2 8 Z " fill="#144584" transform="translate(148,38)"/>
<path d="M0 0 C1.65 0 3.3 0 5 0 C5.28875 0.763125 5.5775 1.52625 5.875 2.3125 C6.96269013 5.15029308 6.96269013 5.15029308 9 8 C9.99 5.36 10.98 2.72 12 0 C13.65 0 15.3 0 17 0 C15.70024676 6.71539173 13.70071112 12.72019113 11 19 C9.35 19 7.7 19 6 19 C4.66666667 15.66666667 3.33333333 12.33333333 2 9 C1.62617187 8.14792969 1.25234375 7.29585937 0.8671875 6.41796875 C0 4 0 4 0 0 Z " fill="#144687" transform="translate(76,38)"/>
<path d="M0 0 C5.28 0 10.56 0 16 0 C16 1.65 16 3.3 16 5 C14.35 5 12.7 5 11 5 C11 9.62 11 14.24 11 19 C9.02 19 7.04 19 5 19 C5 14.38 5 9.76 5 5 C3.35 5 1.7 5 0 5 C0 3.35 0 1.7 0 0 Z " fill="#134684" transform="translate(128,38)"/>
<path d="M0 0 C1.51400391 0.01740234 1.51400391 0.01740234 3.05859375 0.03515625 C4.07050781 0.04417969 5.08242188 0.05320312 6.125 0.0625 C7.29869141 0.07990234 7.29869141 0.07990234 8.49609375 0.09765625 C8.49609375 1.41765625 8.49609375 2.73765625 8.49609375 4.09765625 C6.18609375 4.09765625 3.87609375 4.09765625 1.49609375 4.09765625 C1.49609375 6.07765625 1.49609375 8.05765625 1.49609375 10.09765625 C0.50609375 10.59265625 0.50609375 10.59265625 -0.50390625 11.09765625 C0.15609375 11.42765625 0.81609375 11.75765625 1.49609375 12.09765625 C1.49609375 14.07765625 1.49609375 16.05765625 1.49609375 18.09765625 C3.80609375 18.09765625 6.11609375 18.09765625 8.49609375 18.09765625 C8.49609375 19.41765625 8.49609375 20.73765625 8.49609375 22.09765625 C4.53609375 22.09765625 0.57609375 22.09765625 -3.50390625 22.09765625 C-3.53073826 18.6184389 -3.55066295 15.13942586 -3.56640625 11.66015625 C-3.57478516 10.66693359 -3.58316406 9.67371094 -3.59179688 8.65039062 C-3.59501953 7.70615234 -3.59824219 6.76191406 -3.6015625 5.7890625 C-3.60679932 4.91451416 -3.61203613 4.03996582 -3.61743164 3.13891602 C-3.44783341 0.08943037 -3.06749301 0.11963701 0 0 Z " fill="#F9CFD1" transform="translate(20.50390625,10.90234375)"/>
<path d="M0 0 C0.99 0.66 1.98 1.32 3 2 C5.34183654 2.09601112 7.60406469 1.93470172 9.94140625 1.77734375 C10.96041016 1.88755859 10.96041016 1.88755859 12 2 C14 5 14 5 13.9375 7 C12.56641958 9.92497157 10.93708369 10.77052311 8 12 C6.1875 11.1875 6.1875 11.1875 4 10 C2.00872383 9.86339604 2.00872383 9.86339604 -0.125 9.9375 C-4 10 -4 10 -6 9 C-6 7.02 -6 5.04 -6 3 C-5.195625 2.690625 -4.39125 2.38125 -3.5625 2.0625 C-1.10919595 1.23664655 -1.10919595 1.23664655 0 0 Z M10 4 C9.67 4.99 9.34 5.98 9 7 C9.66 7 10.32 7 11 7 C10.67 6.01 10.34 5.02 10 4 Z " fill="#000000" transform="translate(31,62)"/>
<path d="M0 0 C1.65 0 3.3 0 5 0 C5 6.27 5 12.54 5 19 C3.35 19 1.7 19 0 19 C0 12.73 0 6.46 0 0 Z " fill="#143F8E" transform="translate(70,38)"/>
<path d="M0 0 C2.64 0 5.28 0 8 0 C9.58706842 4.1077065 10.10191901 5.59232396 9 10 C6.03 10 3.06 10 0 10 C0 6.7 0 3.4 0 0 Z " fill="#F0F3F7" transform="translate(95,17)"/>
<path d="M0 0 C1.32 0.33 2.64 0.66 4 1 C4.33 1.66 4.66 2.32 5 3 C5.33 2.01 5.66 1.02 6 0 C7.32 0 8.64 0 10 0 C10 3.3 10 6.6 10 10 C7.5625 9.625 7.5625 9.625 5 9 C4.67 8.34 4.34 7.68 4 7 C3.67 7.99 3.34 8.98 3 10 C2.01 10 1.02 10 0 10 C0 6.7 0 3.4 0 0 Z " fill="#E4EAF1" transform="translate(118,17)"/>
<path d="M0 0 C3.375 -0.125 3.375 -0.125 7 0 C9 2 9 2 9.25 5 C9 8 9 8 7 10 C3.375 10.125 3.375 10.125 0 10 C0 6.7 0 3.4 0 0 Z " fill="#B2C6D9" transform="translate(59,17)"/>
<path d="M0 0 C0.99 0 1.98 0 3 0 C3 0.99 3 1.98 3 3 C3.99 3 4.98 3 6 3 C6 2.01 6 1.02 6 0 C7.32 0 8.64 0 10 0 C10 3.3 10 6.6 10 10 C8.68 10 7.36 10 6 10 C6 8.68 6 7.36 6 6 C5.01 6 4.02 6 3 6 C3 7.32 3 8.64 3 10 C2.01 10 1.02 10 0 10 C0 6.7 0 3.4 0 0 Z " fill="#E9EEF4" transform="translate(47,17)"/>
<path d="M0 0 C0.99 0 1.98 0 3 0 C3.33 0.66 3.66 1.32 4 2 C4.66 1.34 5.32 0.68 6 0 C6.99 0 7.98 0 9 0 C8.79375 0.9075 8.5875 1.815 8.375 2.75 C7.9872755 6.11027897 8.19588033 7.24075815 10 10 C8.35 9.67 6.7 9.34 5 9 C5 8.34 5 7.68 5 7 C4.34 7 3.68 7 3 7 C3 7.99 3 8.98 3 10 C2.01 10 1.02 10 0 10 C0 6.7 0 3.4 0 0 Z " fill="#EEF2F6" transform="translate(130,17)"/>
<path d="M0 0 C1.32 0 2.64 0 4 0 C4.99 3.3 5.98 6.6 7 10 C3.7 10 0.4 10 -3 10 C-2.01 6.7 -1.02 3.4 0 0 Z " fill="#F1F5F8" transform="translate(109,17)"/>
<path d="M0 0 C1.32 0 2.64 0 4 0 C4 3.3 4 6.6 4 10 C0.7 10 -2.6 10 -6 10 C-6 8.68 -6 7.36 -6 6 C-4.02 6 -2.04 6 0 6 C0 4.02 0 2.04 0 0 Z " fill="#EC3A41" transform="translate(36,23)"/>
<path d="M0 0 C3.3 0 6.6 0 10 0 C10 3.3 10 6.6 10 10 C8.68 10 7.36 10 6 10 C6 8.02 6 6.04 6 4 C4.02 4 2.04 4 0 4 C0 2.68 0 1.36 0 0 Z " fill="#EC3C44" transform="translate(30,11)"/>
<path d="M0 0 C0.94875 0.04125 1.8975 0.0825 2.875 0.125 C3.535 1.445 4.195 2.765 4.875 4.125 C1.905 3.63 1.905 3.63 -1.125 3.125 C-1.125 4.445 -1.125 5.765 -1.125 7.125 C0.855 6.795 2.835 6.465 4.875 6.125 C4.215 7.445 3.555 8.765 2.875 10.125 C0 10.25 0 10.25 -3.125 10.125 C-5.125 8.125 -5.125 8.125 -5.375 5.125 C-5.02345647 0.90647769 -4.22997422 0.16919897 0 0 Z " fill="#EDF2F6" transform="translate(84.125,16.875)"/>
<path d="M0 0 C2.64 0 5.28 0 8 0 C7.67 2.31 7.34 4.62 7 7 C6.01 7 5.02 7 4 7 C4 7.99 4 8.98 4 10 C2.68 10 1.36 10 0 10 C0 6.7 0 3.4 0 0 Z " fill="#DDE6EE" transform="translate(70,17)"/>
<path d="M0 0 C0.99 0 1.98 0 3 0 C3 1.98 3 3.96 3 6 C5.31 6 7.62 6 10 6 C10 7.32 10 8.64 10 10 C6.7 10 3.4 10 0 10 C0 6.7 0 3.4 0 0 Z " fill="#EB3239" transform="translate(19,23)"/>
<path d="M0 0 C2.64 0 5.28 0 8 0 C8.33 1.65 8.66 3.3 9 5 C8.34 5 7.68 5 7 5 C6.67 5.99 6.34 6.98 6 8 C5.01 8 4.02 8 3 8 C3 6.02 3 4.04 3 2 C2.34 1.67 1.68 1.34 1 1 C1 3.97 1 6.94 1 10 C0.67 10 0.34 10 0 10 C0 6.7 0 3.4 0 0 Z " fill="#C9D7E5" transform="translate(95,17)"/>
<path d="M0 0 C2.97 0 5.94 0 9 0 C9 0.99 9 1.98 9 3 C7.02 3 5.04 3 3 3 C3 4.98 3 6.96 3 9 C2.01 9 1.02 9 0 9 C0 6.03 0 3.06 0 0 Z " fill="#E91D25" transform="translate(19,12)"/>
<path d="M0 0 C2.31 0 4.62 0 7 0 C7 1.98 7 3.96 7 6 C4.69 6 2.38 6 0 6 C0 4.02 0 2.04 0 0 Z " fill="#1E5792" transform="translate(26,19)"/>
<path d="M0 0 C0.66 0 1.32 0 2 0 C2.99 2.97 3.98 5.94 5 9 C2.525 8.01 2.525 8.01 0 7 C0 7.66 0 8.32 0 9 C-0.99 8.67 -1.98 8.34 -3 8 C-2.01 5.36 -1.02 2.72 0 0 Z " fill="#000000" transform="translate(18,62)"/>
<path d="M0 0 C1.98 0 3.96 0 6 0 C5.01 0.33 4.02 0.66 3 1 C3 2.98 3 4.96 3 7 C3.66 7 4.32 7 5 7 C5 7.66 5 8.32 5 9 C3.35 9 1.7 9 0 9 C0 6.03 0 3.06 0 0 Z " fill="#FDFEFE" transform="translate(59,18)"/>
<path d="M0 0 C1.32 0 2.64 0 4 0 C4.33 1.32 4.66 2.64 5 4 C4.34 4 3.68 4 3 4 C3 4.99 3 5.98 3 7 C2.34 7 1.68 7 1 7 C-0.0625 4.625 -0.0625 4.625 -1 2 C-0.67 1.34 -0.34 0.68 0 0 Z " fill="#C9D6E4" transform="translate(109,17)"/>
<path d="M0 0 C1.98 0.66 3.96 1.32 6 2 C4.68 3.32 3.36 4.64 2 6 C1.01 5.67 0.02 5.34 -1 5 C-0.67 3.35 -0.34 1.7 0 0 Z " fill="#2D6399" transform="translate(83,19)"/>
<path d="M0 0 C0.99 0 1.98 0 3 0 C3 1.98 3 3.96 3 6 C2.01 6 1.02 6 0 6 C0 4.02 0 2.04 0 0 Z " fill="#87A5C4" transform="translate(98,19)"/>
</svg>
