<?xml version="1.0" encoding="UTF-8"?>
<svg version="1.1" xmlns="http://www.w3.org/2000/svg" width="209" height="63">
<path d="M0 0 C68.97 0 137.94 0 209 0 C209 2.97 209 5.94 209 9 C140.03 9 71.06 9 0 9 C0 6.03 0 3.06 0 0 Z " fill="#DDDC00" transform="translate(0,31)"/>
<path d="M0 0 C3.3 0 6.6 0 10 0 C13.60496855 7.50542633 16.51754664 15.05337555 19 23 C15.7 23 12.4 23 9 23 C6 16.25 6 16.25 6 14 C5.34 14 4.68 14 4 14 C3.855625 14.928125 3.71125 15.85625 3.5625 16.8125 C3 20 3 20 2 23 C-1.3 23 -4.6 23 -8 23 C-7.38696372 17.59491957 -5.55619307 13.07560955 -3.4375 8.125 C-3.10814453 7.34125 -2.77878906 6.5575 -2.43945312 5.75 C-1.63203214 3.83091244 -0.81680231 1.9151135 0 0 Z " fill="#1861AC" transform="translate(67,0)"/>
<path d="M0 0 C3.3 0 6.6 0 10 0 C13.60496855 7.50542633 16.51754664 15.05337555 19 23 C15.7 23 12.4 23 9 23 C6 16.25 6 16.25 6 14 C5.34 14 4.68 14 4 14 C3.34 16.97 2.68 19.94 2 23 C-1.3 23 -4.6 23 -8 23 C-7.38696372 17.59491957 -5.55619307 13.07560955 -3.4375 8.125 C-3.10814453 7.34125 -2.77878906 6.5575 -2.43945312 5.75 C-1.63203214 3.83091244 -0.81680231 1.9151135 0 0 Z " fill="#1860AC" transform="translate(26,0)"/>
<path d="M0 0 C7.26 0 14.52 0 22 0 C22 2.64 22 5.28 22 8 C20.02 8 18.04 8 16 8 C16 12.95 16 17.9 16 23 C12.7 23 9.4 23 6 23 C6 18.05 6 13.1 6 8 C4.02 8 2.04 8 0 8 C0 5.36 0 2.72 0 0 Z " fill="#1860AC" transform="translate(41,0)"/>
<path d="M0 0 C7.26 0 14.52 0 22 0 C22 2.64 22 5.28 22 8 C20.02 8 18.04 8 16 8 C16 12.95 16 17.9 16 23 C12.7 23 9.4 23 6 23 C6 18.05 6 13.1 6 8 C4.02 8 2.04 8 0 8 C0 5.36 0 2.72 0 0 Z " fill="#1860AC" transform="translate(0,0)"/>
<path d="M0 0 C2.31 0 4.62 0 7 0 C8.17430074 3.2681432 9.33811256 6.53992515 10.5 9.8125 C10.83386719 10.74126953 11.16773438 11.67003906 11.51171875 12.62695312 C11.82753906 13.51962891 12.14335937 14.41230469 12.46875 15.33203125 C12.76201172 16.15421143 13.05527344 16.9763916 13.35742188 17.82348633 C14 20 14 20 14 23 C12.02 23 10.04 23 8 23 C7.67 21.02 7.34 19.04 7 17 C4.05272465 17.10169161 4.05272465 17.10169161 1 18 C-0.45291273 20.46255685 -0.45291273 20.46255685 -1 23 C-2.65 23 -4.3 23 -6 23 C-5.38334864 17.60607261 -4.12077204 12.71604717 -2.4375 7.5625 C-2.20353516 6.83095703 -1.96957031 6.09941406 -1.72851562 5.34570312 C-1.15732778 3.56219821 -0.57936877 1.78086417 0 0 Z M3 7 C2.67 8.98 2.34 10.96 2 13 C2.99 13 3.98 13 5 13 C4.67 11.02 4.34 9.04 4 7 C3.67 7 3.34 7 3 7 Z " fill="#175FAD" transform="translate(180,0)"/>
<path d="M0 0 C1.98 0 3.96 0 6 0 C13 15.4 13 15.4 13 23 C11.35 23 9.7 23 8 23 C7.34 21.02 6.68 19.04 6 17 C4.02 17 2.04 17 0 17 C-0.33 18.98 -0.66 20.96 -1 23 C-2.98 23 -4.96 23 -7 23 C-5.48526781 15.01323028 -2.83197448 7.59877122 0 0 Z M3 8 C2.34 9.65 1.68 11.3 1 13 C2.32 12.67 3.64 12.34 5 12 C4.34 10.68 3.68 9.36 3 8 Z " fill="#1861AD" transform="translate(120,0)"/>
<path d="M0 0 C10 0 10 0 13.0625 1.0625 C15 3 15 3 16 6.4375 C16 10 16 10 15.0625 12.375 C11.89328888 14.87195421 8.98919779 14.73841326 5 15 C5 17.64 5 20.28 5 23 C3.35 23 1.7 23 0 23 C0 15.41 0 7.82 0 0 Z M5 5 C5 6.98 5 8.96 5 11 C6.65 10.67 8.3 10.34 10 10 C10 8.35 10 6.7 10 5 C8.35 5 6.7 5 5 5 Z " fill="#185FAD" transform="translate(135,0)"/>
<path d="M0 0 C0.66 0.66 1.32 1.32 2 2 C2.66 1.01 3.32 0.02 4 -1 C4.99 -1 5.98 -1 7 -1 C7.33 1.97 7.66 4.94 8 8 C8.99 8 9.98 8 11 8 C11.33 5.03 11.66 2.06 12 -1 C12.99 -1 13.98 -1 15 -1 C15 3.29 15 7.58 15 12 C8.6812749 13.21513944 8.6812749 13.21513944 5.625 12.25 C4 11 4 11 3 8 C2.278125 8.845625 1.55625 9.69125 0.8125 10.5625 C-2 13 -2 13 -4.625 13 C-8.5 11.36842105 -8.5 11.36842105 -10 9 C-10.4375 5.5 -10.4375 5.5 -10 2 C-7.00303875 -1.6885677 -4.34072074 -1.22672543 0 0 Z M-6 3 C-6 4.65 -6 6.3 -6 8 C-4.68 8.33 -3.36 8.66 -2 9 C-1.67 7.35 -1.34 5.7 -1 4 C-2.65 3.67 -4.3 3.34 -6 3 Z " fill="#1660AC" transform="translate(69,50)"/>
<path d="M0 0 C-0.33 1.32 -0.66 2.64 -1 4 C-1.62648438 4.02578125 -2.25296875 4.0515625 -2.8984375 4.078125 C-3.71570313 4.13484375 -4.53296875 4.1915625 -5.375 4.25 C-6.18710938 4.29640625 -6.99921875 4.3428125 -7.8359375 4.390625 C-10.14761842 4.79561738 -10.14761842 4.79561738 -11.30078125 6.8515625 C-12.28917341 9.88852165 -11.85989042 11.95731082 -11 15 C-7.3558226 17.4294516 -5.28758728 17.16179575 -1 17 C-1 18.65 -1 20.3 -1 22 C-10.9540412 22.62757528 -10.9540412 22.62757528 -15.125 20.125 C-18.4521325 16.35424984 -18.33448689 13.36420195 -18.28515625 8.48046875 C-17.88136394 4.96802881 -16.61222617 3.32197882 -14 1 C-10.22112787 -1.83415409 -4.18378713 -2.09189356 0 0 Z " fill="#1761AD" transform="translate(113,1)"/>
<path d="M0 0 C5.94 0 11.88 0 18 0 C18 1.65 18 3.3 18 5 C15.69 5 13.38 5 11 5 C11 10.94 11 16.88 11 23 C9.35 23 7.7 23 6 23 C6 17.06 6 11.12 6 5 C4.02 5 2.04 5 0 5 C0 3.35 0 1.7 0 0 Z " fill="#1860AE" transform="translate(159,0)"/>
<path d="M0 0 C1.98 0 3.96 0 6 0 C6 5.94 6 11.88 6 18 C8.64 18 11.28 18 14 18 C14 19.65 14 21.3 14 23 C9.38 23 4.76 23 0 23 C0 15.41 0 7.82 0 0 Z " fill="#1961AC" transform="translate(195,0)"/>
<path d="M0 0 C3.48669687 0.5705504 5.09596767 0.93998379 7.4375 3.5625 C7.4375 4.8825 7.4375 6.2025 7.4375 7.5625 C4.50870629 6.93490135 2.07654371 5.97627341 -0.5625 4.5625 C-2.18743901 5.68359566 -2.18743901 5.68359566 -3.5625 7.5625 C-3.81298636 10.68799017 -3.81298636 10.68799017 -3.5625 13.5625 C-1.2525 13.5625 1.0575 13.5625 3.4375 13.5625 C3.7675 12.5725 4.0975 11.5825 4.4375 10.5625 C5.4275 10.5625 6.4175 10.5625 7.4375 10.5625 C7.25 12.875 7.25 12.875 6.4375 15.5625 C3.79709801 17.76283499 2.33322899 18.6061941 -1.125 18.4375 C-3.95512185 17.42155882 -5.53011888 16.81263624 -7.5625 14.5625 C-9.31523723 8.27326642 -9.31523723 8.27326642 -7.74609375 4.70703125 C-5.45947573 1.52991513 -3.83966663 0.60626315 0 0 Z " fill="#1760AD" transform="translate(50.5625,44.4375)"/>
<path d="M0 0 C1.98 0 3.96 0 6 0 C6 7.59 6 15.18 6 23 C4.02 23 2.04 23 0 23 C0 15.41 0 7.82 0 0 Z " fill="#1561A9" transform="translate(152,0)"/>
<path d="M0 0 C1.423125 -0.061875 2.84625 -0.12375 4.3125 -0.1875 C5.51326172 -0.23970703 5.51326172 -0.23970703 6.73828125 -0.29296875 C9 0 9 0 10.78125 1.1875 C12.42341401 3.62969263 12.30107677 5.27236294 12.1875 8.1875 C12.16042969 9.08855469 12.13335937 9.98960938 12.10546875 10.91796875 C12.07066406 11.60503906 12.03585938 12.29210938 12 13 C10.68 13 9.36 13 8 13 C8 10.03 8 7.06 8 4 C7.01 4.33 6.02 4.66 5 5 C4.67 7.64 4.34 10.28 4 13 C2.68 13 1.36 13 0 13 C0 8.71 0 4.42 0 0 Z " fill="#175FAA" transform="translate(125,49)"/>
<path d="M0 0 C2 2 2 2 2.4375 5.9375 C2.34864908 9.18944363 2.28016798 9.71983202 -0.125 12.125 C-3 13 -3 13 -6.1875 12.5625 C-9 11 -9 11 -10.5625 8.1875 C-11 5 -11 5 -9.75 2.1875 C-6.6573939 -1.67825763 -4.61303837 -1.05715463 0 0 Z M-6 3 C-7.01111093 6.04913228 -7.01111093 6.04913228 -6 9 C-4.68 9 -3.36 9 -2 9 C-0.98888907 5.95086772 -0.98888907 5.95086772 -2 3 C-3.32 3 -4.64 3 -6 3 Z " fill="#1860AD" transform="translate(122,50)"/>
<path d="M0 0 C2.375 0.9375 2.375 0.9375 3.6875 2.875 C4.67886094 5.84908283 4.375 8.81454561 4.375 11.9375 C1.95778807 13.45944825 0.63987742 13.95011321 -2.25 13.8125 C-4.625 12.9375 -4.625 12.9375 -5.9375 10.875 C-6.164375 10.235625 -6.39125 9.59625 -6.625 8.9375 C-4.645 8.9375 -2.665 8.9375 -0.625 8.9375 C-1.429375 8.69 -2.23375 8.4425 -3.0625 8.1875 C-5.625 6.9375 -5.625 6.9375 -6.4375 4.8125 C-6.499375 4.19375 -6.56125 3.575 -6.625 2.9375 C-4.29597204 0.78099263 -3.23439697 -0.07700945 0 0 Z " fill="#1860AD" transform="translate(162.625,49.0625)"/>
<path d="M0 0 C1.258125 -0.04125 2.51625 -0.0825 3.8125 -0.125 C4.52019531 -0.14820313 5.22789063 -0.17140625 5.95703125 -0.1953125 C8 0 8 0 11 2 C11.29296875 4.6015625 11.29296875 4.6015625 11.1875 7.625 C11.16042969 8.62789062 11.13335937 9.63078125 11.10546875 10.6640625 C11.07066406 11.43492188 11.03585938 12.20578125 11 13 C10.01 13 9.02 13 8 13 C7.67 10.36 7.34 7.72 7 5 C6.01 4.67 5.02 4.34 4 4 C4 6.97 4 9.94 4 13 C2.68 13 1.36 13 0 13 C0 8.71 0 4.42 0 0 Z " fill="#1861AD" transform="translate(86,49)"/>
<path d="M0 0 C0.99 0 1.98 0 3 0 C4.60725635 3.21451269 4.05748185 6.43612536 4 10 C4.99 9.67 5.98 9.34 7 9 C7.33 6.03 7.66 3.06 8 0 C8.99 0 9.98 0 11 0 C11 4.29 11 8.58 11 13 C4.6690539 14.3392386 4.6690539 14.3392386 1.78125 12.875 C0 11 0 11 -0.390625 8.30078125 C-0.34421875 7.31464844 -0.2978125 6.32851563 -0.25 5.3125 C-0.21390625 4.31863281 -0.1778125 3.32476562 -0.140625 2.30078125 C-0.09421875 1.54152344 -0.0478125 0.78226563 0 0 Z " fill="#1559B4" transform="translate(144,49)"/>
<path d="M0 0 C1.32 0 2.64 0 4 0 C4 0.99 4 1.98 4 3 C4.99 3.33 5.98 3.66 7 4 C7 4.99 7 5.98 7 7 C6.01 7 5.02 7 4 7 C4 8.98 4 10.96 4 13 C4.99 13 5.98 13 7 13 C7 13.99 7 14.98 7 16 C5.02 16 3.04 16 1 16 C-0.57300962 10.26696495 -1.24327778 5.84340558 0 0 Z " fill="#175FAC" transform="translate(99,46)"/>
<path d="M0 0 C0.99 0 1.98 0 3 0 C3 2.97 3 5.94 3 9 C2.01 9 1.02 9 0 9 C0 6.03 0 3.06 0 0 Z " fill="#1761AD" transform="translate(152,49)"/>
<path d="M0 0 C0.99 0 1.98 0 3 0 C2.67 3.3 2.34 6.6 2 10 C-0.4294516 6.3558226 -0.16179575 4.28758728 0 0 Z " fill="#1763B3" transform="translate(73,49)"/>
</svg>
