<?xml version="1.0" encoding="UTF-8"?>
<svg version="1.1" xmlns="http://www.w3.org/2000/svg" width="1708" height="1074">
<path d="M0 0 C0.78246094 0.5465625 1.56492187 1.093125 2.37109375 1.65625 C4.66395441 3.35752941 6.83930629 5.13430875 9 7 C9.67804688 7.58265625 10.35609375 8.1653125 11.0546875 8.765625 C25.35875242 22.01219096 32.3205613 41.9683271 33.26817894 61.13369751 C33.39955868 65.50220308 33.372508 69.86847416 33.34057617 74.23828125 C33.33972731 75.89579248 33.34021009 77.55330484 33.34190369 79.21081543 C33.34275496 83.65610924 33.3252721 88.10115397 33.30418181 92.54639053 C33.28526809 97.21214747 33.28365311 101.87791181 33.28010559 106.54370117 C33.27082788 115.35471531 33.24627276 124.16561611 33.21605712 132.97658062 C33.18237904 143.01785703 33.16599358 153.0591392 33.15097082 163.10045815 C33.11971878 183.73370172 33.06704259 204.36684368 33 225 C33.97292433 224.99631283 34.94584866 224.99262566 35.94825554 224.98882675 C59.68828532 224.899788 83.42829328 224.83418328 107.16845512 224.79275131 C118.64931063 224.77217945 130.13005543 224.74416226 141.61083984 224.69824219 C151.62458727 224.65820917 161.63825446 224.63252818 171.6520797 224.62364602 C176.94790152 224.61845902 182.24349394 224.60638128 187.53924179 224.57707977 C192.53790698 224.54964974 197.53625128 224.54160993 202.53498459 224.54756927 C204.35608167 224.54648124 206.17719104 224.53869344 207.99822235 224.5231781 C226.5447984 224.37309585 244.43409197 226.98016859 260.0625 237.5625 C260.63589111 237.95074951 261.20928223 238.33899902 261.80004883 238.73901367 C264.61999421 240.73542383 265.88024035 241.64072105 267 245 C267.66 245 268.32 245 269 245 C280.19399105 258.59270341 285.3538259 274.33475562 284 292 C281.87188867 308.73469363 274.36903613 322.44839421 261.375 333.1875 C245.40265688 344.36496477 228.46378587 346.45776839 209.53198242 346.34057617 C207.59905511 346.33972838 205.66612683 346.34020801 203.73320007 346.34190369 C198.52330604 346.34275911 193.31362218 346.32520712 188.10377669 346.30418181 C182.64523005 346.28533907 177.18667779 346.28365861 171.72810364 346.28010559 C161.40827759 346.27080735 151.08854769 346.2462238 140.76876384 346.21605712 C129.01295595 346.18244374 117.2571433 346.1660097 105.50129926 346.15097082 C81.33414636 346.11967215 57.16707858 346.06695512 33 346 C33.08185546 403.08027691 33.17405642 460.16052919 33.28005161 517.24076665 C33.2925764 523.98700835 33.30500492 530.73325022 33.31738281 537.47949219 C33.3192328 538.48643822 33.3192328 538.48643822 33.32112016 539.5137266 C33.36098062 561.23426099 33.3944961 582.95479947 33.42468691 604.67534927 C33.45665417 627.64897803 33.49592409 650.62258664 33.54279006 673.59619033 C33.57060385 687.34475254 33.59266755 701.09329886 33.60726251 714.84188156 C33.61784399 724.28312093 33.6357077 733.72432946 33.65916704 743.16554554 C33.67246966 748.60409524 33.68268725 754.04260191 33.68421364 759.48116875 C33.34276273 795.51151448 33.34276273 795.51151448 38.1875 831.125 C38.40180664 832.1137915 38.61611328 833.10258301 38.83691406 834.12133789 C43.27952101 853.72504798 50.49310195 873.74274799 64 889 C65.06541016 890.24330078 65.06541016 890.24330078 66.15234375 891.51171875 C85.18197443 913.27380923 111.52033186 924.8639546 140 928 C141.49466797 928.16628906 141.49466797 928.16628906 143.01953125 928.3359375 C181.88685317 931.95377627 220.38544107 923.05098019 251 898 C258.86462355 891.28430826 266.62176545 884.16691337 273 876 C273.6506543 875.16927979 273.6506543 875.16927979 274.31445312 874.32177734 C281.13697743 865.5599123 287.47280245 856.64705414 293 847 C293.42087891 846.26894043 293.84175781 845.53788086 294.27539062 844.78466797 C295.65184968 842.38275676 297.01609117 839.97438019 298.375 837.5625 C298.80441895 836.80469238 299.23383789 836.04688477 299.67626953 835.26611328 C300.8261308 833.19654676 301.92055395 831.1069316 303 829 C303.75990234 827.58847656 303.75990234 827.58847656 304.53515625 826.1484375 C305.30108221 820.96073731 303.03879954 816.8083569 301.0625 812.0625 C300.20799682 809.89931754 299.35916065 807.73388904 298.515625 805.56640625 C298.08830078 804.4695752 297.66097656 803.37274414 297.22070312 802.24267578 C277.70731462 750.40731054 271.51670165 693.29815022 271.6875 638.3125 C271.68965515 637.05007477 271.6918103 635.78764954 271.69403076 634.48696899 C271.74768998 614.81776523 272.2809181 595.50129417 275 576 C275.09945923 575.27822571 275.19891846 574.55645142 275.3013916 573.81280518 C278.29268742 552.23570659 282.30320114 531.04130482 288 510 C288.30131836 508.88012695 288.60263672 507.76025391 288.91308594 506.60644531 C296.70728453 478.06070846 307.68422608 451.3365398 321 425 C321.4522998 424.09040527 321.90459961 423.18081055 322.37060547 422.24365234 C331.20621927 404.48617314 341.73568813 387.5948039 354 372 C355.18984015 370.42212546 356.37966272 368.84423755 357.56884766 367.26586914 C372.11345067 348.07578731 388.63757338 329.60330552 407 314 C408.01528364 313.11047035 409.02951608 312.21974014 410.04296875 311.328125 C433.80185874 290.52707253 460.4384316 272.6946742 488.90917969 259.01074219 C491.07541959 257.96354074 493.22905739 256.89292988 495.3828125 255.8203125 C537.08164789 235.2769454 583.12014053 223.94697315 629.0625 218.3125 C630.03646729 218.19302002 631.01043457 218.07354004 632.01391602 217.95043945 C644.64663733 216.47983437 657.27450055 215.84273836 669.98828125 215.76171875 C671.27408081 215.7519249 672.55988037 215.74213104 673.88464355 215.73204041 C678.02725372 215.7046892 682.16980878 215.69334597 686.3125 215.6875 C687.37524958 215.68577412 687.37524958 215.68577412 688.45946884 215.68401337 C765.4017862 215.59737778 875.58958431 225.87193061 933 283 C945.98096828 296.83558718 949.65172462 312.06246081 949.30859375 330.4375 C948.65634044 346.39470141 942.25639541 360.75216569 930.82617188 371.88330078 C922.24506888 379.73167705 912.35200072 383.90672327 901 386 C900.04738281 386.18433594 899.09476563 386.36867188 898.11328125 386.55859375 C873.12156621 390.10196113 850.17408352 381.86293356 827.64453125 372.12109375 C798.70351568 359.64151547 768.2968019 350.20020064 737 346 C735.37964844 345.77787842 735.37964844 345.77787842 733.7265625 345.55126953 C661.03696364 335.98088442 586.64420662 349.06790452 527.5 394.36328125 C519.23616768 400.90309483 511.72477223 408.27522777 504.28125 415.71875 C502.92111037 417.07888963 501.54784972 418.42639489 500.1484375 419.74609375 C480.49932516 438.48632645 465.53150817 463.61482668 454 488 C453.67676758 488.67836914 453.35353516 489.35673828 453.02050781 490.05566406 C431.93893333 534.67308588 422.56353512 583.52040354 422.73925781 632.68896484 C422.74994456 636.23162105 422.73931463 639.77376563 422.7265625 643.31640625 C422.71312615 663.28707018 423.77330324 683.11173821 427.1875 702.8125 C427.40180664 704.06256836 427.61611328 705.31263672 427.83691406 706.60058594 C438.40893229 765.89061744 464.20562109 819.14538342 506.6875 861.9375 C507.47108887 862.730354 508.25467773 863.52320801 509.06201172 864.34008789 C514.08630842 869.33747437 519.3230707 873.76603156 525 878 C526.12974266 878.87652719 527.25871513 879.75404847 528.38671875 880.6328125 C589.61311789 927.28237732 670.52964293 940.59575367 745.54296875 930.94140625 C793.86804731 924.20597581 840.59615224 905.73506434 878 874 C879.0552631 873.13062785 880.11128098 872.26217122 881.16796875 871.39453125 C894.12852385 860.64606214 906.63746635 848.84203342 917.01171875 835.546875 C919.19719453 832.74740504 921.49979886 830.07011628 923.8125 827.375 C929.52557788 820.5335226 934.61504111 813.28832959 939.66162109 805.94677734 C940.79429856 804.29920892 941.93706007 802.65858005 943.08203125 801.01953125 C954.2829236 784.67801883 963.7278845 767.19787298 972.69677734 749.55957031 C973.84605832 747.3023463 975.00808115 745.05241431 976.17578125 742.8046875 C1004.36358937 688.12269972 1020.5885895 627.94899463 1038.2949295 569.33393097 C1041.5620313 558.51913995 1044.83178186 547.70516165 1048.11141109 536.89416218 C1049.20883705 533.27583638 1050.30449225 529.65699875 1051.39523315 526.03665161 C1059.3503517 499.63521325 1067.48490398 473.20539943 1077.5 447.5 C1077.76658417 446.80939484 1078.03316833 446.11878967 1078.30783081 445.40725708 C1089.07130983 417.54593976 1101.47355106 390.11387092 1116 364 C1116.36206543 363.34757324 1116.72413086 362.69514648 1117.09716797 362.02294922 C1127.88080791 342.76880486 1140.37603924 324.35267784 1154 307 C1155.14662109 305.53433594 1155.14662109 305.53433594 1156.31640625 304.0390625 C1162.19209214 296.70233844 1168.53623578 289.81683667 1175 283 C1176.08474609 281.85144531 1176.08474609 281.85144531 1177.19140625 280.6796875 C1182.09446907 275.62804701 1187.40556283 271.26423812 1193 267 C1193.54011719 266.58347168 1194.08023437 266.16694336 1194.63671875 265.73779297 C1236.66066984 233.45253841 1290.68070207 216.00402386 1343.609375 215.796875 C1344.80206497 215.78990601 1345.99475494 215.78293701 1347.22358704 215.77575684 C1351.06576072 215.75840497 1354.90778873 215.75203394 1358.75 215.75 C1360.71234085 215.74848938 1360.71234085 215.74848938 1362.71432495 215.74694824 C1381.68360664 215.75685167 1400.21249855 216.2128105 1419 219 C1420.59231445 219.2168042 1420.59231445 219.2168042 1422.21679688 219.43798828 C1463.20862014 225.0227222 1516.64026598 235.93215385 1548 265 C1548.83660156 265.7115625 1549.67320313 266.423125 1550.53515625 267.15625 C1560.06136636 275.77725463 1567.20517214 288.61865426 1568.19970703 301.60839844 C1568.30390592 304.51287963 1568.32205373 307.40625394 1568.3125 310.3125 C1568.32861328 311.28123047 1568.34472656 312.24996094 1568.36132812 313.24804688 C1568.3714403 328.40619188 1562.78176253 341.89250985 1552.27734375 352.81640625 C1538.91378367 365.62983692 1523.22489915 368.57346752 1505.328125 368.23828125 C1486.42972262 367.55951697 1468.60754505 360.33381002 1451.13500977 353.63012695 C1424.20586391 343.30502001 1396.99213803 335.71438533 1368 335 C1367.30422852 334.97421875 1366.60845703 334.9484375 1365.89160156 334.921875 C1353.97587889 334.49801648 1342.68027814 335.63355917 1331 338 C1329.99259766 338.20085205 1329.99259766 338.20085205 1328.96484375 338.40576172 C1311.19843724 342.10709641 1290.81365827 351.96147059 1280 367 C1279.26007813 368.01835937 1278.52015625 369.03671875 1277.7578125 370.0859375 C1265.51734607 387.62297723 1261.89035472 408.25964435 1265.36816406 429.21875 C1269.53492834 451.18368836 1279.96579135 469.9619021 1295.40698242 486.02905273 C1297.63003198 488.36458155 1298.96482263 489.89446789 1300 493 C1301.31540964 493.70136987 1302.65111952 494.36537911 1304 495 C1305.4296875 496.33984375 1305.4296875 496.33984375 1306.875 497.9375 C1312.37461293 503.58890691 1318.74476147 508.22818655 1325 513 C1325.66306152 513.50789062 1326.32612305 514.01578125 1327.00927734 514.5390625 C1334.46758305 520.24068203 1341.98020994 525.75741189 1349.83984375 530.8984375 C1353.61001695 533.40567258 1357.30659028 536.00652207 1361 538.625 C1361.71712158 539.13321289 1362.43424316 539.64142578 1363.1730957 540.16503906 C1364.67498809 541.22946307 1366.17685933 542.29391689 1367.67871094 543.35839844 C1371.65194743 546.16824721 1375.63792504 548.95983627 1379.625 551.75 C1380.44597168 552.32451904 1381.26694336 552.89903809 1382.11279297 553.4909668 C1389.71902854 558.8097829 1397.33769399 564.11071405 1404.95947266 569.40722656 C1410.13850785 573.00657746 1415.31089614 576.61513397 1420.4765625 580.23364258 C1424.95869782 583.37105057 1429.44743861 586.49894936 1433.9375 589.625 C1435.42987183 590.66442749 1435.42987183 590.66442749 1436.95239258 591.72485352 C1442.54284717 595.61326487 1448.15018892 599.47458567 1453.78222656 603.30249023 C1460.63299162 607.9593694 1467.39994808 612.66489035 1473.98046875 617.69921875 C1476.25926944 619.43558822 1478.55044805 621.14212263 1480.86328125 622.83203125 C1489.42089168 629.1101213 1497.2844424 635.71372907 1505 643 C1506.34669631 644.19596516 1507.70007497 645.38448402 1509.0625 646.5625 C1512.39076058 649.46153459 1515.70737236 652.37304806 1519 655.3125 C1519.94875 656.15425781 1520.8975 656.99601563 1521.875 657.86328125 C1524 660 1524 660 1524 662 C1524.99 662.33 1525.98 662.66 1527 663 C1528.40234375 664.35546875 1528.40234375 664.35546875 1529.9375 666.1875 C1532.17879204 668.84402088 1534.4247267 671.48833525 1536.73828125 674.08203125 C1544.26024965 682.57585582 1550.8479066 691.47098077 1557 701 C1557.39815918 701.61456055 1557.79631836 702.22912109 1558.20654297 702.86230469 C1574.61354926 728.46686545 1584.2257577 757.05539628 1589 787 C1589.12455566 787.76973145 1589.24911133 788.53946289 1589.37744141 789.33251953 C1598.90215593 851.17966585 1585.15585945 914.47027835 1548.59399414 965.25708008 C1542.48477639 973.54518785 1535.67180758 981.08041864 1528.49804688 988.45507812 C1527.25994935 989.73191664 1526.04134381 991.02762426 1524.828125 992.328125 C1480.89393579 1038.51534956 1407.81469388 1060.32079231 1345.91381836 1062.28735352 C1339.97313928 1062.40980336 1334.03496975 1062.42262785 1328.09326172 1062.39111328 C1324.50059077 1062.37500265 1320.90904413 1062.39110105 1317.31640625 1062.41015625 C1301.03409347 1062.42553673 1285.12971961 1061.18665423 1269 1059 C1267.72990082 1058.82987396 1267.72990082 1058.82987396 1266.43414307 1058.65631104 C1261.46235715 1057.97832259 1256.51007767 1057.21073062 1251.5625 1056.375 C1250.82561951 1056.25161255 1250.08873901 1056.1282251 1249.32952881 1056.00109863 C1205.14043189 1048.51522638 1148.78935476 1036.80155008 1115 1006 C1114.26007813 1005.34128906 1113.52015625 1004.68257812 1112.7578125 1004.00390625 C1103.62993972 995.44437272 1096.69655234 983.09184252 1095.82299805 970.43554688 C1095.39582904 951.49715344 1096.66562321 934.29988112 1110.265625 919.61328125 C1121.72393006 908.95499299 1135.58059755 903.86456699 1151 903.625 C1151.85078125 903.58761719 1152.7015625 903.55023437 1153.578125 903.51171875 C1175.14075382 903.23448495 1197.03959958 912.98827474 1217.30303955 919.60821533 C1240.06522097 927.04230105 1262.84632755 934.2618709 1286.6875 937.3125 C1287.79287109 937.46783203 1288.89824219 937.62316406 1290.03710938 937.78320312 C1318.24274494 941.61522242 1346.89222295 941.46934861 1374 932 C1375.12277344 931.61972656 1376.24554687 931.23945312 1377.40234375 930.84765625 C1391.94671747 925.61168171 1404.34295349 918.08543694 1416 908 C1416.82113281 907.29359375 1417.64226562 906.5871875 1418.48828125 905.859375 C1434.84449912 890.63618111 1444.0267165 869.63487315 1448 848 C1448.15082031 847.19820312 1448.30164062 846.39640625 1448.45703125 845.5703125 C1448.77872058 843.36566833 1448.91736292 841.22775784 1449 839 C1449.07734375 837.08380859 1449.07734375 837.08380859 1449.15625 835.12890625 C1450.0573544 801.46274865 1437.99380464 774.28427327 1415 750 C1414.24203125 749.18917969 1413.4840625 748.37835937 1412.703125 747.54296875 C1406.52277303 741.13034865 1399.80238107 735.70192326 1392.73193359 730.32617188 C1391.1370214 729.10491968 1389.56164262 727.85826885 1387.98828125 726.609375 C1379.57725131 719.96850953 1370.7536393 713.98924849 1361.87890625 707.98828125 C1356.07341779 704.06044371 1350.31226463 700.07133914 1344.5625 696.0625 C1343.61068848 695.39911621 1342.65887695 694.73573242 1341.67822266 694.05224609 C1339.74898722 692.70715384 1337.81995082 691.36177605 1335.89111328 690.01611328 C1331.09712134 686.67303057 1326.29835528 683.33681543 1321.5 680 C1315.66690552 675.94293139 1309.83439804 671.8850271 1304.00390625 667.82421875 C1295.62097953 661.98695384 1287.23785532 656.15091306 1278.8125 650.375 C1236.34505865 621.22445536 1236.34505865 621.22445536 1220.6875 607.23046875 C1217.83360061 604.68329311 1214.87515141 602.30056644 1211.8828125 599.91796875 C1205.73305336 594.90960239 1200.13695269 589.44001066 1194.55615234 583.81689453 C1192.87685572 582.12686758 1191.18711031 580.44782236 1189.49609375 578.76953125 C1181.68636164 570.96950315 1174.61920161 562.84846867 1168 554 C1165.08776889 560.94587249 1162.67508774 567.93756874 1160.5234375 575.15234375 C1160.03948013 576.75483223 1160.03948013 576.75483223 1159.54574585 578.38969421 C1158.84932811 580.69738621 1158.15490246 583.00568014 1157.46228027 585.31451416 C1156.35351118 589.00910407 1155.23861123 592.70179482 1154.12207031 596.39404297 C1152.54571014 601.60791676 1150.97136264 606.82239204 1149.39941406 612.03759766 C1149.20095634 612.69601402 1149.00249863 613.35443039 1148.79802704 614.03279877 C1147.80580351 617.32510298 1146.81399069 620.61753053 1145.82263184 623.91009521 C1133.73919975 664.0396309 1121.6621745 704.09104849 1106 743 C1105.53770996 744.15226074 1105.07541992 745.30452148 1104.59912109 746.49169922 C1095.67388699 768.64237203 1086.08641226 790.52172 1075.15039062 811.76123047 C1074.29831576 813.41944917 1073.45145793 815.08035091 1072.60742188 816.74267578 C1061.87192641 837.88118169 1050.15922591 858.27695041 1037 878 C1036.25049072 879.13018555 1036.25049072 879.13018555 1035.48583984 880.28320312 C1022.4606589 899.86762342 1007.9916451 918.22362499 992.1640625 935.6171875 C990.73073335 937.1954019 989.3086322 938.78389285 987.8984375 940.3828125 C983.42728394 945.43928071 978.80518723 950.32417239 974.0625 955.125 C973.21026855 955.99668823 973.21026855 955.99668823 972.34082031 956.88598633 C970.93276859 958.29722465 969.4705095 959.65396691 968 961 C967.34 961 966.68 961 966 961 C966 961.66 966 962.32 966 963 C964.5246582 964.49584961 964.5246582 964.49584961 962.48828125 966.21484375 C961.38734131 967.15046143 961.38734131 967.15046143 960.26416016 968.10498047 C959.5169873 968.73033691 958.76981445 969.35569336 958 970 C957.03586182 970.82008545 957.03586182 970.82008545 956.05224609 971.65673828 C941.1881006 984.25601787 925.81905957 996.1224725 909 1006 C907.90429688 1006.67933594 906.80859375 1007.35867188 905.6796875 1008.05859375 C843.72939787 1046.44422598 772.36316714 1062.80662191 699.97104263 1062.38672256 C697.77108871 1062.3747751 695.57116315 1062.36782799 693.3711853 1062.36190796 C671.80061029 1062.29468022 650.4068058 1061.87198638 629 1059 C628.34902344 1058.91514343 627.69804688 1058.83028687 627.02734375 1058.74285889 C548.45663692 1048.4956437 473.18086816 1020.44283702 411.77001953 969.45263672 C410.12347534 968.10133493 408.4588654 966.78003801 406.77734375 965.47265625 C405.86082031 964.75980469 404.94429687 964.04695312 404 963.3125 C403.21625 962.71050781 402.4325 962.10851562 401.625 961.48828125 C401.08875 960.99714844 400.5525 960.50601563 400 960 C400 959.34 400 958.68 400 958 C399.42330566 957.75072754 398.84661133 957.50145508 398.25244141 957.24462891 C395.67919372 955.82273245 394.00316834 954.19800478 391.9609375 952.0859375 C391.21585937 951.32539062 390.47078125 950.56484375 389.703125 949.78125 C388.93484375 948.9871875 388.1665625 948.193125 387.375 947.375 C385.84578272 945.79497816 384.31215367 944.21921026 382.7734375 942.6484375 C381.75902588 941.59922119 381.75902588 941.59922119 380.72412109 940.52880859 C379.13464669 938.77884805 379.13464669 938.77884805 377 939 C375.62488505 940.97325913 374.36773023 942.94499921 373.125 945 C364.70470359 958.45965059 355.06155172 970.62993318 344 982 C343.38608398 982.63969727 342.77216797 983.27939453 342.13964844 983.93847656 C333.31160877 993.11840621 324.27213394 1001.47080978 314 1009 C313.43071777 1009.42474609 312.86143555 1009.84949219 312.27490234 1010.28710938 C298.69758432 1020.40789564 284.33327853 1028.82748964 269 1036 C268.23510254 1036.3609375 267.47020508 1036.721875 266.68212891 1037.09375 C243.47437345 1047.91558132 219.22387155 1054.0175098 194 1058 C193.20577637 1058.12600586 192.41155273 1058.25201172 191.59326172 1058.38183594 C176.68292939 1060.68731058 161.80403094 1061.20782777 146.75 1061.1875 C145.91818207 1061.18689575 145.08636414 1061.1862915 144.2293396 1061.18566895 C70.78997857 1061.04168913 -0.54431258 1041.8834194 -53.45214844 988.92089844 C-60.34328764 981.82126363 -66.29515802 974.0700237 -72 966 C-72.41443359 965.41428223 -72.82886719 964.82856445 -73.25585938 964.22509766 C-103.15903806 921.28623681 -116.19791491 866.28479989 -116.13422108 814.46745014 C-116.13657331 813.15020754 -116.13892554 811.83296495 -116.14134905 810.47580591 C-116.14769752 806.83731245 -116.14791484 803.19884123 -116.14707164 799.5603433 C-116.14724216 795.59504511 -116.15315967 791.62975464 -116.1583125 787.66446036 C-116.1676099 779.80790702 -116.17155569 771.95135931 -116.17383147 764.09480116 C-116.17680091 754.68095898 -116.18550247 745.26712422 -116.19424575 735.85328594 C-116.215058 713.10603436 -116.22555382 690.35878151 -116.23437535 667.61152263 C-116.23858539 656.84790871 -116.24380681 646.08429534 -116.24905988 635.32068188 C-116.26694491 598.46474701 -116.28194138 561.60881198 -116.28938007 524.75287342 C-116.28985483 522.44054947 -116.29033072 520.12822551 -116.29080774 517.81590156 C-116.29104411 516.66922384 -116.29128049 515.52254611 -116.29152403 514.34112058 C-116.2927252 508.53169432 -116.29394066 502.72226806 -116.29516602 496.9128418 C-116.29540617 495.75995625 -116.29564632 494.6070707 -116.29589374 493.41924923 C-116.3037889 456.02935458 -116.32722785 418.63949163 -116.35972196 381.24961082 C-116.39402696 341.70373962 -116.41373168 302.15788697 -116.41702431 262.61200064 C-116.41744185 258.27023581 -116.41792141 253.92847098 -116.41844749 249.58670616 C-116.41857069 248.51766873 -116.41869388 247.44863131 -116.4188208 246.34719881 C-116.42115161 229.15300545 -116.43680446 211.95884897 -116.45728934 194.76466875 C-116.47755413 177.48102659 -116.48302147 160.19742869 -116.47351871 142.91377685 C-116.46830686 132.65036542 -116.47416645 122.38710144 -116.49605338 112.12371126 C-116.50958021 105.26114052 -116.50846786 98.39867106 -116.49565142 91.53609927 C-116.4887675 87.63058323 -116.4880412 83.72534872 -116.50521151 79.81985805 C-116.65708957 43.03004938 -116.65708957 43.03004938 -108.375 27.6875 C-107.86404785 26.7118811 -107.86404785 26.7118811 -107.34277344 25.71655273 C-98.27671673 9.08796852 -83.89628124 -2.08596156 -65.98046875 -7.99609375 C-44.85975955 -14.03470965 -18.4631719 -12.9210534 0 0 Z " fill="#E31E64" transform="translate(116,11)"/>
<path d="M0 0 C0.78246094 0.5465625 1.56492187 1.093125 2.37109375 1.65625 C4.66395441 3.35752941 6.83930629 5.13430875 9 7 C9.67804688 7.58265625 10.35609375 8.1653125 11.0546875 8.765625 C25.35875242 22.01219096 32.3205613 41.9683271 33.26817894 61.13369751 C33.39955868 65.50220308 33.372508 69.86847416 33.34057617 74.23828125 C33.33972731 75.89579248 33.34021009 77.55330484 33.34190369 79.21081543 C33.34275496 83.65610924 33.3252721 88.10115397 33.30418181 92.54639053 C33.28526809 97.21214747 33.28365311 101.87791181 33.28010559 106.54370117 C33.27082788 115.35471531 33.24627276 124.16561611 33.21605712 132.97658062 C33.18237904 143.01785703 33.16599358 153.0591392 33.15097082 163.10045815 C33.11971878 183.73370172 33.06704259 204.36684368 33 225 C33.97292433 224.99631283 34.94584866 224.99262566 35.94825554 224.98882675 C59.68828532 224.899788 83.42829328 224.83418328 107.16845512 224.79275131 C118.64931063 224.77217945 130.13005543 224.74416226 141.61083984 224.69824219 C151.62458727 224.65820917 161.63825446 224.63252818 171.6520797 224.62364602 C176.94790152 224.61845902 182.24349394 224.60638128 187.53924179 224.57707977 C192.53790698 224.54964974 197.53625128 224.54160993 202.53498459 224.54756927 C204.35608167 224.54648124 206.17719104 224.53869344 207.99822235 224.5231781 C226.5447984 224.37309585 244.43409197 226.98016859 260.0625 237.5625 C260.63589111 237.95074951 261.20928223 238.33899902 261.80004883 238.73901367 C264.61999421 240.73542383 265.88024035 241.64072105 267 245 C267.66 245 268.32 245 269 245 C280.19399105 258.59270341 285.3538259 274.33475562 284 292 C281.87188867 308.73469363 274.36903613 322.44839421 261.375 333.1875 C245.40265688 344.36496477 228.46378587 346.45776839 209.53198242 346.34057617 C207.59905511 346.33972838 205.66612683 346.34020801 203.73320007 346.34190369 C198.52330604 346.34275911 193.31362218 346.32520712 188.10377669 346.30418181 C182.64523005 346.28533907 177.18667779 346.28365861 171.72810364 346.28010559 C161.40827759 346.27080735 151.08854769 346.2462238 140.76876384 346.21605712 C129.01295595 346.18244374 117.2571433 346.1660097 105.50129926 346.15097082 C81.33414636 346.11967215 57.16707858 346.06695512 33 346 C33.08185546 403.08027691 33.17405642 460.16052919 33.28005161 517.24076665 C33.2925764 523.98700835 33.30500492 530.73325022 33.31738281 537.47949219 C33.3192328 538.48643822 33.3192328 538.48643822 33.32112016 539.5137266 C33.36098062 561.23426099 33.3944961 582.95479947 33.42468691 604.67534927 C33.45665417 627.64897803 33.49592409 650.62258664 33.54279006 673.59619033 C33.57060385 687.34475254 33.59266755 701.09329886 33.60726251 714.84188156 C33.61784399 724.28312093 33.6357077 733.72432946 33.65916704 743.16554554 C33.67246966 748.60409524 33.68268725 754.04260191 33.68421364 759.48116875 C33.34276273 795.51151448 33.34276273 795.51151448 38.1875 831.125 C38.40180664 832.1137915 38.61611328 833.10258301 38.83691406 834.12133789 C43.27952101 853.72504798 50.49310195 873.74274799 64 889 C65.06541016 890.24330078 65.06541016 890.24330078 66.15234375 891.51171875 C85.18197443 913.27380923 111.52033186 924.8639546 140 928 C141.49466797 928.16628906 141.49466797 928.16628906 143.01953125 928.3359375 C181.88685317 931.95377627 220.38544107 923.05098019 251 898 C258.86462355 891.28430826 266.62176545 884.16691337 273 876 C273.6506543 875.16927979 273.6506543 875.16927979 274.31445312 874.32177734 C286.2648548 858.97440708 296.38113973 842.4436236 305 825 C305.99 825.33 306.98 825.66 308 826 C308.12375 826.969375 308.2475 827.93875 308.375 828.9375 C308.58125 829.948125 308.7875 830.95875 309 832 C309.66 832.33 310.32 832.66 311 833 C313 838.22222222 313 838.22222222 313 841 C313.66 841.33 314.32 841.66 315 842 C316.38513792 844.52324488 317.68124273 847.03872357 318.9375 849.625 C319.45860352 850.67494141 319.45860352 850.67494141 319.99023438 851.74609375 C321.63941279 855.09414335 323.20591643 858.4478437 324.62890625 861.8984375 C325.79095315 865.03150925 325.79095315 865.03150925 328 867 C328.66666667 868.66666667 329.33333333 870.33333333 330 872 C330.66 872.66 331.32 873.32 332 874 C333 876 334 878 335 880 C335.66 880.66 336.32 881.32 337 882 C337.69289129 883.23565614 338.35509224 884.48863629 339 885.75 C342.72913287 892.57398508 347.37820723 898.76476276 352 905 C352.40911621 905.55236328 352.81823242 906.10472656 353.23974609 906.67382812 C358.51155464 913.74831 364.05540887 920.53741596 369.89013672 927.15625 C372.91437986 930.61252788 375.53296614 934.12406765 378 938 C367.79855198 953.70842438 357.07926059 968.55594888 344 982 C343.38608398 982.63969727 342.77216797 983.27939453 342.13964844 983.93847656 C333.31160877 993.11840621 324.27213394 1001.47080978 314 1009 C313.43071777 1009.42474609 312.86143555 1009.84949219 312.27490234 1010.28710938 C298.69758432 1020.40789564 284.33327853 1028.82748964 269 1036 C268.23510254 1036.3609375 267.47020508 1036.721875 266.68212891 1037.09375 C243.47437345 1047.91558132 219.22387155 1054.0175098 194 1058 C193.20577637 1058.12600586 192.41155273 1058.25201172 191.59326172 1058.38183594 C176.68292939 1060.68731058 161.80403094 1061.20782777 146.75 1061.1875 C145.91818207 1061.18689575 145.08636414 1061.1862915 144.2293396 1061.18566895 C70.78997857 1061.04168913 -0.54431258 1041.8834194 -53.45214844 988.92089844 C-60.34328764 981.82126363 -66.29515802 974.0700237 -72 966 C-72.41443359 965.41428223 -72.82886719 964.82856445 -73.25585938 964.22509766 C-103.15903806 921.28623681 -116.19791491 866.28479989 -116.13422108 814.46745014 C-116.13657331 813.15020754 -116.13892554 811.83296495 -116.14134905 810.47580591 C-116.14769752 806.83731245 -116.14791484 803.19884123 -116.14707164 799.5603433 C-116.14724216 795.59504511 -116.15315967 791.62975464 -116.1583125 787.66446036 C-116.1676099 779.80790702 -116.17155569 771.95135931 -116.17383147 764.09480116 C-116.17680091 754.68095898 -116.18550247 745.26712422 -116.19424575 735.85328594 C-116.215058 713.10603436 -116.22555382 690.35878151 -116.23437535 667.61152263 C-116.23858539 656.84790871 -116.24380681 646.08429534 -116.24905988 635.32068188 C-116.26694491 598.46474701 -116.28194138 561.60881198 -116.28938007 524.75287342 C-116.28985483 522.44054947 -116.29033072 520.12822551 -116.29080774 517.81590156 C-116.29104411 516.66922384 -116.29128049 515.52254611 -116.29152403 514.34112058 C-116.2927252 508.53169432 -116.29394066 502.72226806 -116.29516602 496.9128418 C-116.29540617 495.75995625 -116.29564632 494.6070707 -116.29589374 493.41924923 C-116.3037889 456.02935458 -116.32722785 418.63949163 -116.35972196 381.24961082 C-116.39402696 341.70373962 -116.41373168 302.15788697 -116.41702431 262.61200064 C-116.41744185 258.27023581 -116.41792141 253.92847098 -116.41844749 249.58670616 C-116.41857069 248.51766873 -116.41869388 247.44863131 -116.4188208 246.34719881 C-116.42115161 229.15300545 -116.43680446 211.95884897 -116.45728934 194.76466875 C-116.47755413 177.48102659 -116.48302147 160.19742869 -116.47351871 142.91377685 C-116.46830686 132.65036542 -116.47416645 122.38710144 -116.49605338 112.12371126 C-116.50958021 105.26114052 -116.50846786 98.39867106 -116.49565142 91.53609927 C-116.4887675 87.63058323 -116.4880412 83.72534872 -116.50521151 79.81985805 C-116.65708957 43.03004938 -116.65708957 43.03004938 -108.375 27.6875 C-107.86404785 26.7118811 -107.86404785 26.7118811 -107.34277344 25.71655273 C-98.27671673 9.08796852 -83.89628124 -2.08596156 -65.98046875 -7.99609375 C-44.85975955 -14.03470965 -18.4631719 -12.9210534 0 0 Z " fill="#E71E59" transform="translate(116,11)"/>
<path d="M0 0 C1.28579956 -0.00979385 2.57159912 -0.01958771 3.8963623 -0.02967834 C8.03897247 -0.05702955 12.18152753 -0.06837278 16.32421875 -0.07421875 C17.38696833 -0.07594463 17.38696833 -0.07594463 18.47118759 -0.07770538 C95.41350495 -0.16434097 205.60130306 10.11021186 263.01171875 67.23828125 C275.99268703 81.07386843 279.66344337 96.30074206 279.3203125 114.67578125 C278.66805919 130.63298266 272.26811416 144.99044694 260.83789062 156.12158203 C252.25678763 163.9699583 242.36371947 168.14500452 231.01171875 170.23828125 C230.05910156 170.42261719 229.10648438 170.60695313 228.125 170.796875 C203.13328496 174.34024238 180.18580227 166.10121481 157.65625 156.359375 C128.71523443 143.87979672 98.30852065 134.43848189 67.01171875 130.23828125 C65.93148438 130.0902002 64.85125 129.94211914 63.73828125 129.78955078 C48.08337907 127.72841074 32.59677332 126.95392751 16.82421875 126.92578125 C16.02363037 126.92219604 15.22304199 126.91861084 14.39819336 126.91491699 C4.66563757 126.89138422 -4.8828223 127.36425222 -14.54728699 128.55363464 C-19.18078272 129.11484142 -23.62172016 129.28983673 -28.30078125 129.11328125 C-82.0895129 128.41402774 -140.00191169 147.75428084 -188.91796875 168.91162109 C-191.61166817 170.07554942 -194.31305526 171.21778344 -197.01953125 172.3515625 C-209.11845901 177.486108 -220.57033647 183.74754144 -231.98828125 190.23828125 C-232.91753418 190.76615234 -233.84678711 191.29402344 -234.80419922 191.83789062 C-252.73668492 202.08859263 -269.84316038 213.34385586 -285.98828125 226.23828125 C-286.91769531 226.97433594 -287.84710938 227.71039063 -288.8046875 228.46875 C-300.11614314 237.55974919 -310.5548004 247.59952328 -320.82495117 257.8347168 C-322.54616993 259.54619603 -324.27782306 261.24664829 -326.00976562 262.94726562 C-336.37326496 273.211787 -345.29996513 284.34662101 -353.48828125 296.42578125 C-354.02815674 297.22129395 -354.56803223 298.01680664 -355.12426758 298.83642578 C-379.22901089 334.80088661 -393.53479291 373.99236004 -396.98828125 417.23828125 C-397.31828125 417.23828125 -397.64828125 417.23828125 -397.98828125 417.23828125 C-399.16111395 375.86435248 -392.78517823 334.11695801 -381.98828125 294.23828125 C-381.68696289 293.1184082 -381.38564453 291.99853516 -381.07519531 290.84472656 C-373.28099672 262.29898971 -362.30405517 235.57482105 -348.98828125 209.23828125 C-348.53598145 208.32868652 -348.08368164 207.4190918 -347.61767578 206.48193359 C-338.78206198 188.72445439 -328.25259312 171.83308515 -315.98828125 156.23828125 C-314.7984411 154.66040671 -313.60861853 153.0825188 -312.41943359 151.50415039 C-297.87483058 132.31406856 -281.35070787 113.84158677 -262.98828125 98.23828125 C-261.97299761 97.3487516 -260.95876517 96.45802139 -259.9453125 95.56640625 C-236.18642251 74.76535378 -209.54984965 56.93295545 -181.07910156 43.24902344 C-178.91286166 42.20182199 -176.75922386 41.13121113 -174.60546875 40.05859375 C-132.90663336 19.51522665 -86.86814072 8.1852544 -40.92578125 2.55078125 C-39.95181396 2.43130127 -38.97784668 2.31182129 -37.97436523 2.1887207 C-25.34164392 0.71811562 -12.7137807 0.08101961 0 0 Z " fill="#FC7B03" transform="translate(785.98828125,226.76171875)"/>
<path d="M0 0 C3.7833853 1.66322735 6.89448083 4.09321538 10.125 6.625 C10.70193604 7.07375488 11.27887207 7.52250977 11.87329102 7.98486328 C13.58531491 9.31930804 15.29304651 10.65907894 17 12 C17.85207031 12.66515625 18.70414063 13.3303125 19.58203125 14.015625 C30.12580889 22.33873968 40.24215761 31.176748 50.08984375 40.30859375 C51.9871832 42.06331439 53.89559548 43.80616015 55.81640625 45.53515625 C61.97824234 51.09338391 67.93396641 56.82995436 73.8125 62.6875 C74.51785889 63.3882666 75.22321777 64.0890332 75.94995117 64.81103516 C80.50354286 69.3780561 84.80365815 74.10437596 89 79 C89.845625 79.96421875 90.69125 80.9284375 91.5625 81.921875 C124.45904332 120.09030027 155.47991565 166.60546444 152 219 C150.48080423 231.80905674 145.11482336 244.03358004 137 254 C136.50113281 254.84304688 136.00226563 255.68609375 135.48828125 256.5546875 C113.030413 293.45396709 50.86211692 314.38233284 12 324 C-13.67314205 330.00565465 -39.57131343 332.53079526 -65.90673828 332.39111328 C-69.49940923 332.37500265 -73.09095587 332.39110105 -76.68359375 332.41015625 C-92.96590653 332.42553673 -108.87028039 331.18665423 -125 329 C-125.84673279 328.88658264 -126.69346558 328.77316528 -127.56585693 328.65631104 C-132.53764285 327.97832259 -137.48992233 327.21073062 -142.4375 326.375 C-143.17438049 326.25161255 -143.91126099 326.1282251 -144.67047119 326.00109863 C-188.85956811 318.51522638 -245.21064524 306.80155008 -279 276 C-279.73992187 275.34128906 -280.47984375 274.68257812 -281.2421875 274.00390625 C-290.37006028 265.44437272 -297.30344766 253.09184252 -298.17700195 240.43554688 C-298.60417096 221.49715344 -297.33437679 204.29988112 -283.734375 189.61328125 C-272.27606994 178.95499299 -258.41940245 173.86456699 -243 173.625 C-242.14921875 173.58761719 -241.2984375 173.55023437 -240.421875 173.51171875 C-218.85924618 173.23448495 -196.96040042 182.98827474 -176.69696045 189.60821533 C-153.93477903 197.04230105 -131.15367245 204.2618709 -107.3125 207.3125 C-106.20712891 207.46783203 -105.10175781 207.62316406 -103.96289062 207.78320312 C-75.75725506 211.61522242 -47.10777705 211.46934861 -20 202 C-18.87722656 201.61972656 -17.75445313 201.23945312 -16.59765625 200.84765625 C-2.05328253 195.61168171 10.34295349 188.08543694 22 178 C22.82113281 177.29359375 23.64226562 176.5871875 24.48828125 175.859375 C40.84449912 160.63618111 50.0267165 139.63487315 54 118 C54.15082031 117.19820312 54.30164062 116.39640625 54.45703125 115.5703125 C54.77872058 113.36566833 54.91736292 111.22775784 55 109 C55.0515625 107.72253906 55.103125 106.44507813 55.15625 105.12890625 C56.01843539 72.91680154 45.09748238 46.03507623 23.30859375 22.43359375 C16.56820832 15.32824667 9.74655415 8.7767165 2.0546875 2.71484375 C1.37664062 2.14894531 0.69859375 1.58304688 0 1 C0 0.67 0 0.34 0 0 Z " fill="#BB20A8" transform="translate(1510,741)"/>
<path d="M0 0 C1.93237015 0.00223572 1.93237015 0.00223572 3.90377808 0.0045166 C22.71413005 0.04370209 41.12031622 0.54872329 59.75 3.3125 C60.81154297 3.45703613 61.87308594 3.60157227 62.96679688 3.75048828 C103.95862014 9.3352222 157.39026598 20.24465385 188.75 49.3125 C190.00490234 50.37984375 190.00490234 50.37984375 191.28515625 51.46875 C200.81136636 60.08975463 207.95517214 72.93115426 208.94970703 85.92089844 C209.05390592 88.82537963 209.07205373 91.71875394 209.0625 94.625 C209.07861328 95.59373047 209.09472656 96.56246094 209.11132812 97.56054688 C209.1214403 112.71869188 203.53176253 126.20500985 193.02734375 137.12890625 C179.66378367 149.94233692 163.97489915 152.88596752 146.078125 152.55078125 C127.17972262 151.87201697 109.35754505 144.64631002 91.88500977 137.94262695 C64.95586391 127.61752001 37.74213803 120.02688533 8.75 119.3125 C8.05422852 119.28671875 7.35845703 119.2609375 6.64160156 119.234375 C-5.27412111 118.81051648 -16.56972186 119.94605917 -28.25 122.3125 C-28.92160156 122.44640137 -29.59320312 122.58030273 -30.28515625 122.71826172 C-48.05156276 126.41959641 -68.43634173 136.27397059 -79.25 151.3125 C-79.98992187 152.33085937 -80.72984375 153.34921875 -81.4921875 154.3984375 C-93.73265393 171.93547723 -97.35964528 192.57214435 -93.88183594 213.53125 C-89.71507166 235.49618836 -79.28420865 254.2744021 -63.84301758 270.34155273 C-61.61996802 272.67708155 -60.28517737 274.20696789 -59.25 277.3125 C-57.93413396 278.01301324 -56.59831905 278.67668716 -55.25 279.3125 C-53.71484375 280.72265625 -53.71484375 280.72265625 -52.1875 282.375 C-47.58590771 287.13734661 -42.42024715 291.18939152 -37.25 295.3125 C-41.63368179 295.3125 -44.10034991 292.70216956 -47.4375 290.125 C-48.14221436 289.58834717 -48.84692871 289.05169434 -49.57299805 288.4987793 C-56.66201559 283.06619923 -63.58895984 277.43715026 -70.48242188 271.75976562 C-72.03512625 270.4884353 -73.60238851 269.23492841 -75.171875 267.984375 C-82.61327031 262.04006514 -89.49801613 255.56509973 -96.41748047 249.03173828 C-99.16874548 246.45054881 -101.95936167 243.91344006 -104.75 241.375 C-110.94431968 235.70309283 -116.79781291 229.94148805 -122.265625 223.56640625 C-123.67961062 221.96036353 -125.13218836 220.38795492 -126.609375 218.83984375 C-157.6908942 186.1490743 -185.29046033 142.22722319 -184.48828125 95.8828125 C-183.88162946 77.95819452 -175.76798527 61.49063252 -163.04150391 48.93994141 C-145.11524765 32.6553374 -119.99616683 21.83645557 -97.25 14.3125 C-95.86143799 13.85302979 -95.86143799 13.85302979 -94.44482422 13.38427734 C-78.67697781 8.27593258 -62.64364185 4.73356434 -46.25 2.3125 C-44.98542969 2.12486084 -43.72085937 1.93722168 -42.41796875 1.74389648 C-28.32950139 -0.16374513 -14.1921755 -0.04039895 0 0 Z " fill="#F8931A" transform="translate(1475.25,226.6875)"/>
<path d="M0 0 C0.78246094 0.5465625 1.56492187 1.093125 2.37109375 1.65625 C4.66395441 3.35752941 6.83930629 5.13430875 9 7 C9.67804688 7.58265625 10.35609375 8.1653125 11.0546875 8.765625 C25.35875242 22.01219096 32.3205613 41.9683271 33.26817894 61.13369751 C33.39955868 65.50220308 33.372508 69.86847416 33.34057617 74.23828125 C33.33972731 75.89579248 33.34021009 77.55330484 33.34190369 79.21081543 C33.34275496 83.65610924 33.3252721 88.10115397 33.30418181 92.54639053 C33.28526809 97.21214747 33.28365311 101.87791181 33.28010559 106.54370117 C33.27082788 115.35471531 33.24627276 124.16561611 33.21605712 132.97658062 C33.18237904 143.01785703 33.16599358 153.0591392 33.15097082 163.10045815 C33.11971878 183.73370172 33.06704259 204.36684368 33 225 C31.87980469 225.06058594 30.75960937 225.12117187 29.60546875 225.18359375 C28.13280016 225.26801424 26.66014456 225.35266149 25.1875 225.4375 C24.44951172 225.47681641 23.71152344 225.51613281 22.95117188 225.55664062 C19.76928658 225.74381035 17.03837622 225.98720793 14 227 C11.91808169 227.129401 9.83427292 227.22922426 7.75 227.3125 C0.48567642 227.79728545 -6.12298324 229.32453567 -13.07910156 231.42626953 C-14.99026988 231.99709382 -16.91321567 232.52798518 -18.8359375 233.05859375 C-53.50233478 242.85949638 -81.25305828 265.53102242 -98.83886719 296.80029297 C-106.91335166 312.09699294 -111.36586423 328.97516458 -114 346 C-114.66 346 -115.32 346 -116 346 C-116.09169149 308.96292629 -116.16210761 271.92586978 -116.20426132 234.88870541 C-116.20926374 230.50938089 -116.21444107 226.1300566 -116.21972656 221.75073242 C-116.2207758 220.87894157 -116.22182505 220.00715072 -116.22290608 219.10894196 C-116.24027909 205.02013076 -116.27179954 190.93138529 -116.30861118 176.84261299 C-116.34610724 162.37046619 -116.36825411 147.89835366 -116.37635398 133.42616028 C-116.38182384 124.5065644 -116.39905695 115.58715439 -116.43166587 106.66761576 C-116.45292093 100.5389817 -116.45917538 94.41044277 -116.45400551 88.28177459 C-116.45146068 84.75355209 -116.45517184 81.2256528 -116.4768219 77.69748878 C-116.65812744 43.03197204 -116.65812744 43.03197204 -108.375 27.6875 C-107.86404785 26.7118811 -107.86404785 26.7118811 -107.34277344 25.71655273 C-98.27671673 9.08796852 -83.89628124 -2.08596156 -65.98046875 -7.99609375 C-44.85975955 -14.03470965 -18.4631719 -12.9210534 0 0 Z " fill="#FAA215" transform="translate(116,11)"/>
<path d="M0 0 C0 4.13997696 -2.16832917 6.45607031 -4.5 9.6875 C-4.92925781 10.29400391 -5.35851563 10.90050781 -5.80078125 11.52539062 C-6.86093138 13.02138026 -7.92965571 14.511287 -9 16 C-9.66 15.67 -10.32 15.34 -11 15 C-9.3718356 11.24269753 -6.98598083 8.383177 -4.375 5.25 C-3.55773438 4.26515625 -2.74046875 3.2803125 -1.8984375 2.265625 C-1.27195312 1.51796875 -0.64546875 0.7703125 0 0 Z " fill="#8000CC" transform="translate(1279,307)"/>
<path d="M0 0 C-3.44450737 2.29633824 -5.93812283 2.54016485 -10 3 C-7.29536552 -0.8183075 -4.37912428 -0.24787496 0 0 Z " fill="#E73589" transform="translate(364,1055)"/>
</svg>
