<?xml version="1.0" encoding="UTF-8"?>
<svg version="1.1" xmlns="http://www.w3.org/2000/svg" width="1200" height="945">
<path d="M0 0 C12.87 0 25.74 0 39 0 C57.0146185 55.88848964 57.0146185 55.88848964 62.49542236 73.31274414 C62.91318557 74.63970426 63.33240244 75.96620765 63.75311279 77.29223633 C64.32147505 79.08539539 64.88360261 80.88052721 65.4453125 82.67578125 C65.90188232 84.1285144 65.90188232 84.1285144 66.36767578 85.6105957 C67 88 67 88 67 91 C67.66 91 68.32 91 69 91 C69.10618652 90.34104736 69.21237305 89.68209473 69.32177734 89.00317383 C70.18164859 85.19565901 71.49968867 81.6025142 72.8515625 77.94921875 C73.14266403 77.15399307 73.43376556 76.3587674 73.73368835 75.53944397 C74.69366226 72.92071753 75.65915869 70.30406755 76.625 67.6875 C77.29467226 65.8656177 77.96418503 64.04367677 78.63354492 62.22167969 C84.70370211 45.72111537 90.86082427 29.25282921 97.05078125 12.796875 C97.3209758 12.07782486 97.59117035 11.35877472 97.86955261 10.61793518 C99.20937254 7.06181385 100.58844124 3.5288969 102 0 C113.55 0 125.1 0 137 0 C138.29292969 3.56425781 139.58585938 7.12851562 140.91796875 10.80078125 C142.67375107 15.63828531 144.43038284 20.47548064 146.1875 25.3125 C146.41391678 25.93578815 146.64033356 26.55907631 146.87361145 27.20125198 C154.49106911 48.16834022 162.17931298 69.10778007 170 90 C173.58885057 81.6211113 176.38779722 73.00114775 179.20744896 64.34278679 C180.05769947 61.73211344 180.91204793 59.12281185 181.76741028 56.5138092 C183.57773066 50.98955499 185.3829104 45.46362845 187.1875 39.9375 C189.28998998 33.49995196 191.39457967 27.06310392 193.50414467 20.62787056 C194.34698703 18.05325274 195.18615961 15.47745749 196.02519226 12.90159607 C196.53769726 11.33660241 197.05036805 9.77166303 197.56323242 8.20678711 C197.79647217 7.48738449 198.02971191 6.76798187 198.27001953 6.02677917 C199.88616879 1.11383121 199.88616879 1.11383121 201 0 C203.8843382 -0.08865208 206.74462158 -0.11521296 209.62890625 -0.09765625 C210.92525246 -0.09553383 210.92525246 -0.09553383 212.24778748 -0.09336853 C215.01939292 -0.08775239 217.7909188 -0.07519719 220.5625 -0.0625 C222.4368478 -0.05748708 224.31119685 -0.05292381 226.18554688 -0.04882812 C230.79039544 -0.03777772 235.39518421 -0.0205023 240 0 C237.49662759 9.99561521 234.16170865 19.69520161 230.85546875 29.4453125 C230.24284894 31.25942381 229.63049426 33.07362467 229.01838684 34.88790894 C227.40404647 39.67018447 225.78577204 44.45111995 224.16674805 49.23181152 C222.88799376 53.00989121 221.61204874 56.78891639 220.33625603 60.56799698 C216.55422335 71.77081993 212.76090718 82.96978979 208.96123505 94.16664124 C207.98414976 97.04672052 207.00791098 99.92708572 206.03179932 102.80749512 C204.42890939 107.53643626 202.82293081 112.26431847 201.21471596 116.99145126 C200.61411075 118.75806398 200.01438189 120.52497491 199.41560936 122.29220963 C198.58604917 124.73980051 197.75304023 127.18619227 196.91918945 129.63232422 C196.68185656 130.33495266 196.44452366 131.0375811 196.19999886 131.76150131 C194.31513666 137.27222873 192.17204046 142.56989886 190 148 C177.79 148 165.58 148 153 148 C151.87464844 144.86628906 150.74929687 141.73257813 149.58984375 138.50390625 C148.03960633 134.1899086 146.48855 129.87620556 144.9375 125.5625 C144.53549377 124.44407715 144.13348755 123.3256543 143.71929932 122.17333984 C139.33421714 109.97706411 134.93546477 97.78631308 130.46484375 85.62109375 C129.93953316 84.1909066 129.93953316 84.1909066 129.40361023 82.73182678 C127.74779522 78.22639466 126.08757107 73.72264498 124.42163086 69.22094727 C123.83048975 67.61607641 123.23942091 66.01117893 122.6484375 64.40625 C122.37744736 63.67840805 122.10645721 62.9505661 121.82725525 62.20066833 C120 57.22649243 120 57.22649243 120 55 C119.34 55 118.68 55 118 55 C117.91331055 55.7731958 117.82662109 56.5463916 117.73730469 57.34301758 C116.74188339 62.2802413 114.98608992 66.81008067 113.203125 71.51171875 C112.81754425 72.5417955 112.4319635 73.57187225 112.03469849 74.63316345 C110.77820934 77.98653921 109.51419897 81.33702408 108.25 84.6875 C107.38569731 86.98922044 106.52193044 89.29114215 105.65869141 91.59326172 C104.35629508 95.06601326 103.05340357 98.53857172 101.74832153 102.01031494 C99.10614071 109.03981647 96.48264728 116.07582419 93.8828125 123.12109375 C93.42461121 124.36166786 93.42461121 124.36166786 92.95715332 125.62730408 C91.81893659 128.70977961 90.68102164 131.79235615 89.54748535 134.8765564 C88.79187106 136.93162101 88.03301426 138.98545989 87.2734375 141.0390625 C86.85497559 142.17553223 86.43651367 143.31200195 86.00537109 144.48291016 C85 147 85 147 84 148 C81.26129758 148.08857875 78.54725017 148.11530707 75.80859375 148.09765625 C75.08224731 148.09664917 74.35590088 148.09564209 73.60754395 148.09460449 C70.88415819 148.08935712 68.16086101 148.07543168 65.4375 148.0625 C62.14852152 148.05055047 58.85953909 148.03984794 55.57055664 148.02905273 C53.93656915 148.02353349 52.30258172 148.01799604 50.66859436 148.01243591 C49.45795822 148.00833206 48.24732208 148.00422821 47 148 C39.10443926 124.44237996 31.3373187 100.8461721 23.69171143 77.20629883 C22.18134371 72.53768951 20.66857257 67.86985833 19.15612221 63.20192337 C17.91269831 59.36369258 16.67036994 55.52511412 15.43051147 51.68572998 C13.16920435 44.68522872 10.9012303 37.68718942 8.60412121 30.69833946 C7.56549813 27.53709838 6.53107591 24.37448995 5.49698067 21.21176529 C5.00593364 19.71402176 4.51279003 18.21696381 4.01743889 16.72063828 C3.33519947 14.65936208 2.66013797 12.59586208 1.98657227 10.53173828 C1.40928123 8.7785881 1.40928123 8.7785881 0.82032776 6.99002075 C0 4 0 4 0 0 Z " fill="#341954" transform="translate(0,396)"/>
<path d="M0 0 C14.26963198 12.37822273 23.93204581 30.06895659 26.25 48.875 C27.21225594 66.40311946 26.69930565 83.07479843 18.25 98.875 C17.78078125 99.79410156 17.3115625 100.71320313 16.828125 101.66015625 C7.76691554 118.38024514 -6.47546626 131.04120654 -24.75 136.875 C-42.02065098 141.71977608 -61.50834735 140.19125775 -77.25 131.5625 C-82.4234695 128.49261077 -85.21141071 125.41358929 -89.75 120.875 C-90.08 150.245 -90.41 179.615 -90.75 209.875 C-103.29 209.875 -115.83 209.875 -128.75 209.875 C-128.75 136.615 -128.75 63.355 -128.75 -12.125 C-116.21 -12.125 -103.67 -12.125 -90.75 -12.125 C-90.255 -3.71 -90.255 -3.71 -89.75 4.875 C-87.708125 2.6165625 -87.708125 2.6165625 -85.625 0.3125 C-62.30514705 -22.94147766 -24.55489766 -18.79553262 0 0 Z M-83.88671875 35.3359375 C-90.83972804 44.8106881 -93.89592819 55.12520111 -92.75 66.875 C-90.05816938 79.54967673 -84.41701934 89.34244326 -73.75 96.875 C-63.92014197 102.42322519 -53.62549463 104.17808272 -42.5625 101.8125 C-32.47930773 98.87267745 -23.54665063 93.15306432 -18.05859375 84.078125 C-11.70794655 72.0195467 -10.02507762 61.14312031 -13.65625 47.9296875 C-17.42185547 37.41288937 -24.45619967 29.79541768 -34.25 24.53125 C-51.56063718 16.55924603 -71.34233218 20.88810653 -83.88671875 35.3359375 Z " fill="#341954" transform="translate(466.75,408.125)"/>
<path d="M0 0 C1.51803756 1.31276036 3.01935951 2.64520056 4.5 4 C5.18191406 4.59039062 5.86382813 5.18078125 6.56640625 5.7890625 C21.57970661 19.5977732 27.83923121 38.7954733 29.75 58.58984375 C29.81485791 60.76663737 29.70790646 62.83183263 29.5 65 C29.4071875 66.0415625 29.314375 67.083125 29.21875 68.15625 C27.19619326 85.73693551 20.06615169 100.74569204 8.5 114 C7.98050781 114.61488281 7.46101562 115.22976563 6.92578125 115.86328125 C-1.25288755 124.82479492 -13.12996772 131.16487007 -24.5 135 C-25.43328125 135.31839844 -26.3665625 135.63679687 -27.328125 135.96484375 C-48.19991279 141.89308714 -70.15059089 138.2277778 -88.92578125 128.0859375 C-93.49714352 125.49394033 -97.53241091 122.43514207 -101.5 119 C-102.49 118.278125 -103.48 117.55625 -104.5 116.8125 C-116.57532792 106.4765545 -123.58146022 90.2698001 -126.5 75 C-126.726875 73.88625 -126.95375 72.7725 -127.1875 71.625 C-129.08836341 49.57498447 -124.40774414 28.9013111 -110.40234375 11.375 C-82.70413659 -20.67089752 -33.78361623 -26.24170802 0 0 Z M-78.5 34 C-80.91930752 37.17118534 -82.78212071 40.40549349 -84.5 44 C-84.83902344 44.67289062 -85.17804687 45.34578125 -85.52734375 46.0390625 C-89.24490176 54.91323323 -88.89435705 67.00442885 -85.875 76.0625 C-81.44981594 86.28993589 -73.94629927 94.21532155 -63.8125 98.875 C-53.62228445 102.75087544 -43.64193914 103.16195132 -33.5 99 C-23.5355095 94.02488242 -14.83616559 86.45915661 -10.6875 75.875 C-6.96997532 64.5912192 -7.61728054 53.04781853 -12.7890625 42.328125 C-18.85189359 31.62901132 -26.6441884 25.33268681 -38.39453125 21.359375 C-53.8273391 18.72520372 -67.40318733 22.68560277 -78.5 34 Z " fill="#341954" transform="translate(754.5,409)"/>
<path d="M0 0 C11.82382066 8.80175787 19.74672167 20.25095415 22.4453125 34.8203125 C24.08500295 50.86887073 21.40056791 64.79093937 11.4453125 77.8203125 C2.84275501 88.1219198 -9.28616788 94.715789 -22.5546875 96.8203125 C-38.69111359 97.86787075 -53.21754445 94.24709838 -65.8046875 83.7578125 C-75.94870039 74.07117861 -81.8805865 61.52814763 -82.7578125 47.59375 C-82.9856376 31.07643029 -78.41286034 18.18195218 -66.97265625 6.109375 C-48.65865721 -11.22827191 -21.23626225 -13.58847648 0 0 Z " fill="#4B5F9B" transform="translate(1177.5546875,428.1796875)"/>
<path d="M0 0 C1.71039816 4.39931888 -0.12497566 7.87573198 -1.74609375 12.046875 C-2.03605728 12.81807678 -2.32602081 13.58927856 -2.62477112 14.3838501 C-3.55215696 16.84323343 -4.49458027 19.29653583 -5.4375 21.75 C-6.06935912 23.41759028 -6.70023057 25.08555516 -7.33007812 26.75390625 C-8.87529675 30.84037056 -10.43402534 34.92144699 -12 39 C-14.00901626 38.51801278 -15.8889772 38.0465813 -17.796875 37.24609375 C-26.49993001 33.64302898 -37.70218684 33.38705681 -46.5625 36.625 C-53.87308005 40.15127979 -58.18217152 44.21390531 -61.2734375 51.75390625 C-62.97073089 57.0009154 -63.16567612 62.07394271 -63.20532227 67.55395508 C-63.21522186 68.40324585 -63.22512146 69.25253662 -63.23532104 70.12756348 C-63.26681909 72.92485805 -63.2916471 75.72216959 -63.31640625 78.51953125 C-63.33698588 80.46295097 -63.35798262 82.40636632 -63.37937927 84.34977722 C-63.4344957 89.45755463 -63.48395088 94.56537174 -63.53222656 99.67321777 C-63.59136456 105.80568521 -63.65753503 111.93808032 -63.72252655 118.07048798 C-63.82040482 127.38028103 -63.90935067 136.69012111 -64 146 C-76.54 146 -89.08 146 -102 146 C-102 97.16 -102 48.32 -102 -2 C-89.46 -2 -76.92 -2 -64 -2 C-63.505 6.415 -63.505 6.415 -63 15 C-62.195625 13.824375 -61.39125 12.64875 -60.5625 11.4375 C-53.07986138 1.58274284 -44.06808956 -2.28057108 -32.1875 -4.8125 C-21.68061881 -5.68444035 -9.50755776 -4.84608527 0 0 Z " fill="#341955" transform="translate(622,398)"/>
<path d="M0 0 C9.92187872 7.88811149 16.92501995 18.88583035 18.7890625 31.58203125 C19.99509895 45.40678237 17.47582646 58.35701578 9.02734375 69.6328125 C-0.03076742 80.33640065 -11.86067119 86.47216826 -25.8125 87.9375 C-39.95137869 88.57243322 -52.08425872 84.47096964 -62.75 75.3125 C-73.01504452 65.54040959 -77.79266262 53.77825882 -78.1875 39.6875 C-77.98452581 26.403967 -72.80053257 14.31445683 -63.77734375 4.609375 C-46.09916608 -12.31236717 -20.09803014 -13.69923617 0 0 Z " fill="#294B87" transform="translate(1162,319)"/>
<path d="M0 0 C11.43836309 8.34533634 19.45238411 19.79053043 22.046875 33.80078125 C23.39189888 46.80267874 21.16614412 59.647023 13.421875 70.42578125 C5.20144938 80.34881929 -5.41921088 88.2185068 -18.61132812 89.64575195 C-33.47025607 90.45441267 -45.87134767 88.18142903 -57.578125 78.42578125 C-58.28710938 77.85214844 -58.99609375 77.27851562 -59.7265625 76.6875 C-68.7303444 68.63239243 -73.88938637 56.54519092 -74.7890625 44.6328125 C-75.26317579 30.53705979 -70.76912384 18.12857055 -61.578125 7.42578125 C-45.00366957 -8.42804568 -19.83676363 -12.11244809 0 0 Z " fill="#736EA7" transform="translate(1158.578125,544.57421875)"/>
<path d="M0 0 C8.34622215 7.21719552 14.65372961 15.80786634 16.28125 26.97265625 C17.25022182 42.50797494 14.63472557 53.51470612 4.76171875 65.875 C-2.41885109 73.85923459 -13.07576265 78.31871081 -23.640625 79.22265625 C-35.68207798 79.68357311 -46.31858901 76.57790461 -55.71875 68.97265625 C-56.63914062 68.25529297 -56.63914062 68.25529297 -57.578125 67.5234375 C-64.02889417 61.85760706 -68.95594437 52.3899276 -70.71875 43.97265625 C-71.59621329 29.45855034 -70.29172342 17.59241241 -60.71875 5.97265625 C-44.51059518 -11.23100904 -19.27128719 -14.73502641 0 0 Z " fill="#99558E" transform="translate(1115.71875,657.02734375)"/>
<path d="M0 0 C8.37426914 7.64922419 14.33821011 17.00126719 15.04296875 28.5546875 C15.37935048 42.37349029 13.6167206 53.23408158 3.8046875 63.6484375 C-4.05330707 71.848084 -13.12516137 77.16883995 -24.61328125 77.8515625 C-38.82986624 78.02834905 -49.80654695 74.83112303 -60.4453125 64.9609375 C-70.22657566 54.62527076 -72.81901481 42.83749466 -72.50390625 29.1015625 C-71.91559625 17.49159418 -65.75070399 7.71584787 -57.4453125 -0.1640625 C-40.73102803 -13.84525288 -16.6635858 -13.62127138 0 0 Z " fill="#1E3C6F" transform="translate(1117.1953125,218.3515625)"/>
<path d="M0 0 C13.2 0 26.4 0 40 0 C40 48.84 40 97.68 40 148 C26.8 148 13.6 148 0 148 C0 99.16 0 50.32 0 0 Z " fill="#341A55" transform="translate(265,396)"/>
<path d="M0 0 C8.78646113 6.39947252 15.40379973 15.64062506 17.46875 26.45703125 C18.39835213 40.65134075 15.8815195 50.42726056 6.875 61.3984375 C-0.17209347 69.09373061 -9.45631371 72.63185528 -19.671875 73.67578125 C-30.74704041 74.15384594 -40.20723398 70.67021671 -48.53125 63.45703125 C-56.98090169 55.34796053 -61.39797201 45.95992498 -61.90625 34.26953125 C-61.61898496 22.73105203 -57.3321938 12.89648646 -49.53125 4.45703125 C-35.81947551 -7.59727599 -15.64295186 -9.53544134 0 0 Z " fill="#184B88" transform="translate(1040.53125,127.54296875)"/>
<path d="M0 0 C9.74886288 7.06509632 15.55730777 16.56179805 17.54296875 28.45703125 C18.69824562 39.21436343 15.54090803 49.83266022 9.1640625 58.53125 C3.47671342 65.28754662 -4.60637882 70.91915193 -13.45703125 72.45703125 C-26.25066939 73.27593149 -37.2766914 72.59987059 -47.61328125 64.1484375 C-55.48145746 56.93038602 -60.95594422 48.82547498 -61.6953125 37.953125 C-62.0317078 25.6731813 -60.01637667 15.78731078 -51.45703125 6.45703125 C-38.06217521 -7.36260881 -16.48423845 -10.35178726 0 0 Z " fill="#AF3278" transform="translate(1040.45703125,749.54296875)"/>
<path d="M0 0 C10.96453731 6.58279842 16.97621151 13.93357211 20.69140625 26.2109375 C22.67452208 36.12651663 20.83894436 45.9460664 15.7265625 54.57421875 C13.51470775 57.8655116 11.0575006 60.60137446 8.1015625 63.26171875 C7.3590625 63.94234375 6.6165625 64.62296875 5.8515625 65.32421875 C-3.71065145 72.06123312 -14.17379675 73.71994482 -25.65625 71.80078125 C-36.79706056 68.83222671 -45.4512663 61.54674126 -51.2109375 51.63671875 C-55.36468337 42.48409257 -55.92471332 31.78516494 -52.8984375 22.26171875 C-48.60454357 11.32595894 -42.45254272 4.45832849 -31.8984375 -0.73828125 C-22.49538166 -4.62965888 -9.15390194 -4.48258085 0 0 Z " fill="#4B5F9B" transform="translate(1040.8984375,437.73828125)"/>
<path d="M0 0 C8.32893059 6.36816152 13.73925744 14.5241679 15.65625 24.95703125 C16.55444489 35.12588058 15.05271648 44.82492714 8.890625 53.09765625 C1.23231297 62.04995893 -6.33906257 66.81535447 -18.125 68.43359375 C-29.68373185 68.77476057 -39.18214571 65.80376427 -48.0859375 58.41015625 C-55.93615863 50.80055493 -59.19607725 41.72285136 -59.5 30.93359375 C-59.15917875 19.73892656 -55.6755567 11.78516603 -48.125 3.43359375 C-34.22419218 -8.29744818 -15.31410906 -10.4049491 0 0 Z " fill="#3367A3" transform="translate(949.125,60.56640625)"/>
<path d="M0 0 C9.07642422 6.49899688 14.15589203 13.89748502 16.55859375 24.78515625 C18.13070747 36.23515265 15.50922174 46.42741753 8.8125 55.75 C1.93508014 64.03216945 -6.70618731 68.31302462 -17.359375 69.31640625 C-28.47273829 69.69251352 -37.35286123 67.2518066 -45.9296875 60.04296875 C-54.0038024 52.0754931 -58.01379903 43.29836621 -58.375 32 C-58.04773202 21.35015451 -54.48787291 12.74920019 -47.11328125 5.0234375 C-34.23082344 -6.87195577 -15.19288741 -9.24103461 0 0 Z " fill="#BD2569" transform="translate(948,821)"/>
<path d="M0 0 C6.36202976 6.03606003 10.61708111 13.77413057 11.5234375 22.57421875 C11.65543903 34.15075251 9.32778409 43.75957478 1.1875 52.3125 C-7.01002527 59.79571809 -15.75188437 62.50461987 -26.8125 62.3125 C-37.14085514 61.08355648 -45.55872914 56.63302852 -52.1875 48.5625 C-58.0782756 39.8434827 -60.05666573 30.73556187 -58.8125 20.3125 C-56.46685732 10.23150757 -51.34671342 2.50112698 -42.890625 -3.4375 C-29.30472492 -11.60946997 -12.12355874 -10.042948 0 0 Z " fill="#4B8DCB" transform="translate(844.8125,20.6875)"/>
<path d="M0 0 C9.29057267 5.46408899 14.41624372 11.64613572 18.61328125 21.56640625 C20.50013419 32.88752389 20.0077078 43.36897518 13.390625 53.0078125 C7.47561585 60.2110269 -0.45217026 65.60052869 -9.76171875 67.31640625 C-20.7663249 68.31385198 -30.34708999 66.08292697 -38.984375 59 C-46.80854029 51.58853793 -50.87753485 42.61197383 -51.26171875 31.81640625 C-50.92067437 22.2330591 -47.7289674 13.09767085 -40.76171875 6.31640625 C-28.96400609 -2.58022952 -14.00310822 -6.75444044 0 0 Z " fill="#D4515B" transform="translate(836.76171875,864.68359375)"/>
<path d="M0 0 C6.22290823 4.97580718 10.40449273 12.57105783 11.75 20.375 C12.63505093 29.97227107 11.46738038 38.19695935 5.76171875 46.14453125 C-0.67924656 53.74242297 -7.42488422 57.81454043 -17.25 59.375 C-27.55533521 60.20607542 -36.28553922 56.88998994 -44.25 50.375 C-51.28816241 43.69028243 -54.28785989 35.93467746 -54.5625 26.25 C-54.46930632 17.60628651 -51.41415292 8.61737822 -45.25 2.375 C-31.32842075 -8.90627974 -15.10013074 -10.02876608 0 0 Z " fill="#E0644E" transform="translate(728.25,885.625)"/>
<path d="M0 0 C2.95306523 2.09444291 5.4941031 4.39291486 8 7 C9.11375 8.1446875 9.11375 8.1446875 10.25 9.3125 C15.78939347 17.81942568 17.12413195 25.91757944 16 36 C13.82769623 45.33190849 8.21085068 51.93668282 0.5 57.375 C-7.72135814 62.45980638 -16.44326634 63.33099907 -25.8671875 61.41796875 C-34.55698916 58.72240704 -42.2049344 53.02136058 -46.5 44.875 C-47.03343156 43.59677719 -47.5362029 42.30510346 -48 41 C-48.4125 39.88625 -48.825 38.7725 -49.25 37.625 C-51.28625533 27.78309922 -49.7650342 19.44957041 -44.6796875 10.73828125 C-34.25889259 -4.20958031 -16.2147238 -8.51833416 0 0 Z " fill="#736EA7" transform="translate(1030,525)"/>
<path d="M0 0 C7.71609789 6.43797125 12.99681688 13.42077365 14.03515625 23.6875 C14.29973996 34.36287768 12.56593379 41.89960099 5.7109375 50.171875 C-1.38734194 57.46199983 -8.93392573 60.25704288 -19 60.6875 C-28.26043905 60.52020195 -35.88883377 57.88503262 -42.75 51.5625 C-49.49382515 44.14429233 -52.68855008 35.66331996 -52.5234375 25.70703125 C-51.75602935 16.76814746 -47.97776817 8.59287159 -41.390625 2.4609375 C-29.37308387 -6.99472471 -12.95413323 -9.26356755 0 0 Z " fill="#294B87" transform="translate(1032.3125,362.75)"/>
<path d="M0 0 C6.74438652 5.273806 11.61120312 13.03067406 12.828125 21.5625 C13.71803892 32.85756124 11.13193544 41.80781977 3.828125 50.5625 C-3.88904568 57.89620878 -11.72822128 60.06989661 -22.16796875 59.98217773 C-31.21153263 59.653609 -37.86192791 56.73597533 -44.41796875 50.55078125 C-51.04875186 43.03392467 -53.6480228 34.23398157 -53.41796875 24.328125 C-52.64706319 15.66461488 -48.58658861 7.75784896 -42.28515625 1.76953125 C-30.02703508 -7.98398363 -13.08919032 -8.66334899 0 0 Z " fill="#3398B3" transform="translate(727.171875,5.4375)"/>
<path d="M0 0 C6.23909451 4.914594 10.26363879 11.70459236 11.78515625 19.52734375 C12.61856125 28.66274476 11.07994797 36.73417592 5.72265625 44.27734375 C1.19873197 49.70605289 -5.12424437 54.30844219 -12.21484375 55.52734375 C-22.81012659 56.34133903 -31.46138681 55.43893933 -40.02734375 48.83984375 C-46.76547451 42.54668389 -50.19070538 33.75560647 -50.52734375 24.65234375 C-50.27369709 15.33787471 -46.83887347 8.08981185 -40.21484375 1.52734375 C-27.92723803 -7.48986845 -12.97134307 -8.6246849 0 0 Z " fill="#F57E29" transform="translate(612.21484375,871.47265625)"/>
<path d="M0 0 C7.98329407 5.5704328 11.98247381 12.17547642 13.84375 21.7109375 C14.95342044 30.29058459 12.97977232 38.05025917 8.1484375 45.23046875 C2.62225464 51.97599155 -3.34959872 56.31474008 -12.15234375 57.21875 C-22.71104022 57.85639563 -31.00437775 55.84495452 -39.3046875 48.91796875 C-45.20946033 42.87616533 -48.27677247 35.0615495 -48.59375 26.6484375 C-48.10742858 17.04358942 -44.9469887 9.56944804 -38.15625 2.7109375 C-27.28743619 -6.0439027 -12.00453183 -7.17662229 0 0 Z " fill="#09A496" transform="translate(610.15625,21.2890625)"/>
<path d="M0 0 C7.56647561 4.85955929 11.20794078 11.62382235 14 20 C14.83770813 30.56061566 13.67405464 38.38085761 7.875 47.25 C0.89097364 53.93037304 -6.97500403 57.92862849 -16.69140625 58.02734375 C-25.51661564 57.54864672 -32.87207888 54.77069303 -39.4296875 48.77734375 C-46.19654402 41.11833948 -47.6515397 32.92700347 -47.40234375 22.96875 C-46.59693795 15.02416462 -43.00810234 8.54293671 -37.3125 3 C-26.09369579 -5.72336677 -12.46675787 -6.37526161 0 0 Z " fill="#1E3C6F" transform="translate(998,287)"/>
<path d="M0 0 C7.54418258 4.30487255 12.33831374 10.97587873 15.07421875 19.18359375 C15.86513916 30.72325217 15.30512184 39.11745963 7.88671875 48.43359375 C2.5682268 54.17618958 -3.99478488 57.77601817 -11.80859375 58.421875 C-23.17148238 58.68198932 -30.70310232 56.20807415 -39.01171875 48.33984375 C-45.25324325 41.30857534 -46.30147982 33.7022257 -46.19921875 24.5703125 C-45.48340752 15.70447909 -41.30455696 9.18714736 -34.92578125 3.18359375 C-25.00052213 -4.51354597 -11.30773295 -5.40154516 0 0 Z " fill="#99558E" transform="translate(996.92578125,602.81640625)"/>
<path d="M0 0 C7.90507364 4.46141722 12.21745382 10.57082985 14.828125 19.30078125 C16.5520456 27.99003759 14.53747379 36.21979048 9.671875 43.5859375 C4.69939533 49.70766305 -1.77451164 53.72291488 -9.71875 54.55859375 C-19.57472183 54.92118803 -27.17749213 53.113677 -34.7578125 46.5390625 C-40.13362727 40.70095408 -42.42076311 33.89601255 -43.03515625 26.0625 C-42.44152692 17.0096527 -39.49721436 9.50902399 -32.78515625 3.25 C-22.64442895 -3.95095569 -11.3519337 -5.29879563 0 0 Z " fill="#184B88" transform="translate(944.78515625,222.75)"/>
<path d="M0 0 C6.11906736 4.59319306 9.79497376 11.50435265 11.22265625 18.90234375 C12.2220391 26.97428213 10.19885842 34.49697519 5.64453125 41.23828125 C1.21792891 46.60204715 -3.79926875 50.57492634 -10.77734375 51.90234375 C-20.02605306 52.66400216 -28.08291308 52.68364012 -35.77734375 46.90234375 C-42.91244768 40.43065556 -46.27552057 33.30058928 -47.02734375 23.71484375 C-46.34473367 13.30504004 -42.48305211 6.91569229 -34.77734375 -0.09765625 C-24.22819649 -7.89127576 -10.79511405 -6.66687263 0 0 Z " fill="#AF3278" transform="translate(948.77734375,672.09765625)"/>
<path d="M0 0 C5.57633319 4.34252411 9.60770878 10.73837938 10.92578125 17.71484375 C11.87617146 27.46802849 9.91978939 35.30263844 3.80078125 43.02734375 C-2.45054197 49.52924744 -8.63399296 51.99797989 -17.63671875 52.27734375 C-26.95112979 51.93932077 -33.44710827 49.18783539 -40.07421875 42.71484375 C-46.46818914 34.36716019 -47.07432625 25.96062587 -46.07421875 15.71484375 C-43.90025087 7.83157188 -38.73613322 2.2615186 -32.07421875 -2.28515625 C-21.58671712 -7.74012645 -9.85187643 -6.10408163 0 0 Z " fill="#00AA74" transform="translate(505.07421875,68.28515625)"/>
<path d="M0 0 C5.9914184 4.5257066 9.61667683 11.42308888 11.0703125 18.75 C12.06863654 27.01481379 9.88249964 35.44977695 4.8203125 42.125 C-1.68598492 48.33555663 -8.60085093 51.68108212 -17.6796875 52.125 C-25.62885812 51.90754548 -32.50930208 49.50739906 -38.3671875 44.0625 C-45.21227883 36.38812656 -46.61391776 29.59641466 -46.31640625 19.34765625 C-45.50686814 11.81649864 -42.34710418 6.04702964 -36.9296875 0.75 C-25.05511791 -7.10253795 -12.11761625 -7.84946802 0 0 Z " fill="#F89827" transform="translate(504.9296875,829.25)"/>
<path d="M0 0 C5.89836058 4.74904768 9.31563739 10.10553501 10.875 17.5234375 C11.44924287 25.84995911 10.0602219 33.29906677 4.6875 39.8984375 C0.08517452 44.73527638 -6.00039533 48.14565839 -12.7265625 48.76171875 C-21.26078822 48.97121525 -26.74290215 47.31204522 -33.875 42.7734375 C-40.45462171 36.19381579 -42.48020309 29.62225558 -42.50561523 20.4296875 C-42.32751978 12.96936743 -40.31873521 7.67020602 -35 2.4296875 C-24.85261339 -5.93505011 -11.13919657 -7.7401035 0 0 Z " fill="#FEC126" transform="translate(412.125,760.4765625)"/>
<path d="M0 0 C7.29305401 5.63706239 11.67535581 11.50346204 13.08203125 20.828125 C13.4659052 28.71611544 10.80866995 35.12800961 6.515625 41.62890625 C0.0109396 47.84449452 -7.10458542 50.72270545 -16.12890625 50.51953125 C-24.68199746 49.71816054 -30.68154768 45.69541809 -36.296875 39.31640625 C-41.19591316 32.46828839 -41.34934893 24.44999862 -40.296875 16.31640625 C-37.71016572 7.78942211 -32.64021946 3.03099654 -25.296875 -1.55859375 C-17.75895756 -4.41308856 -6.92394182 -4.31993761 0 0 Z " fill="#BE2669" transform="translate(879.296875,722.68359375)"/>
<path d="M0 0 C6.47750306 4.28453236 11.0416529 9.72098663 12.99609375 17.3203125 C14.15176097 26.00962168 13.20055568 33.15000055 7.99609375 40.3203125 C2.79574931 46.18594621 -2.83318896 49.78280016 -10.671875 50.59765625 C-20.06257691 50.92147356 -26.34173027 48.67826414 -33.2421875 42.29296875 C-38.64836404 36.23948948 -40.38230419 29.24628681 -40.27734375 21.30078125 C-39.59332405 13.84496654 -36.54238624 7.77742569 -30.96875 2.79296875 C-21.94915906 -3.96724156 -10.15293477 -5.3279621 0 0 Z " fill="#3367A3" transform="translate(879.00390625,174.6796875)"/>
<path d="M0 0 C2.79844294 2.03945565 4.9082274 4.24886429 7 7 C7.433125 7.56203125 7.86625 8.1240625 8.3125 8.703125 C12.31881789 15.10210497 11.87316427 22.74660909 11 30 C8.4706952 38.5392016 3.31994723 43.35513435 -4.0625 47.875 C-11.37512025 50.60899766 -20.38835861 50.19043708 -27.4375 47 C-34.55457042 42.83276798 -39.36368579 37.20874224 -41.56640625 29.21875 C-43.08364567 21.45485818 -41.64856413 14.71987711 -37.78125 7.828125 C-33.77182845 1.90309094 -28.45243351 -1.93632523 -21.44921875 -3.609375 C-13.52136303 -4.8737858 -7.16406599 -3.62480354 0 0 Z " fill="#4EBA69" transform="translate(411,139)"/>
<path d="M0 0 C5.92898929 4.01965376 9.77718544 9.34478194 11.43359375 16.36328125 C12.74808684 24.49999351 11.12828653 32.13329974 6.31640625 38.90234375 C0.44966654 45.24660878 -6.03257348 47.96059266 -14.61328125 48.34375 C-21.92433022 48.08752165 -27.54049204 46.02374313 -33.01953125 41.13671875 C-39.2766279 34.34286135 -40.77001783 28.10101234 -40.51953125 19 C-39.74622493 11.7590408 -36.62428675 6.21548627 -31.296875 1.2890625 C-21.41651799 -5.73454304 -10.36339827 -5.80499149 0 0 Z " fill="#4B5F9B" transform="translate(942.17578125,450.21875)"/>
<path d="M0 0 C5.00194858 3.55120549 8.3183572 7.69944951 10.1953125 13.55859375 C11.00307524 21.42019153 11.29943563 29.14608976 6.1953125 35.55859375 C0.68888309 41.69894618 -5.16696586 45.21966914 -13.46875 45.71875 C-20.67356121 45.46505946 -26.28107235 43.19643999 -31.8046875 38.55859375 C-37.08396643 32.12636884 -38.22168937 26.20555347 -38.1484375 17.9921875 C-37.50076857 11.52285812 -34.76704003 6.00331902 -29.9296875 1.62109375 C-20.27789827 -4.74908714 -10.34882868 -5.87320985 0 0 Z " fill="#D4515B" transform="translate(802.8046875,756.44140625)"/>
<path d="M0 0 C5.67117266 3.2721839 9.58332326 7.46549118 11.9921875 13.6953125 C13.63951066 20.76613039 13.71602135 28.75811854 9.8828125 35.09765625 C5.39103096 40.87099128 0.38241232 44.77939692 -6.78125 46.5703125 C-13.17679052 47.28705411 -19.1530011 46.04849945 -24.875 43.1875 C-30.58679821 38.15567777 -35.02964755 33.45273253 -35.8359375 25.60546875 C-35.92983204 17.08923427 -35.6177288 11.19904506 -29.62890625 4.91015625 C-21.19370173 -2.88722563 -10.73055533 -5.00330241 0 0 Z " fill="#736EA7" transform="translate(931.5,507.125)"/>
<path d="M0 0 C5.04293383 3.5226376 8.71320204 8.42450375 10.125 14.484375 C10.92636313 22.12664294 11.0373546 29.24472681 6.125 35.484375 C0.3349819 41.57658611 -5.00475164 44.76355164 -13.4140625 45.50390625 C-20.93269334 45.44423458 -26.82366626 42.5916929 -32.18359375 37.4375 C-36.66643495 32.26100901 -38.99143005 26.35374781 -38.875 19.484375 C-37.92689966 10.92229962 -34.33480387 5.12257516 -27.64453125 -0.2578125 C-19.4832538 -6.05898543 -8.29555128 -4.73271836 0 0 Z " fill="#294B87" transform="translate(933.875,394.515625)"/>
<path d="M0 0 C5.49752504 4.69154216 9.31185521 9.39824529 10.15625 16.7578125 C10.32229732 25.54855315 9.39139697 31.49959803 3.36328125 38.07421875 C-2.84844249 43.73490248 -8.97610431 45.17516434 -17.1484375 44.9296875 C-24.11675906 44.00649585 -29.38337742 41.04762644 -33.71484375 35.5234375 C-38.57898898 28.5100188 -39.00579094 21.88922504 -38.21484375 13.5234375 C-36.48354545 6.85026873 -31.81386451 2.29928958 -26.21484375 -1.4765625 C-17.70592154 -6.01153752 -7.88912963 -5.60500791 0 0 Z " fill="#4B8DCA" transform="translate(803.21484375,146.4765625)"/>
<path d="M0 0 C6.2327108 4.16298042 9.92607137 9.55131125 11.69140625 16.8125 C12.84661152 24.6488409 11.22584405 30.59250184 6.859375 37.18359375 C2.07401917 43.06602897 -3.81470191 45.17265226 -11.1953125 46.22265625 C-18.33800895 46.64101418 -23.60793711 44.65941412 -29.13671875 40.16796875 C-34.24566455 35.08128415 -37.05759272 29.40907882 -37.1796875 22.1953125 C-37.10034373 14.68740866 -35.24251648 8.84743659 -29.9296875 3.3828125 C-21.0267727 -3.39114442 -10.18550727 -5.22052882 0 0 Z " fill="#FED626" transform="translate(338.9296875,669.6171875)"/>
<path d="M0 0 C5.77795923 4.89988287 9.22566399 10.6667607 10.3125 18.15234375 C10.70628471 25.15432811 8.74958554 31.62320486 4.3046875 37.08203125 C-1.09653116 42.27551073 -7.08215373 44.82862051 -14.578125 45.08984375 C-22.07436762 44.64144887 -28.1182647 42.31302928 -33.3125 36.8125 C-37.84658698 31.04296697 -39.78167561 24.295639 -39 17 C-37.58458355 9.97392375 -34.53896617 4.60368108 -29 0 C-19.41003279 -5.62717084 -9.58851636 -5.6421683 0 0 Z " fill="#7DC45E" transform="translate(340,232)"/>
<path d="M0 0 C4.97725721 2.97793613 8.40745897 7.07491608 10.9375 12.25 C12.34706155 19.43876393 12.60637418 27.05914956 8.5625 33.4375 C2.67709221 40.06298901 -2.46119131 42.95592174 -11.3125 43.8125 C-17.17603264 43.6083538 -22.16005828 41.51144407 -26.4921875 37.56640625 C-32.11423248 31.39615357 -33.86636837 26.48090242 -33.6875 18.15234375 C-33.09004055 11.66430749 -29.95856655 6.95856655 -25.4375 2.4375 C-18.36577625 -2.98807428 -8.08607897 -3.58519048 0 0 Z " fill="#341954" transform="translate(294.4375,331.5625)"/>
<path d="M0 0 C5.08436397 3.48926939 8.26824942 7.09453594 10 13 C10.97009113 20.35487457 10.60175188 26.97197415 6 33 C1.72874389 37.53441406 -2.50933979 40.58593548 -8.83203125 41.3359375 C-16.50332885 41.43647875 -22.0427899 40.72755058 -27.75 35.3515625 C-33.21614137 29.33355109 -34.47683148 24.06942078 -34.30859375 16.00390625 C-33.67383862 9.82508735 -31.13900973 5.78869856 -26.625 1.625 C-18.70235683 -4.53891688 -8.69885438 -4.85128417 0 0 Z " fill="#3398B3" transform="translate(719,137)"/>
<path d="M0 0 C5.52403285 3.12037931 8.67829671 6.83774743 11.01953125 12.80078125 C12.8124749 19.44370195 11.95058771 25.66821712 8.89453125 31.76953125 C6.04680528 36.13715788 2.43494696 38.87627652 -2.1875 41.1875 C-9.48499 42.59086346 -16.16213963 42.83533273 -22.72265625 39.01171875 C-27.37805767 35.75611912 -30.60831386 32.20378546 -32.4375 26.8125 C-33.25564339 19.16984349 -33.31344142 12.07138387 -28.4375 5.8125 C-20.55239542 -2.53973163 -10.64948285 -5.00966797 0 0 Z " fill="#99548E" transform="translate(908.4375,562.1875)"/>
<path d="M0 0 C4.36762663 2.84772597 7.10674527 6.45958429 9.41796875 11.08203125 C10.79656089 18.2507104 11.12688517 25.07430148 7.37890625 31.546875 C3.8389308 36.27719307 -0.33059586 39.50094281 -5.95703125 41.33203125 C-13.30060486 42.20313102 -19.94231257 41.92362453 -25.95703125 37.33203125 C-30.39488982 33.15172697 -33.48720154 28.93770112 -34.29296875 22.75390625 C-34.39849769 15.53572663 -33.46762512 9.37882533 -28.6015625 3.76953125 C-20.25703332 -3.74725643 -9.88073625 -4.94911214 0 0 Z " fill="#E0644E" transform="translate(718.95703125,768.66796875)"/>
<path d="M0 0 C2.46640093 2.43588875 4.27003604 5.00583161 6 8 C6.680625 9.175625 6.680625 9.175625 7.375 10.375 C9.02355414 17.2989274 8.52201528 23.57357754 5.3359375 29.95703125 C2.05107854 34.9803682 -2.32017686 38.15654863 -8 40 C-15.15140898 40.8698897 -21.43020311 40.9058825 -27.3515625 36.49609375 C-31.91278481 32.3564062 -35.63741245 28.09916937 -36.37109375 21.828125 C-36.53551635 12.96864831 -35.67797374 7.87863749 -29.54296875 1.48046875 C-21.09032314 -6.25849702 -9.41640154 -5.73936868 0 0 Z " fill="#1E3C6F" transform="translate(912,344)"/>
<path d="M0 0 C5.57092157 3.30708265 9.85034151 7.68692929 11.5859375 14.05078125 C12.37352647 21.3739769 10.86156153 26.59811031 6.7734375 32.80078125 C2.42468835 37.27378038 -2.57729526 38.77266681 -8.6015625 39.36328125 C-14.74571118 38.85966251 -20.21351175 36.83725068 -24.3515625 32.11328125 C-28.56844102 25.85185556 -29.11297567 20.46581318 -28.4140625 13.05078125 C-26.38512705 7.28433313 -22.78734546 3.72944481 -17.8515625 0.23828125 C-12.06590079 -1.76040189 -5.79146593 -2.27722689 0 0 Z " fill="#184C88" transform="translate(871.4140625,297.94921875)"/>
<path d="M0 0 C3.94036404 4.63961329 5.28015109 9.5438758 5.03515625 15.515625 C4.1153698 20.9547468 1.85318206 25.80490673 -2.16796875 29.625 C-7.59313364 33.39006443 -13.19375458 34.59195961 -19.6953125 33.54296875 C-25.58827305 31.94216452 -29.75316978 28.82872428 -33.37109375 23.91796875 C-36.20324426 18.1115866 -36.38003067 11.87245978 -34.7890625 5.63671875 C-32.3265841 -0.21026192 -27.91236766 -3.26757051 -22.37109375 -6.08203125 C-14.11378412 -8.89303027 -6.00122138 -5.87998458 0 0 Z " fill="#AF3278" transform="translate(878.37109375,614.08203125)"/>
<path d="M0 0 C4.42386563 3.96386191 7.58422044 8.25798399 8.25 14.25 C8.54859351 20.37116689 7.62273545 24.99505163 4 30 C-0.57172775 34.92243563 -5.17978995 37.06108548 -11.8125 37.375 C-17.70306069 37.23474856 -22.15261357 35.57931188 -26.53515625 31.609375 C-30.84761664 26.83172209 -32.55548149 21.63216954 -32.3828125 15.21875 C-31.40647192 9.55995969 -28.53164533 4.57091829 -24.5625 0.5 C-16.74420716 -4.07656166 -7.90379479 -4.65409404 0 0 Z " fill="#F57E29" transform="translate(637,760)"/>
<path d="M0 0 C4.62463295 2.64398207 7.31777718 6.02690374 10 10.625 C11.68265455 17.35561819 11.43892109 23.54549845 7.953125 29.62109375 C4.55980825 34.32356048 0.3915362 37.12011204 -5.3125 38.375 C-11.86500994 39.01950917 -16.65765714 37.79472711 -22.3125 34.375 C-26.84622005 29.96058837 -29.04373564 24.75548438 -29.75 18.5 C-29.4707197 12.73565467 -27.56537666 7.54175059 -23.37109375 3.5078125 C-16.33610655 -1.90770251 -8.39724089 -3.84740505 0 0 Z " fill="#09A496" transform="translate(634.3125,148.625)"/>
<path d="M0 0 C4.79722713 2.55921188 7.68894675 5.91251445 10.18359375 10.65234375 C11.96623534 16.89158932 10.9669203 21.62908052 7.93359375 27.27734375 C4.42743617 31.32291019 1.54933629 33.96006045 -3.8359375 34.61328125 C-10.49673934 34.69878577 -14.81570818 34.54353593 -20.06640625 30.27734375 C-23.79628559 25.27145306 -25.3255359 20.55044059 -25.06640625 14.27734375 C-23.90222016 8.0422317 -21.19456389 4.83565722 -16.06640625 1.27734375 C-11.14764631 -1.60887076 -5.39123897 -1.88540493 0 0 Z " fill="#00AA74" transform="translate(556.06640625,181.72265625)"/>
<path d="M0 0 C4.82035161 1.65844895 7.96295925 4.34541537 10.5 8.75 C12.86875289 14.32972903 12.83885801 19.48342597 10.9375 25.1875 C7.85901775 29.65626455 4.19825506 33.26724831 -1 35 C-7.88507392 35.73424739 -12.40457816 35.14061216 -18 31 C-22.47873367 26.8844069 -23.70013499 21.9267437 -24 16 C-23.32925241 10.63401931 -21.49730042 7.06718865 -17.4375 3.5 C-11.9326133 -0.76184777 -6.84539569 -0.73772435 0 0 Z " fill="#BE2569" transform="translate(823,645)"/>
<path d="M0 0 C4.06575732 2.78278501 6.44877969 6.51242408 7.7578125 11.203125 C8.37764701 17.50477584 7.50572238 22.01371132 3.7578125 27.203125 C-0.16264789 31.30640478 -4.33664622 33.02119078 -9.9765625 33.328125 C-15.7173783 33.01139034 -19.7344683 31.13059197 -23.6171875 26.890625 C-27.05559758 22.40289086 -28.48518208 18.50447841 -28.2421875 12.828125 C-27.47379364 7.53871609 -25.06567563 3.87160685 -21.2421875 0.203125 C-13.92145325 -4.13508789 -7.25149171 -4.03808558 0 0 Z " fill="#3367A3" transform="translate(827.2421875,266.796875)"/>
<path d="M0 0 C4.67394807 3.260894 8.19592213 7.31548247 9.6875 12.875 C10.19466858 18.35242068 9.39103029 22.07841401 6.6875 26.875 C2.24261427 31.45364387 -1.09307401 34.01894384 -7.5625 34.125 C-12.25797051 34.06370143 -15.39745286 33.67146224 -19.3125 30.875 C-23.6433344 26.34730949 -25.98339671 22.78207903 -26.6875 16.5625 C-26.07601366 10.54955104 -23.850204 5.91822516 -19.25 1.9375 C-13.43092439 -2.14823394 -6.63602832 -2.25374547 0 0 Z " fill="#F89827" transform="translate(557.3125,729.125)"/>
<path d="M0 0 C5.20280184 4.36731542 7.34530714 7.54447672 8.015625 14.359375 C7.88280536 19.04348112 6.28271378 22.7154215 3.640625 26.546875 C-1.68092769 31.48831679 -5.26757416 31.89613864 -12.375 31.828125 C-17.67744909 31.32841776 -20.23202155 28.7961045 -23.671875 24.984375 C-26.9874859 20.19515926 -27.10194141 15.18704236 -26.359375 9.546875 C-24.30484146 4.46595388 -21.46853624 0.77394528 -16.359375 -1.453125 C-10.83016079 -3.14099039 -5.00208055 -3.0807516 0 0 Z " fill="#53659F" transform="translate(862.359375,457.453125)"/>
<path d="M0 0 C3.8210649 4.09399811 5.35790765 7.71391725 6.0625 13.25 C5.34059697 19.12835325 3.34682545 23.21366208 -1 27.25 C-6.83972877 29.95357814 -11.99922176 30.51354932 -18.1875 28.6875 C-22.87481124 25.93025809 -25.64233279 23.57756191 -27.75 18.5 C-28.7201143 12.7763256 -28.37587284 8.74010695 -25.6875 3.5625 C-22.61838563 -0.08725763 -19.52963286 -2.37223351 -15.0625 -4.0625 C-9.63524551 -4.31493044 -4.39605396 -3.32170661 0 0 Z " fill="#D4515B" transform="translate(775.375,671.1875)"/>
<path d="M0 0 C4.90624714 2.27790046 7.5167579 5.21745967 10 10 C11.481485 15.30955575 11.30338716 19.93254825 9 25 C5.38598067 29.51527103 1.73777462 32.31030494 -4.0625 33.125 C-8.7001019 33.26014484 -11.98119246 32.44280458 -16 30 C-20.09265728 25.90734272 -22.93569172 22.00319039 -23.03125 16.0546875 C-22.5552001 9.79463131 -20.04932202 5.94685591 -15.5 1.625 C-10.33499991 -0.77303575 -5.5997712 -0.75381535 0 0 Z " fill="#4C8DCB" transform="translate(770,244)"/>
<path d="M0 0 C4.41051429 2.8219816 6.35889302 6.05120486 7.84375 11.1171875 C8.3969719 16.37279555 7.73510881 19.68377066 4.84375 24.1171875 C0.86691963 28.05159835 -2.2809916 30.26774824 -7.90625 30.4296875 C-14.06720895 30.3586678 -17.01514383 28.08469047 -21.46875 23.9921875 C-24.26452126 19.22902165 -24.96090581 14.21405363 -23.5625 8.83203125 C-21.76434788 4.68543047 -19.47409021 1.758727 -15.27734375 -0.25390625 C-10.22495999 -1.75194269 -4.92980837 -2.01836357 0 0 Z " fill="#E0644F" transform="translate(715.15625,676.8828125)"/>
<path d="M0 0 C4.60011172 4.05247937 7.3278145 7.28120787 7.9375 13.5 C7.50589286 18.76560712 6.06115613 23.00558293 2.15234375 26.70703125 C-2.65139334 29.92087899 -7.76675557 30.17808113 -13.375 29.3125 C-17.94024998 27.92383081 -20.5001938 25.64926026 -22.8125 21.5 C-24.77113521 16.91289331 -25.25720584 13.0844012 -23.71484375 8.23828125 C-21.85850037 3.89074114 -19.73689362 1.01048746 -15.43359375 -1.0625 C-9.95694868 -2.72523854 -5.10596392 -2.55298196 0 0 Z " fill="#3398B3" transform="translate(715.375,238.6875)"/>
<path d="M0 0 C3.3381473 2.78849253 6.73765781 6.47747897 7.203125 10.953125 C7.34235797 17.77554052 6.14511848 21.70165877 1.375 26.8125 C-2.40725819 29.71254412 -6.31189031 30.26999585 -11 30 C-16.89774456 28.32897238 -19.52524841 25.80333308 -23 21 C-24.73045446 17.53909109 -24.34579074 13.79089112 -24 10 C-22.17614658 4.73109013 -19.46204714 2.123433 -15 -1 C-9.75174881 -2.46882316 -5.0644806 -1.94165391 0 0 Z " fill="#FEC126" transform="translate(492,681)"/>
<path d="M0 0 C3.58505585 3.07290502 5.38386851 5.02958084 5.90625 9.83984375 C6.20745921 19.18987956 6.20745921 19.18987956 2.625 23.25 C-0.39906654 26.27406654 -2.5794495 28.00983381 -6.6875 29.25 C-12.61250788 29.25 -17.50649542 28.0705942 -21.8125 23.875 C-24.81477074 18.83118516 -25.89689629 15.19961766 -25.375 9.25 C-23.48241259 3.99281274 -20.81296456 1.41997468 -16.375 -1.75 C-10.74921329 -3.65199714 -5.17226319 -2.68191425 0 0 Z " fill="#746FA6" transform="translate(857.375,496.75)"/>
<path d="M0 0 C4.004793 2.0023965 6.6587028 4.17998877 9 8 C10.77741292 13.33223875 10.68194767 18.10752422 8.5 23.25 C6.03933172 27.66702999 2.77503816 29.57555147 -2 31 C-7.25070862 31.63370621 -10.57177479 30.88797296 -15 28 C-18.7305387 24.22923986 -21.14048097 21.11643269 -21.25 15.75 C-21.18792373 11.45294242 -20.44702079 8.62834118 -18 5 C-12.18140719 -0.25092522 -7.70061453 -0.79398992 0 0 Z " fill="#4FB96A" transform="translate(489,234)"/>
<path d="M0 0 C4.44882489 2.47156938 7.52142549 4.98233083 9.0078125 10.01953125 C9.86881726 15.39623116 9.14251081 19.07798127 6.375 23.875 C3.17603105 27.5538143 1.05876223 29.59322806 -3.89453125 30.11328125 C-9.70627736 30.2829021 -13.08480104 29.87469908 -17.625 25.875 C-18.40875 25.215 -19.1925 24.555 -20 23.875 C-22.62627539 19.02649159 -22.44441213 14.25461877 -21.625 8.875 C-19.89721416 4.67684803 -17.47571495 2.4483079 -13.75 -0.0625 C-8.7035275 -1.77830065 -5.07063898 -1.57364658 0 0 Z " fill="#2D4D88" transform="translate(854.625,420.125)"/>
<path d="M0 0 C5.11762818 2.65358498 8.17705942 5.53117826 10 11 C10.39614654 16.24894167 9.86557317 19.55342094 7 24 C2.3094671 28.23291994 -0.50328133 29.31013995 -6.68359375 29.2109375 C-11.45183621 28.77672992 -14.14122573 26.90397292 -17.375 23.5 C-19.65429258 18.59075444 -19.77661125 14.32533427 -19 9 C-17.22652978 5.18021798 -15.74050477 3.51663123 -12.3125 1.125 C-8.06476306 -0.31762764 -4.43869285 -0.72387285 0 0 Z " fill="#99558E" transform="translate(838,530)"/>
<path d="M0 0 C3.85987396 2.00141613 6.99446399 4.0944825 9 8 C10.29809225 12.7502651 10.48789756 16.74801419 8.5 21.3125 C6.16190616 25.32409252 3.42235784 27.57372232 -1 29 C-6.28036398 29.88857189 -10.56303322 29.02520462 -15 26 C-18.46987891 22.34749588 -19.30013186 19.4034317 -19.5 14.5 C-19.30013186 9.5965683 -18.46987891 6.65250412 -15 3 C-10.27896221 -0.2937473 -5.59818552 -0.91296574 0 0 Z " fill="#09A495" transform="translate(655,246)"/>
<path d="M0 0 C3.97824426 2.09470186 6.49872573 4.05507076 8.02734375 8.28125 C8.67829448 13.60277223 8.67987245 17.87580356 6.40234375 22.78125 C2.58073653 26.80399444 -0.40042261 28.10655737 -5.91015625 28.71875 C-10.51808309 28.52454619 -13.25547855 26.97802598 -16.97265625 24.28125 C-20.00507633 20.54126524 -20.81047949 17.06546445 -20.97265625 12.28125 C-20.0527579 7.89530607 -18.69695832 4.98744452 -15.47265625 1.84375 C-10.70107373 -1.13848907 -5.32915233 -1.94171095 0 0 Z " fill="#1E3C6F" transform="translate(838.97265625,385.71875)"/>
<path d="M0 0 C3.64525532 3.77669482 5.10995103 7.24256543 5.359375 12.48046875 C5.00586004 16.88333685 3.00136685 19.68006021 0.1875 22.93359375 C-3.5938473 26.12410554 -7.57515833 25.95749861 -12.3046875 25.90234375 C-17.02751693 25.37268064 -19.64837564 22.94043469 -22.6875 19.49609375 C-24.37734251 15.17760733 -24.47210983 11.19438855 -23.8125 6.62109375 C-21.18570751 1.27022016 -18.05514417 -1.23959884 -12.5 -3.19140625 C-7.76520597 -3.52174072 -3.78433022 -2.87902708 0 0 Z " fill="#F57E29" transform="translate(659.8125,672.37890625)"/>
<path d="M0 0 C3.74875674 2.72636854 5.47989247 5.55462363 6.75 10 C7.03727853 14.88373509 5.88704369 19.21391279 2.75 23 C-1.73928308 26.02765603 -5.95968169 26.9609161 -11.25 26 C-15.20215917 23.91206685 -17.88625364 21.78063178 -20.25 18 C-20.98942261 13.54171662 -20.77155903 9.33287307 -19.125 5.125 C-13.37861465 -1.38757006 -7.99715661 -2.46066357 0 0 Z " fill="#AF3278" transform="translate(817.25,562)"/>
<path d="M0 0 C3.68190518 3.14496068 5.23912075 5.79998547 6 10.5 C6.31454159 16.00447777 4.50828847 19.20890744 1 23.375 C-3.57755464 25.85450876 -7.90579697 25.62910339 -13 25 C-16.22887109 23.72190519 -17.54896002 22.51325239 -19.8125 19.9375 C-21.57291555 15.58278785 -21.64560167 11.63052229 -21 7 C-19.20649685 2.88988862 -17.31869181 0.84716628 -13.3125 -1 C-8.57274361 -2.47675246 -4.51425708 -2.01206887 0 0 Z " fill="#F89728" transform="translate(605,650)"/>
<path d="M0 0 C3.13594153 1.26772104 4.56546548 2.52051364 6.8125 5 C8.65596765 9.65718144 8.77392518 14.06713108 8 19 C6.35248464 22.4306287 3.95278459 24.39127651 0.75 26.4375 C-4.9344278 27.60022387 -9.42388552 26.91701206 -14.4375 24 C-17.7242644 20.1520807 -18.87382181 17.04712754 -19 12 C-18.28548616 7.43995659 -16.7353479 4.71741258 -13.4375 1.5 C-8.82922714 -0.5108827 -4.95445122 -0.67937291 0 0 Z " fill="#00AA74" transform="translate(602,269)"/>
<path d="M0 0 C3.51835199 1.7257033 4.94000035 3.18912167 7.03515625 6.59375 C8.4837504 12.02597805 8.0688842 15.89544695 5.84765625 21.15625 C2.66391253 24.99869932 -0.56583566 26.19385628 -5.46484375 26.71875 C-10.78509786 26.14872277 -13.74584997 24.69105892 -17.33984375 20.71875 C-19.41751933 16.40357763 -19.79981413 13.04994668 -18.96484375 8.34375 C-15.02053182 0.45512614 -8.56094448 -2.85932142 0 0 Z " fill="#FED626" transform="translate(438.96484375,616.65625)"/>
<path d="M0 0 C3.73706368 2.43721545 5.0335931 5.11034912 6.1875 9.4375 C6.5850496 14.36323652 5.43717254 17.56461378 2.3125 21.375 C-0.60073577 24.58834297 -2.72910811 25.35573457 -7.125 25.6875 C-12.55499192 25.31936495 -15.49366251 23.86045624 -19.1875 19.875 C-21.36158948 15.27596457 -21.76254937 11.43946933 -20.8125 6.4375 C-19.16439888 3.25855396 -16.84970833 1.2243477 -14 -0.9375 C-9.04183928 -2.35411735 -4.60499906 -2.27323047 0 0 Z " fill="#184B88" transform="translate(817.8125,357.5625)"/>
<path d="M0 0 C3.20303177 1.83838468 5.43844255 4.12104051 7.4375 7.25 C8.52882063 12.5853453 8.0588954 17.28385918 5.1875 21.9375 C0.91560271 25.96528888 -2.7874666 26.49670049 -8.5234375 26.38671875 C-12.62308884 25.74655237 -14.22996791 24.0470353 -17 21 C-19.53885434 16.74523032 -19.66405771 12.84173726 -19 8 C-17.11280615 3.92366128 -15.60608262 2.36131848 -11.75 0.0625 C-7.40022685 -1.16993573 -4.29768623 -1.42965627 0 0 Z " fill="#7DC45E" transform="translate(439,302)"/>
<path d="M0 0 C3.00956086 2.51820398 4.65540375 4.28009553 5.4375 8.18359375 C5.72780549 13.5633174 4.56632017 16.82231066 1 21 C-3.24908406 23.83272271 -7.01145405 23.76806539 -12 23 C-15.89221342 21.01029416 -18.38826789 18.04057492 -20 14 C-20.33157269 9.24745815 -19.65731177 5.85815704 -16.75 2.0625 C-10.94300773 -2.2927442 -6.74598511 -2.74474982 0 0 Z " fill="#FEC126" transform="translate(559,616)"/>
<path d="M0 0 C3.8239587 3.27767888 5.04070549 6.48045218 5.5625 11.4375 C5.02211381 16.39104009 2.95097812 19.67692705 -0.8125 22.875 C-5.18964788 24.19231308 -8.88771127 24.20038863 -13.1875 22.6875 C-17.42384253 19.76240635 -18.53790218 18.09107604 -19.6875 13 C-20.14584894 8.07733242 -18.43090669 4.83057475 -15.3125 1.0625 C-10.98756717 -2.36140516 -4.8542817 -1.94171268 0 0 Z " fill="#4EBA69" transform="translate(558.8125,306.125)"/>
<path d="M0 0 C2.96260319 1.81189251 5.42159878 3.84319756 7 7 C7.57717357 11.73093088 7.43416625 15.14717343 5.25 19.4375 C1.80511628 23.36083979 0.30781468 23.89620518 -4.9375 24.3125 C-9.6728313 24.18047403 -12.41210237 22.58789763 -15.75 19.25 C-17.51375407 16.07524268 -17.87694316 13.63017667 -18 10 C-16.55336018 5.43166373 -15.24699322 2.38893368 -11 0 C-7.13681848 -1.28772717 -3.86897014 -1.08769161 0 0 Z " fill="#3367A3" transform="translate(785,335)"/>
<path d="M0 0 C3.49962842 2.38999014 5.61227523 5.1066107 6.46875 9.2890625 C6.65383799 13.90083814 6.13866432 17.44284711 3 21 C-1.37576915 23.88402967 -4.80099864 24.64987517 -10 24 C-13.93953005 22.10599517 -15.67463918 20.5185438 -18 16.8125 C-19.26041632 12.00716279 -18.96633882 8.55873169 -17 4 C-11.98642882 -1.14212429 -6.74292455 -2.01829034 0 0 Z " fill="#BD256A" transform="translate(786,586)"/>
<path d="M0 0 C3.00815661 1.28298191 3.80850308 2.31541627 6 5 C7.37105716 9.28358536 7.53517384 12.70431597 5.8125 16.875 C1.69177044 21.70620017 1.69177044 21.70620017 -2.046875 22.35546875 C-6.04029932 22.60338268 -9.16118157 22.39322107 -12.5 20.0625 C-15.31821658 16.61018468 -16.02371308 14.58823849 -16.2421875 10.21875 C-15.85639279 6.68437266 -14.30350467 4.62343588 -12 2 C-7.94779064 -0.70147291 -4.75672036 -0.76172353 0 0 Z " fill="#D3515B" transform="translate(749,601)"/>
<path d="M0 0 C3.07469523 1.70251719 5.40613254 3.81226508 7 7 C7.55512815 11.63213493 7.6364242 14.98172127 5.125 19 C1.40957094 22.49687441 -1.58097235 22.32862375 -6.515625 22.29296875 C-9.97198834 21.88537873 -11.68663869 20.53723498 -14 18 C-15.84862688 14.30274625 -15.47587094 10.03538558 -15 6 C-11.21221123 -0.18672166 -6.91624103 -1.06760768 0 0 Z " fill="#4B8ECB" transform="translate(749,321)"/>
<path d="M0 0 C3.27081121 2.53654747 5.6952895 4.78431934 6.2734375 8.98828125 C6.46972622 13.48027315 6.51482633 15.34969305 3.625 19 C-0.53922803 22.17274517 -3.84215945 22.55439361 -9 22 C-11.84124653 20.76467542 -13.42097859 19.7444561 -15.3125 17.3125 C-16.34579439 13.83687341 -16.57384972 10.55923458 -16 7 C-12.02914984 -0.27989195 -7.96657603 -1.15239779 0 0 Z " fill="#7BC45D" transform="translate(522,352)"/>
<path d="M0 0 C3.02508145 1.73602105 5.41790069 3.83580137 7 7 C7.35032356 12.34243433 7.4561069 15.64786539 4 20 C-0.23552856 22.82368571 -4.02477314 22.66653757 -9 22 C-11.93423195 20.20353146 -13.47205355 19.0558929 -15 16 C-15.53118173 12.20584481 -15.85089348 8.53668822 -13.953125 5.109375 C-9.92874684 0.23277558 -6.234118 -1.06407951 0 0 Z " fill="#FED626" transform="translate(521,570)"/>
<path d="M0 0 C2.79750031 2.18341487 3.75038246 3.67510688 4.40625 7.15625 C4.70150462 11.58506933 4.45078467 13.43058778 1.625 17 C-2.18996521 19.90664016 -4.18673652 20.4628138 -9 20 C-14.57894737 16.84210526 -14.57894737 16.84210526 -16 14 C-16.55112923 9.40123316 -16.61753151 6.02212113 -14.1875 2 C-9.92113103 -1.9006802 -5.30648149 -1.36014508 0 0 Z " fill="#3399B4" transform="translate(713,318)"/>
<path d="M0 0 C3.125 1.9375 3.125 1.9375 5 5 C5.93971476 9.68164203 5.66873692 12.93002092 3.125 17 C-0.14840013 20.08084718 -2.46126475 20.33387487 -6.9609375 20.29296875 C-10.13134567 19.83745033 -11.8192402 18.24684343 -14 16 C-15.7473737 12.50525261 -15.55225821 8.81321144 -15 5 C-11.39489863 -0.88833223 -6.35802772 -1.26118255 0 0 Z " fill="#E0644E" transform="translate(712,607)"/>
<path d="M0 0 C3.34238038 2.14255152 3.89167954 3.60282498 4.9375 7.4375 C5.00754154 11.42986787 4.46465254 12.91918433 2 16 C-1.48804095 18.32536063 -2.90140754 18.33457898 -7 18 C-9.55040714 17.14986429 -10.65294576 16.46852322 -12.25 14.3125 C-13.33306103 10.97306183 -13.42875125 8.49126017 -13 5 C-9.28222104 -0.46048784 -6.17499257 -0.8821418 0 0 Z " fill="#F57E29" transform="translate(674,603)"/>
<path d="M0 0 C2.375 1.5 2.375 1.5 4 4 C4.78013016 8.33051843 4.80355349 11.76376386 2.375 15.5 C-0.58989249 17.37256368 -2.48392794 17.92967856 -6 18 C-9.56142534 16.76719892 -11.43265682 15.9126825 -13.4375 12.6875 C-14.13205095 9.36908992 -13.96874011 7.25219893 -13 4 C-9.12030105 -0.78496204 -5.90596002 -1.56688735 0 0 Z " fill="#09A496" transform="translate(674,324)"/>
<path d="M0 0 C3.41639845 1.9739191 4.72268412 3.18538459 6 6.9375 C6 10.57241294 5.19961414 12.14864833 3 15 C-0.05693322 16.52846661 -2.62984547 16.23242445 -6 16 C-8.375 14.9375 -8.375 14.9375 -10 13 C-11.10373378 9.02655839 -11.41543583 6.91000228 -9.6875 3.125 C-6.84166592 -0.45864292 -4.43603275 -0.43490517 0 0 Z " fill="#00AA74" transform="translate(637,339)"/>
<path d="M0 0 C3.5 0.5625 3.5 0.5625 5.875 2.125 C8.0699479 5.41742184 8.56944397 7.60419355 8.5 11.5625 C6.09321321 14.99034786 4.64162899 16.34844456 0.5 17.125 C-3.30484394 16.41159176 -4.9511805 15.4861459 -7.5 12.5625 C-8.17496305 8.43772581 -7.90126114 6.31687094 -5.9375 2.625 C-3.5 0.5625 -3.5 0.5625 0 0 Z " fill="#F89827" transform="translate(634.5,588.4375)"/>
<path d="M0 0 C1.9375 1.625 1.9375 1.625 3 4 C2.875 7.625 2.875 7.625 2 11 C-1.49124017 13.32749345 -2.89222251 13.50299316 -7 13 C-9.4375 11.4375 -9.4375 11.4375 -11 9 C-11 5.18846501 -10.80074051 2.94902579 -8.3125 0 C-5.10029355 -1.38906225 -3.3063364 -1.05521374 0 0 Z " fill="#4FB969" transform="translate(609,364)"/>
<path d="M0 0 C2.875 1 2.875 1 4.8125 2.6875 C6.25091779 5.81817402 5.73107579 7.71837614 4.875 11 C4.545 11.66 4.215 12.32 3.875 13 C-0.21267301 14.10052735 -2.27127796 14.45410747 -6.0625 12.4375 C-8.125 10 -8.125 10 -8.75 7 C-8.125 4 -8.125 4 -6 1.5625 C-3.125 0 -3.125 0 0 0 Z " fill="#FEC025" transform="translate(606.125,567)"/>
</svg>
